<!--?xml version="1.0" encoding="utf-8"?-->
<!-- Generator: Adobe Illustrator 24.0.2, SVG Export Plug-In . SVG Version: 6.00 Build 0)  -->
<svg version="1.1" id="Capa_1" xmlns="http://www.w3.org/2000/svg" xmlns:xlink="http://www.w3.org/1999/xlink" x="0px" y="0px" width="220px" height="220px" viewBox="0 0 220 220" style="" xml:space="preserve">
<style type="text/css">
	.st0{clip-path:url(#SVGID_2_);fill:none;stroke:#9E5433;stroke-width:23;stroke-miterlimit:10;}
	.st1{clip-path:url(#SVGID_4_);fill:none;stroke:#824D29;stroke-width:23;stroke-miterlimit:10;}
	.st2{clip-path:url(#SVGID_6_);fill:none;stroke:#BF6945;stroke-width:23;stroke-miterlimit:10;}
	.st3{clip-path:url(#SVGID_8_);fill:none;stroke:#C7A85C;stroke-width:22;stroke-miterlimit:10;}
</style>
<g>
	<defs>
		<path id="SVGID_1_" d="M0,177.3c14-1.7,27.9-3.8,41.6-7c20.4-4.8,40.7-12.1,58.3-23.7c17-11.2,30.9-26.2,41.6-43.5
			c19-31,26.9-67.4,32.9-103.1h-19c-2.7,15.7-5.9,31.4-10.3,46.8c-10.3,35.9-28.6,68.9-61.7,88C58,149.4,29,155.2,0,158.6V177.3z" class="pwZDDfCI_0"></path>
	</defs>
	<clipPath id="SVGID_2_">
		<use xlink:href="#SVGID_1_" style="overflow:visible;"></use>
	</clipPath>
	<path class="st0 pwZDDfCI_1" d="M164.3-2.2c0,0,2.2,54.8-40.3,113.7C83.1,168.1-3,167.2-3,167.2"></path>
</g>
<g>
	<defs>
		<path id="SVGID_3_" d="M0,220c20.6-3,40.8-7.8,60.4-14.7c48-17,90.5-46.2,119.8-88.2C204,82.7,217.6,41.5,216,0h-18.5
			c0.9,18.9-2,37.9-7.7,55.9c-13.4,42.3-42.3,79.2-79.1,103.8C77.5,181.8,39.2,195,0,201.1V220z" class="pwZDDfCI_2"></path>
	</defs>
	<clipPath id="SVGID_4_">
		<use xlink:href="#SVGID_3_" style="overflow:visible;"></use>
	</clipPath>
	<path class="st1 pwZDDfCI_3" d="M207.1-2.2c0,0,5.6,69.7-53.1,138.4C97.1,202.6-2,210.5-2,210.5"></path>
</g>
<g>
	<defs>
		<path id="SVGID_5_" d="M0,138.6c9.9-0.5,19.7-1.4,29.5-3.1c14.9-2.6,29.8-7.6,42.5-16c13.4-8.9,24.1-21,32.9-34.3
			C121.5,60.1,130.5,30.1,131,0h-18.7c-0.3,14.4-2.7,28.5-7.2,42.1c-8.4,25.6-24.8,51.8-49,65c-17.1,9.3-36.7,12-56.2,12.9
			C0,120,0,138.6,0,138.6z" class="pwZDDfCI_4"></path>
	</defs>
	<clipPath id="SVGID_6_">
		<use xlink:href="#SVGID_5_" style="overflow:visible;"></use>
	</clipPath>
	<path class="st2 pwZDDfCI_5" d="M120.4-2.2c0,0,4.4,40.3-26.6,87.3C59.1,137.7-3,129-3,129"></path>
</g>
<g>
	<defs>
		<path id="SVGID_7_" d="M0,103.5c21-2.8,41.2-10.4,57.7-24.2c22.7-19,34.3-50,30.7-79.3H69.6c3.1,25-5.7,49.8-25.2,66.1
			C31.9,76.5,16.1,82.3,0,84.7V103.5z" class="pwZDDfCI_6"></path>
	</defs>
	<clipPath id="SVGID_8_">
		<use xlink:href="#SVGID_7_" style="overflow:visible;"></use>
	</clipPath>
	<path class="st3 pwZDDfCI_7" d="M77.5-5.5c0,0,9.7,28.2-13,62.3c-25.1,37.8-67,36.9-67,36.9"></path>
</g>
<style data-made-with="vivus-instant">.pwZDDfCI_0{stroke-dasharray:559 561;stroke-dashoffset:560;animation:pwZDDfCI_draw_0 3100ms linear 0ms infinite,pwZDDfCI_fade 3100ms linear 0ms infinite;}.pwZDDfCI_1{stroke-dasharray:266 268;stroke-dashoffset:267;animation:pwZDDfCI_draw_1 3100ms linear 0ms infinite,pwZDDfCI_fade 3100ms linear 0ms infinite;}.pwZDDfCI_2{stroke-dasharray:685 687;stroke-dashoffset:686;animation:pwZDDfCI_draw_2 3100ms linear 0ms infinite,pwZDDfCI_fade 3100ms linear 0ms infinite;}.pwZDDfCI_3{stroke-dasharray:329 331;stroke-dashoffset:330;animation:pwZDDfCI_draw_3 3100ms linear 0ms infinite,pwZDDfCI_fade 3100ms linear 0ms infinite;}.pwZDDfCI_4{stroke-dasharray:436 438;stroke-dashoffset:437;animation:pwZDDfCI_draw_4 3100ms linear 0ms infinite,pwZDDfCI_fade 3100ms linear 0ms infinite;}.pwZDDfCI_5{stroke-dasharray:205 207;stroke-dashoffset:206;animation:pwZDDfCI_draw_5 3100ms linear 0ms infinite,pwZDDfCI_fade 3100ms linear 0ms infinite;}.pwZDDfCI_6{stroke-dasharray:313 315;stroke-dashoffset:314;animation:pwZDDfCI_draw_6 3100ms linear 0ms infinite,pwZDDfCI_fade 3100ms linear 0ms infinite;}.pwZDDfCI_7{stroke-dasharray:146 148;stroke-dashoffset:147;animation:pwZDDfCI_draw_7 3100ms linear 0ms infinite,pwZDDfCI_fade 3100ms linear 0ms infinite;}@keyframes pwZDDfCI_draw{100%{stroke-dashoffset:0;}}@keyframes pwZDDfCI_fade{0%{stroke-opacity:1;}87.09677419354838%{stroke-opacity:1;}100%{stroke-opacity:0;}}@keyframes pwZDDfCI_draw_0{6.451612903225806%{stroke-dashoffset: 560}49.462365591397855%{ stroke-dashoffset: 0;}100%{ stroke-dashoffset: 0;}}@keyframes pwZDDfCI_draw_1{9.523809523809524%{stroke-dashoffset: 267}52.53456221198157%{ stroke-dashoffset: 0;}100%{ stroke-dashoffset: 0;}}@keyframes pwZDDfCI_draw_2{12.59600614439324%{stroke-dashoffset: 686}55.60675883256528%{ stroke-dashoffset: 0;}100%{ stroke-dashoffset: 0;}}@keyframes pwZDDfCI_draw_3{15.668202764976957%{stroke-dashoffset: 330}58.67895545314901%{ stroke-dashoffset: 0;}100%{ stroke-dashoffset: 0;}}@keyframes pwZDDfCI_draw_4{18.74039938556068%{stroke-dashoffset: 437}61.751152073732726%{ stroke-dashoffset: 0;}100%{ stroke-dashoffset: 0;}}@keyframes pwZDDfCI_draw_5{21.812596006144393%{stroke-dashoffset: 206}64.82334869431644%{ stroke-dashoffset: 0;}100%{ stroke-dashoffset: 0;}}@keyframes pwZDDfCI_draw_6{24.884792626728107%{stroke-dashoffset: 314}67.89554531490015%{ stroke-dashoffset: 0;}100%{ stroke-dashoffset: 0;}}@keyframes pwZDDfCI_draw_7{27.956989247311824%{stroke-dashoffset: 147}70.96774193548387%{ stroke-dashoffset: 0;}100%{ stroke-dashoffset: 0;}}</style></svg>
