<?xml version="1.0" encoding="utf-8"?>
<!-- Generator: Adobe Illustrator 24.0.2, SVG Export Plug-In . SVG Version: 6.00 Build 0)  -->
<svg version="1.1" id="Capa_1" xmlns="http://www.w3.org/2000/svg" xmlns:xlink="http://www.w3.org/1999/xlink" x="0px" y="0px"
	 width="220px" height="220px" viewBox="0 0 220 220" style="enable-background:new 0 0 220 220;" xml:space="preserve">
<style type="text/css">
	.st0{clip-path:url(#SVGID_2_);fill:none;stroke:#9E5433;stroke-width:23;stroke-miterlimit:10;}
	.st1{clip-path:url(#SVGID_4_);fill:none;stroke:#824D29;stroke-width:23;stroke-miterlimit:10;}
	.st2{clip-path:url(#SVGID_6_);fill:none;stroke:#BF6945;stroke-width:23;stroke-miterlimit:10;}
	.st3{clip-path:url(#SVGID_8_);fill:none;stroke:#C7A85C;stroke-width:22;stroke-miterlimit:10;}
</style>
<g>
	<defs>
		<path id="SVGID_1_" d="M0,177.3c14-1.7,27.9-3.8,41.6-7c20.4-4.8,40.7-12.1,58.3-23.7c17-11.2,30.9-26.2,41.6-43.5
			c19-31,26.9-67.4,32.9-103.1h-19c-2.7,15.7-5.9,31.4-10.3,46.8c-10.3,35.9-28.6,68.9-61.7,88C58,149.4,29,155.2,0,158.6V177.3z"/>
	</defs>
	<clipPath id="SVGID_2_">
		<use xlink:href="#SVGID_1_"  style="overflow:visible;"/>
	</clipPath>
	<path class="st0" d="M164.3-2.2c0,0,2.2,54.8-40.3,113.7C83.1,168.1-3,167.2-3,167.2"/>
</g>
<g>
	<defs>
		<path id="SVGID_3_" d="M0,220c20.6-3,40.8-7.8,60.4-14.7c48-17,90.5-46.2,119.8-88.2C204,82.7,217.6,41.5,216,0h-18.5
			c0.9,18.9-2,37.9-7.7,55.9c-13.4,42.3-42.3,79.2-79.1,103.8C77.5,181.8,39.2,195,0,201.1V220z"/>
	</defs>
	<clipPath id="SVGID_4_">
		<use xlink:href="#SVGID_3_"  style="overflow:visible;"/>
	</clipPath>
	<path class="st1" d="M207.1-2.2c0,0,5.6,69.7-53.1,138.4C97.1,202.6-2,210.5-2,210.5"/>
</g>
<g>
	<defs>
		<path id="SVGID_5_" d="M0,138.6c9.9-0.5,19.7-1.4,29.5-3.1c14.9-2.6,29.8-7.6,42.5-16c13.4-8.9,24.1-21,32.9-34.3
			C121.5,60.1,130.5,30.1,131,0h-18.7c-0.3,14.4-2.7,28.5-7.2,42.1c-8.4,25.6-24.8,51.8-49,65c-17.1,9.3-36.7,12-56.2,12.9
			C0,120,0,138.6,0,138.6z"/>
	</defs>
	<clipPath id="SVGID_6_">
		<use xlink:href="#SVGID_5_"  style="overflow:visible;"/>
	</clipPath>
	<path class="st2" d="M120.4-2.2c0,0,4.4,40.3-26.6,87.3C59.1,137.7-3,129-3,129"/>
</g>
<g>
	<defs>
		<path id="SVGID_7_" d="M0,103.5c21-2.8,41.2-10.4,57.7-24.2c22.7-19,34.3-50,30.7-79.3H69.6c3.1,25-5.7,49.8-25.2,66.1
			C31.9,76.5,16.1,82.3,0,84.7V103.5z"/>
	</defs>
	<clipPath id="SVGID_8_">
		<use xlink:href="#SVGID_7_"  style="overflow:visible;"/>
	</clipPath>
	<path class="st3" d="M77.5-5.5c0,0,9.7,28.2-13,62.3c-25.1,37.8-67,36.9-67,36.9"/>
</g>
</svg>
