<?xml version="1.0" encoding="utf-8"?>
<!-- Generator: Adobe Illustrator 24.0.2, SVG Export Plug-In . SVG Version: 6.00 Build 0)  -->
<svg version="1.1" id="Layer_1" xmlns="http://www.w3.org/2000/svg" xmlns:xlink="http://www.w3.org/1999/xlink" x="0px" y="0px"
	 width="520px" height="400px" viewBox="0 0 520 400" style="enable-background:new 0 0 520 400;" xml:space="preserve">
<style type="text/css">
	.st0{fill:#9C2E3D;}
	.st1{fill:#800000;}
	.st2{fill:#C7A85C;}
	.st3{fill:#B88F3D;}
	.st4{fill:#E8DEBA;}
	.st5{fill:#333333;}
</style>
<g>
	<g>
		<path class="st0" d="M479.1,391.6l-78-78c-1.8-1.8-1.8-4.8,0-6.6l26.3-26.3c1.8-1.8,4.8-1.8,6.6,0l78,78c1.8,1.8,1.8,4.8,0,6.6
			l-26.3,26.3C484,393.3,481,393.3,479.1,391.6z"/>
		<path class="st1" d="M427.5,280.6l-16.4,16.5c1.8-1.8,4.8-1.8,6.6,0l78,78c1.8,1.8,1.8,4.8,0,6.6l16.4-16.4c1.8-1.8,1.8-4.8,0-6.6
			l-78-78C432.4,278.8,429.4,278.8,427.5,280.6z"/>
		<path class="st1" d="M370.3,266.2l16.4-16.4l35.9,35.9L406.1,302L370.3,266.2z"/>
		<path class="st2" d="M415.7,328.2l32.9-32.9l16.4,16.4l-32.9,32.9L415.7,328.2z"/>
		<path class="st3" d="M432.2,311.7l16.4-16.4l16.4,16.4l-16.4,16.4L432.2,311.7z"/>
		<circle class="st0" cx="279" cy="158.5" r="151.3"/>
		<path class="st1" d="M279,7.1c-3.9,0-7.7,0.2-11.7,0.5c78.1,5.9,139.8,71.3,139.8,150.9s-61.6,145-139.8,150.9
			c3.9,0.3,7.7,0.5,11.7,0.5c83.6,0,151.3-67.7,151.3-151.3S362.6,7.1,279,7.1z"/>
		<circle class="st4" cx="279" cy="158.5" r="128.1"/>
		<path class="st2" d="M279,30.3c-4,0-7.8,0.2-11.7,0.5c65.2,5.9,116.5,60.8,116.5,127.6S332.6,280,267.4,286
			c3.8,0.3,7.7,0.5,11.7,0.5c70.6,0,128.1-57.4,128.1-128.1S349.7,30.3,279,30.3z"/>
		<g>
			<path class="st2" d="M257.6,161.2h-46.6V92.8c0-1.7,1.4-3.1,3.1-3.1h40.4c1.7,0,3.1,1.4,3.1,3.1V161.2z"/>
			<path class="st3" d="M234.4,89.8v71.4h23.3V92.8c0-1.7-1.4-3.1-3.1-3.1L234.4,89.8L234.4,89.8z"/>
			<path class="st2" d="M350.9,161.2h-46.6v-38.8c0-1.7,1.4-3.1,3.1-3.1h40.3c1.7,0,3.1,1.4,3.1,3.1L350.9,161.2L350.9,161.2z"/>
			<path class="st3" d="M327.6,119.3v41.9h23.3v-38.8c0-1.7-1.4-3.1-3.1-3.1H327.6z"/>
			<path class="st0" d="M304.2,161.2h-46.6V63.3c0-1.7,1.4-3.1,3.1-3.1h40.4c1.7,0,3.1,1.4,3.1,3.1V161.2z"/>
			<path class="st1" d="M280.9,60.2v100.9h23.3V63.3c0-1.7-1.4-3.1-3.1-3.1H280.9z"/>
		</g>
		<g>
			<path class="st5" d="M518,361.9c0-2.6-0.9-4.9-2.7-6.6l-5.6-5.6c-0.9-0.9-2.1-1.4-3.3-1.4c-1.3,0-2.4,0.5-3.3,1.4
				c-1.8,1.8-1.8,4.8,0,6.5l4.9,4.9c0.5,0.5,0.5,1.2,0,1.7l-24.7,24.7c-0.5,0.5-1.2,0.5-1.7,0l-42-42c-0.5-0.5-0.5-1.2,0-1.7
				l24.7-24.7c0.5-0.5,1.2-0.5,1.7,0l19.6,19.6c1.8,1.8,4.8,1.8,6.5,0s1.8-4.8,0-6.5l-54.7-54.7c-1.7-1.8-4.1-2.8-6.5-2.8
				c-2.5,0-4.9,1-6.5,2.8l-0.9,0.9c-0.5,0.5-1.2,0.5-1.7,0l-20.8-20.8c-0.4-0.4-0.5-1.1-0.1-1.6c15-18.7,25.6-40.9,30.7-64.3
				c0.1-0.5,0.6-0.9,1.1-0.9h41c2.5,0,4.7-2.2,4.7-4.7s-2.2-4.7-4.7-4.7h-38.9c-0.3,0-0.7-0.1-0.9-0.4c-0.2-0.3-0.3-0.6-0.3-0.9
				c0.6-3.8,0.9-7.4,1.2-11.2c0-0.6,0.6-1.1,1.2-1.1h65.6c2.5,0,4.7-2.2,4.7-4.7s-2.2-4.7-4.7-4.7h-65.2c-0.6,0-1.2-0.5-1.2-1.2
				c0-3.8-0.2-7.4-0.5-11.2c0-0.3,0.1-0.7,0.3-0.9c0.2-0.2,0.5-0.4,0.9-0.4h37.9c2.5,0,4.7-2.2,4.7-4.7s-2.2-4.7-4.7-4.7h-39.3
				c-0.6,0-1.1-0.4-1.2-1c-4.1-26.6-14.8-51.2-31.8-72.9c-1.6-2-4.6-2.4-6.5-0.8c-1,0.8-1.6,1.9-1.7,3.2c-0.1,1.2,0.2,2.5,1,3.4
				c20.6,26.2,31.5,57.6,31.5,91c0,80.9-65.9,146.7-146.7,146.7s-146.7-65.9-146.7-146.7S198.1,11.7,279,11.7
				c36.5,0,71.6,13.6,98.7,38.1c2,1.8,4.9,1.6,6.5-0.3c1.8-2,1.6-4.9-0.3-6.5c-28.8-26.1-66.1-40.5-105-40.5c-86.1,0-156,70-156,156
				c0,74.7,53.2,139.2,126.5,153.2c0.6,0.1,1,0.6,1,1.2v39.3c0,2.5,2.2,4.7,4.7,4.7s4.7-2.2,4.7-4.7v-37.5c0-0.3,0.1-0.7,0.4-0.9
				c0.2-0.2,0.6-0.3,0.9-0.3c4.3,0.4,7.8,0.7,11.2,0.9c0.6,0,1.1,0.5,1.1,1.2v64c0,2.5,2.2,4.7,4.7,4.7c2.5,0,4.7-2.2,4.7-4.7v-63.9
				c0-0.6,0.5-1.2,1.2-1.2c3.8-0.1,7.5-0.4,11.2-0.7c0.3,0,0.7,0.1,0.9,0.3c0.2,0.2,0.4,0.5,0.4,0.9v37.2c0,2.5,2.2,4.7,4.7,4.7
				s4.7-2.2,4.7-4.7v-38.9c0-0.6,0.4-1.1,1-1.2c25.4-4.5,49.5-15.5,69.9-31.8c0.2-0.2,0.5-0.3,0.7-0.3c0.3,0,0.6,0.1,0.8,0.3
				l20.8,20.8c0.5,0.5,0.5,1.2,0,1.7l-0.9,0.9c-1.8,1.7-2.8,4.1-2.8,6.5c0,2.5,1,4.9,2.8,6.5l78,78c1.7,1.8,4.1,2.8,6.5,2.8
				c2.5,0,4.9-1,6.5-2.8l26.3-26.3C517.1,366.6,518,364.3,518,361.9z M385.1,274.4c-0.2-0.2-0.4-0.5-0.3-0.9c0-0.3,0.1-0.6,0.4-0.8
				c2.9-2.7,5.5-5.2,8.1-8.1c0.2-0.2,0.5-0.4,0.8-0.4c0.3,0,0.6,0.1,0.9,0.3l20.3,20.3c0.2,0.2,0.3,0.5,0.3,0.8
				c0,0.3-0.1,0.6-0.3,0.8l-8.2,8.2c-0.2,0.2-0.5,0.3-0.8,0.3c-0.3,0-0.6-0.1-0.8-0.3L385.1,274.4z M415.8,321.1
				c-0.3,0-0.6-0.1-0.8-0.3l-9.6-9.6c-0.2-0.2-0.3-0.5-0.3-0.8c0-0.3,0.1-0.6,0.3-0.8l24.7-24.7c0.4-0.4,1.2-0.4,1.7,0l9.6,9.6
				c0.5,0.5,0.5,1.2,0,1.7l-24.7,24.7C416.4,321,416.1,321.1,415.8,321.1z M432.3,337.6c-0.3,0-0.6-0.1-0.8-0.3l-8.2-8.2
				c-0.2-0.2-0.3-0.5-0.3-0.8c0-0.3,0.1-0.6,0.3-0.8l24.7-24.7c0.4-0.4,1.2-0.4,1.7,0l8.2,8.2c0.5,0.5,0.5,1.2,0,1.7l-24.7,24.7
				C432.9,337.5,432.6,337.6,432.3,337.6z"/>
			<path class="st5" d="M279,25.7c-35.3,0-68.5,13.9-93.6,38.9c-24.9,25.1-38.8,58.3-39.2,93.7c-0.4,32.6,11.5,64,33.4,88.4
				c1.7,1.9,4.7,2.1,6.6,0.4c0.9-0.8,1.5-1.9,1.5-3.2c0.1-1.3-0.4-2.5-1.2-3.4c-20.3-22.6-31.3-51.7-31-82c0.3-33,13.3-64,36.5-87.3
				C215.3,47.9,246.2,35,279,35c68,0,123.4,55.4,123.4,123.4s-55.4,123.4-123.3,123.4c-27.3-0.3-53.2-9-74.9-25.3
				c-0.8-0.6-1.8-0.9-2.8-0.9c-1.4,0-2.8,0.7-3.8,1.9c-0.8,1-1.1,2.3-0.9,3.5s0.8,2.3,1.8,3.1l0,0c23.1,17.4,50.9,26.7,80.3,27.1
				c73.2,0,132.7-59.5,132.7-132.7S352.2,25.7,279,25.7z"/>
			<path class="st5" d="M197.5,165.8h167c2.5,0,4.7-2.2,4.7-4.7c0-2.5-2.2-4.7-4.7-4.7h-7.7c-0.6,0-1.2-0.5-1.2-1.2v-33
				c0-4.3-3.5-7.7-7.7-7.7h-37.6c-0.6,0-1.2-0.5-1.2-1.2V63.3c-0.1-4.3-3.6-7.7-7.8-7.7h-40.4c-4.3,0-7.7,3.5-7.7,7.7v20.6
				c0,0.6-0.5,1.2-1.2,1.2h-37.6c-4.3,0-7.7,3.5-7.7,7.7v62.5c0,0.6-0.5,1.2-1.2,1.2h-7.7c-2.5,0-4.7,2.2-4.7,4.7
				C193,163.6,195,165.8,197.5,165.8z M308.9,125.1c0-0.6,0.5-1.2,1.2-1.2h35c0.6,0,1.2,0.5,1.2,1.2v30.3c0,0.6-0.5,1.2-1.2,1.2h-35
				c-0.6,0-1.2-0.5-1.2-1.2V125.1z M262.3,66.1c0-0.6,0.5-1.2,1.2-1.2h35c0.6,0,1.2,0.5,1.2,1.2v89.2c0,0.6-0.5,1.2-1.2,1.2h-35
				c-0.6,0-1.2-0.5-1.2-1.2V66.1z M215.8,95.6c0-0.6,0.5-1.2,1.2-1.2h35c0.6,0,1.2,0.5,1.2,1.2v59.8c0,0.6-0.5,1.2-1.2,1.2h-35
				c-0.6,0-1.2-0.5-1.2-1.2V95.6z"/>
			<path class="st5" d="M346.2,217.5h-27.4c-0.5,0-0.9-0.3-1.1-0.7L305.3,185c-0.7-1.8-2.4-3-4.5-3c-1.9,0-3.7,1.2-4.4,3.1l-17,45.9
				c-0.2,0.5-0.6,0.8-1.1,0.8l0,0c-0.5,0-0.9-0.3-1.1-0.8l-11.9-33.7c-0.6-1.7-2.2-2.9-4-3.1c-1.8-0.2-3.6,0.8-4.5,2.4l-11.4,20.5
				c-0.2,0.4-0.6,0.6-1,0.6h-27.3c-2.5,0-4.7,2.2-4.7,4.7s2.2,4.7,4.7,4.7h30.7c1.7,0,3.3-0.9,4.1-2.4l6.8-12.2
				c0.2-0.4,0.6-0.6,1-0.6h0.1c0.5,0,0.9,0.3,1,0.8l13,36.7c0.7,1.9,2.4,3.1,4.4,3.1c2,0,3.8-1.2,4.5-3.1l17.3-46.7
				c0.2-0.5,0.6-0.8,1.1-0.8l0,0c0.5,0,0.9,0.3,1.1,0.7l8.3,21.3c0.7,1.8,2.4,3,4.4,3h31.4c2.5,0,4.7-2.2,4.7-4.7
				C350.9,219.7,348.7,217.5,346.2,217.5z"/>
		</g>
	</g>
	<g>
		<path class="st5" d="M102.6,235.6c-0.1,0.5-0.5,0.9-1,1.3l-11.2,6.8c-0.6,0.4-1.1,0.5-1.6,0.4c-0.5-0.1-0.9-0.5-1.3-1l-4.5-7.2
			c-0.4-0.6-0.5-1.1-0.5-1.6c0.1-0.5,0.3-0.8,0.8-1.1c1-0.6,1.9-0.3,2.7,0.9l3.3,5.2l2.8-1.7l-3-4.9c-0.8-1.2-0.6-2.1,0.4-2.8
			c0.5-0.3,0.9-0.4,1.4-0.2c0.4,0.2,0.9,0.5,1.2,1.1l3,4.9l3.1-1.9l-3.3-5.2c-0.8-1.2-0.6-2.2,0.4-2.8c0.5-0.3,0.9-0.4,1.4-0.2
			c0.4,0.2,0.9,0.5,1.2,1.1l4.5,7.2C102.6,234.6,102.7,235.1,102.6,235.6z"/>
		<path class="st5" d="M87.9,211.2c0.5-0.2,1-0.3,1.6-0.1c0.6,0.2,1,0.6,1.2,1.1c0.3,0.5,0.2,1.1,0,1.7l-2.7,6l6.4,1.7
			c0.6,0.2,1.1,0.5,1.3,1c0.2,0.5,0.3,1,0.1,1.6s-0.5,1-1.1,1.2c-0.4,0.2-0.9,0.2-1.4,0.1l-6.9-1.9l-2.8,6.4c-0.2,0.5-0.6,0.9-1,1.1
			c-0.5,0.2-1,0.3-1.6,0.1c-0.6-0.2-1-0.6-1.2-1.1c-0.3-0.5-0.2-1.1,0-1.7l2.6-5.8l-6.2-1.6c-0.6-0.1-1.1-0.5-1.3-1s-0.3-1-0.1-1.6
			c0.2-0.6,0.5-1,1-1.2c0.4-0.2,0.9-0.2,1.4-0.1l6.8,1.8l2.9-6.6C87.2,211.8,87.5,211.5,87.9,211.2z"/>
		<path class="st5" d="M88.4,208.4c-0.2,0.5-0.7,0.9-1.3,1.1L74.7,214c-0.6,0.2-1.2,0.2-1.7,0c-0.5-0.2-0.8-0.6-1-1.3l-2.2-5.9
			c-0.7-1.8-0.7-3.4-0.1-4.8c0.6-1.3,1.7-2.3,3.3-2.9c1.6-0.6,3.1-0.5,4.4,0.1c1.3,0.7,2.3,1.9,2.9,3.7l1.3,3.7l4-1.4
			c0.7-0.2,1.2-0.2,1.8,0c0.5,0.3,0.9,0.7,1.1,1.4C88.7,207.3,88.7,207.9,88.4,208.4z M77.3,204.8c-0.3-0.8-0.7-1.3-1.1-1.6
			c-0.5-0.3-1-0.3-1.7,0c-1.4,0.5-1.8,1.5-1.2,3.1l1.1,3.1l4-1.5L77.3,204.8z"/>
		<path class="st5" d="M83,193.1c-0.3,0.4-0.7,0.7-1.4,0.9L69,197.2c-0.7,0.2-1.2,0.1-1.7-0.2c-0.5-0.3-0.8-0.8-1-1.5
			c-0.2-0.7-0.1-1.3,0.2-1.8c0.3-0.5,0.8-0.8,1.4-1l11.2-2.9l-1.4-5.4c-0.4-1.4,0.1-2.2,1.3-2.6c0.6-0.2,1.1-0.1,1.5,0.2
			c0.4,0.3,0.7,0.8,0.8,1.5l2,7.8C83.3,192.1,83.3,192.7,83,193.1z"/>
		<path class="st5" d="M79.2,177.7c-0.5,1.4-1.4,2.6-2.6,3.5c-1.2,0.9-2.7,1.5-4.5,1.8s-3.4,0.1-4.9-0.4c-1.4-0.5-2.6-1.4-3.5-2.5
			c-0.9-1.2-1.5-2.7-1.8-4.4c-0.3-1.8-0.1-3.4,0.4-4.8c0.5-1.4,1.4-2.6,2.6-3.5s2.7-1.5,4.5-1.7c1.8-0.3,3.4-0.1,4.9,0.4
			c1.4,0.5,2.6,1.4,3.5,2.5c0.9,1.2,1.5,2.7,1.8,4.4C79.9,174.7,79.7,176.3,79.2,177.7z M74.3,170.7c-1-0.6-2.4-0.8-4.2-0.5
			c-1.8,0.3-3.1,0.8-3.9,1.7c-0.8,0.9-1.1,2-0.9,3.3c0.2,1.3,0.8,2.3,1.8,2.9c1,0.6,2.4,0.8,4.2,0.5c1.8-0.3,3.1-0.8,3.9-1.7
			c0.8-0.9,1.1-2,0.9-3.3C75.9,172.3,75.3,171.3,74.3,170.7z"/>
		<path class="st5" d="M75.9,147.3c0.5,0,1,0.2,1.3,0.6c0.4,0.4,0.6,0.9,0.6,1.5c0,0.4-0.1,0.8-0.2,1.1c-0.2,0.4-0.4,0.7-0.8,0.9
			l-4.6,3.4c-0.3,0.2-0.6,0.5-0.7,0.8c-0.1,0.3-0.2,0.6-0.2,0.9l0.1,1.6l4.4-0.1c0.7,0,1.3,0.2,1.7,0.5c0.4,0.4,0.6,0.9,0.7,1.6
			c0,0.7-0.2,1.3-0.6,1.7c-0.4,0.4-0.9,0.6-1.6,0.7l-13.2,0.4c-0.7,0-1.2-0.1-1.6-0.5c-0.4-0.4-0.6-0.9-0.6-1.5l-0.2-6.1
			c-0.1-2.1,0.3-3.7,1.2-4.8c0.9-1.1,2.2-1.7,3.9-1.7c1.3,0,2.5,0.3,3.4,1c0.9,0.7,1.6,1.7,1.9,3c0.1-0.5,0.2-1,0.5-1.4
			c0.3-0.4,0.7-0.8,1.2-1.2l2.2-1.6C75,147.5,75.5,147.3,75.9,147.3z M67.3,153c-0.3-0.4-0.8-0.6-1.6-0.6c-0.7,0-1.2,0.3-1.6,0.7
			c-0.3,0.4-0.4,1.2-0.4,2.2l0.1,3.2l4.1-0.1l-0.1-3.2C67.8,154,67.7,153.3,67.3,153z"/>
		<path class="st5" d="M77.1,144.7c-0.4,0.3-0.9,0.5-1.6,0.4l-13.1-0.9c-0.7,0-1.2-0.3-1.5-0.6c-0.3-0.4-0.5-0.9-0.4-1.6l0.6-8.5
			c0-0.7,0.2-1.2,0.6-1.6c0.3-0.3,0.8-0.5,1.3-0.5c1.2,0.1,1.7,0.8,1.6,2.3l-0.4,6.1l3.3,0.2l0.4-5.6c0.1-1.4,0.7-2.1,1.9-2
			c0.6,0,1,0.2,1.3,0.6c0.3,0.4,0.4,0.9,0.3,1.6l-0.4,5.6l3.6,0.2l0.4-6.1c0.1-1.4,0.7-2.1,1.9-2c0.6,0,1,0.2,1.3,0.6
			c0.3,0.4,0.4,0.9,0.3,1.6l-0.6,8.5C77.7,143.9,77.5,144.4,77.1,144.7z"/>
		<path class="st5" d="M79.2,123.6c-0.4,0.3-1,0.3-1.6,0.2L64.7,121c-0.7-0.1-1.1-0.4-1.4-0.9c-0.3-0.4-0.3-1-0.2-1.6l1.1-4.9
			c0.4-1.9,1.1-3.4,2.1-4.7c1-1.2,2.2-2,3.6-2.5c1.4-0.4,3-0.5,4.8-0.1c1.8,0.4,3.2,1.1,4.4,2.1c1.1,1,1.9,2.3,2.3,3.8
			c0.4,1.5,0.4,3.2-0.1,5.1l-1.1,4.9C79.9,122.9,79.6,123.4,79.2,123.6z M77.5,117c0.4-1.7,0.2-3-0.4-4c-0.6-1-1.8-1.7-3.5-2.1
			c-1.7-0.4-3-0.2-4,0.4c-1,0.7-1.7,1.8-2,3.5l-0.5,2.2l9.8,2.2L77.5,117z"/>
		<path class="st5" d="M87.3,90.3c0.5,0.2,0.9,0.5,1.1,1.1c0.2,0.5,0.2,1.1,0,1.6c-0.1,0.4-0.3,0.7-0.6,0.9
			c-0.3,0.2-0.7,0.4-1.1,0.4L84,94.4l-2.6,7.5l2,1.9c0.3,0.3,0.5,0.6,0.6,1c0.1,0.4,0.1,0.7-0.1,1.1c-0.2,0.5-0.5,1-1,1.3
			c-0.5,0.3-1,0.4-1.5,0.2c-0.3-0.1-0.5-0.3-0.8-0.5L70.2,96.4c-0.4-0.3-0.6-0.8-0.7-1.2c-0.1-0.5,0-1,0.1-1.4
			c0.2-0.5,0.4-0.9,0.8-1.2c0.4-0.3,0.8-0.5,1.3-0.6l14.8-1.8C86.7,90.2,87,90.2,87.3,90.3z M78.8,99.4l1.6-4.7l-5.9,0.5L78.8,99.4z
			"/>
		<path class="st5" d="M90.4,87.3c-0.5,0.2-1.1,0.2-1.7-0.1l-10.5-4.8l-1.4,3.2c-0.3,0.7-0.7,1.1-1.1,1.3c-0.4,0.2-0.9,0.2-1.5-0.1
			c-0.6-0.3-0.9-0.6-1-1.1c-0.1-0.4,0-1,0.3-1.7l4.8-10.5c0.3-0.7,0.7-1.1,1.1-1.3c0.4-0.2,0.9-0.2,1.5,0.1c0.6,0.3,0.9,0.6,1.1,1.1
			c0.1,0.5,0,1-0.3,1.7l-1.4,3.2L90.8,83c0.6,0.3,1,0.7,1.2,1.2c0.2,0.6,0.1,1.1-0.1,1.8C91.3,86.7,90.9,87.1,90.4,87.3z"/>
		<path class="st5" d="M101,64.3c0.5,0.3,0.8,0.7,0.9,1.3c0.1,0.6,0,1.1-0.3,1.6c-0.2,0.3-0.4,0.6-0.8,0.8c-0.3,0.2-0.7,0.2-1.1,0.2
			L97,67.9l-4,6.9l1.6,2.2c0.3,0.4,0.4,0.7,0.4,1.1c0,0.4-0.1,0.7-0.3,1.1c-0.3,0.5-0.7,0.8-1.3,1c-0.6,0.2-1.1,0.2-1.5-0.1
			c-0.3-0.1-0.5-0.4-0.7-0.7l-8.3-12.3c-0.3-0.4-0.4-0.9-0.4-1.3c0-0.5,0.1-1,0.4-1.4c0.2-0.4,0.6-0.8,1-1c0.4-0.3,0.9-0.4,1.4-0.3
			l14.8,1C100.4,64.1,100.7,64.2,101,64.3z M90.9,71.7l2.5-4.3l-5.9-0.6L90.9,71.7z"/>
	</g>
	<g>
		<path class="st0" d="M39,191c-1.4,0-2.8-0.5-3.9-1.6L3.6,157.9c-2.2-2.2-2.2-5.6,0-7.7L35.8,118c2.2-2.2,5.6-2.2,7.7,0
			c2.2,2.2,2.2,5.6,0,7.7L15.2,154l27.6,27.6c2.2,2.2,2.2,5.6,0,7.7C41.7,190.4,40.3,191,39,191z"/>
	</g>
</g>
</svg>
