<?xml version="1.0" encoding="utf-8"?>
<!-- Generator: Adobe Illustrator 24.0.2, SVG Export Plug-In . SVG Version: 6.00 Build 0)  -->
<svg version="1.1" id="Layer_1" xmlns="http://www.w3.org/2000/svg" xmlns:xlink="http://www.w3.org/1999/xlink" x="0px" y="0px"
	 width="512px" height="512px" viewBox="0 0 512 512" style="enable-background:new 0 0 512 512;" xml:space="preserve">
<style type="text/css">
	.st0{fill:#9C2E3D;}
	.st1{fill:#800000;}
	.st2{fill:#F7F7F7;}
	.st3{fill:#E8DEBA;}
	.st4{fill:#C7A85C;}
	.st5{fill:#BF6945;}
	.st6{fill:#9E5433;}
	.st7{fill:#333333;}
</style>
<g>
	<path class="st0" d="M404,504.5H108c-16.6,0-30-13.4-30-30v-407c0-16.6,13.4-30,30-30h296c16.6,0,30,13.4,30,30v407
		C434,491.1,420.6,504.5,404,504.5z"/>
	<path class="st1" d="M404,37.5v467c16.6,0,30-13.4,30-30v-407C434,50.9,420.6,37.5,404,37.5z"/>
	<path class="st2" d="M404,67.5v407H108v-407H404z"/>
	<path class="st3" d="M355,37.5H157c-3.3,0-6-2.7-6-6v-18c0-3.3,2.7-6,6-6h198c3.3,0,6,2.7,6,6v18C361,34.8,358.3,37.5,355,37.5z"/>
	<path class="st4" d="M355,7.5h-30c3.3,0,6,2.7,6,6v18c0,3.3-2.7,6-6,6h30c3.3,0,6-2.7,6-6v-18C361,10.2,358.3,7.5,355,7.5z"/>
	<g>
		<path class="st5" d="M226,433h-60v-52c0-4.4,3.6-8,8-8h44c4.4,0,8,3.6,8,8V433z"/>
		<path class="st6" d="M218,373h-22v60h30v-52C226,376.6,222.4,373,218,373z"/>
		<path class="st0" d="M346,433h-60v-82c0-4.4,3.6-8,8-8h44c4.4,0,8,3.6,8,8V433z"/>
		<path class="st1" d="M338,343h-22v90h30v-82C346,346.6,342.4,343,338,343z"/>
		<path class="st3" d="M286,433h-60V311c0-4.4,3.6-8,8-8h44c4.4,0,8,3.6,8,8V433z"/>
		<path class="st4" d="M278,303h-22v130h30V311C286,306.6,282.4,303,278,303z"/>
	</g>
	<path class="st4" d="M239,190c0,25.4-20.6,46-46,46s-46-20.6-46-46s20.6-46,46-46v46H239z"/>
	<path class="st3" d="M239,190h-46v-46C218.4,144,239,164.6,239,190z"/>
	<path class="st4" d="M354.5,219.2c-8.4,10.2-21.2,16.8-35.5,16.8c-25.4,0-46-20.6-46-46s20.6-46,46-46v46L354.5,219.2z"/>
	<path class="st3" d="M365,190c0,11.1-3.9,21.3-10.5,29.2L319,190v-46C344.4,144,365,164.6,365,190z"/>
	<g>
		<path class="st7" d="M434,103c4.1,0,7.5-3.4,7.5-7.5v-28c0-20.7-16.8-37.5-37.5-37.5h-35.5V13.5C368.5,6.1,362.4,0,355,0H224
			c-4.1,0-7.5,3.4-7.5,7.5s3.4,7.5,7.5,7.5h129.5v15h-195V15H193c4.1,0,7.5-3.4,7.5-7.5S197.1,0,193,0h-36
			c-7.4,0-13.5,6.1-13.5,13.5V30H108c-20.7,0-37.5,16.8-37.5,37.5v407c0,20.7,16.8,37.5,37.5,37.5h296c20.7,0,37.5-16.8,37.5-37.5
			v-347c0-4.1-3.4-7.5-7.5-7.5s-7.5,3.4-7.5,7.5v347c0,12.4-10.1,22.5-22.5,22.5H108c-12.4,0-22.5-10.1-22.5-22.5v-407
			C85.5,55.1,95.6,45,108,45h64c0.6,5.2,1.9,10.3,3.8,15H108c-4.1,0-7.5,3.4-7.5,7.5v316.7c0,4.1,3.4,7.5,7.5,7.5s7.5-3.4,7.5-7.5
			V75h68.8c11.3,14.6,28.9,24,48.7,24h46c19.8,0,37.4-9.4,48.7-24h68.8v392h-281v-51.5c0-4.1-3.4-7.5-7.5-7.5s-7.5,3.4-7.5,7.5v59
			c0,4.1,3.4,7.5,7.5,7.5h296c4.1,0,7.5-3.4,7.5-7.5v-407c0-4.1-3.4-7.5-7.5-7.5h-67.8c1.9-4.7,3.2-9.8,3.8-15h64
			c12.4,0,22.5,10.1,22.5,22.5v28C426.5,99.6,429.9,103,434,103z M279,84h-46c-10.3,0-19.8-3.3-27.5-9h100.9
			C298.8,80.7,289.3,84,279,84z M319.7,60H192.3c-2.5-4.6-4.3-9.6-5.2-15h137.8C324,50.4,322.2,55.4,319.7,60z"/>
		<path class="st7" d="M129.5,433c0,4.1,3.4,7.5,7.5,7.5h238c4.1,0,7.5-3.4,7.5-7.5s-3.4-7.5-7.5-7.5h-21.5V351
			c0-8.5-7-15.5-15.5-15.5h-44c-0.2,0-0.3,0-0.5,0V311c0-8.5-7-15.5-15.5-15.5h-44c-8.5,0-15.5,7-15.5,15.5v54.5c-0.2,0-0.3,0-0.5,0
			h-44c-8.5,0-15.5,7-15.5,15.5v44.5H137C132.9,425.5,129.5,428.9,129.5,433z M294,350.5h44c0.3,0,0.5,0.2,0.5,0.5v74.5h-45V351
			C293.5,350.7,293.7,350.5,294,350.5z M233.5,311c0-0.3,0.2-0.5,0.5-0.5h44c0.3,0,0.5,0.2,0.5,0.5v114.5h-45V311z M173.5,381
			c0-0.3,0.2-0.5,0.5-0.5h44c0.3,0,0.5,0.2,0.5,0.5v44.5h-45V381z"/>
		<path class="st7" d="M246.5,190c0-29.5-24-53.5-53.5-53.5s-53.5,24-53.5,53.5s24,53.5,53.5,53.5S246.5,219.5,246.5,190z
			 M230.8,182.5h-30.3v-30.3C215.7,155.3,227.7,167.3,230.8,182.5z M154.5,190c0-18.7,13.3-34.3,31-37.8V190c0,4.1,3.4,7.5,7.5,7.5
			h37.8c-3.5,17.7-19.1,31-37.8,31C171.8,228.5,154.5,211.2,154.5,190z"/>
		<path class="st7" d="M319,243.5c16,0,31.1-7.1,41.3-19.5c0,0,0,0,0,0c0,0,0,0,0,0c7.9-9.5,12.2-21.6,12.2-34
			c0-29.5-24-53.5-53.5-53.5s-53.5,24-53.5,53.5S289.5,243.5,319,243.5L319,243.5z M357.5,190c0,6.4-1.6,12.7-4.6,18.2l-26.4-21.8
			v-34.2C344.2,155.7,357.5,171.3,357.5,190L357.5,190z M311.5,152.2V190c0,2.2,1,4.4,2.7,5.8l29.2,24c-6.8,5.6-15.4,8.7-24.4,8.7
			c-21.2,0-38.5-17.3-38.5-38.5C280.5,171.3,293.8,155.7,311.5,152.2L311.5,152.2z"/>
	</g>
</g>
</svg>
