<svg xmlns="http://www.w3.org/2000/svg" width="93.238" height="45.557" viewBox="0 0 93.238 45.557">
  <g id="Grupo_70" data-name="Grupo 70" transform="translate(-193.625 -1411.099)">
    <g id="Grupo_36" data-name="Grupo 36" transform="translate(194 1411.474)">
      <path id="Trazado_77" data-name="Trazado 77" d="M83.509,64.905c0,7.022-6.14,12.715-13.713,12.715S56.083,71.928,56.083,64.905,62.223,52.192,69.8,52.192,83.509,57.883,83.509,64.905Zm-2.707,0c0,5.637-4.927,10.206-11.007,10.206S58.788,70.543,58.788,64.905,63.716,54.7,69.8,54.7,80.8,59.269,80.8,64.905Zm-2.675,0c0,4.267-3.73,7.725-8.331,7.725s-8.331-3.458-8.331-7.725,3.73-7.724,8.331-7.724S78.127,60.639,78.127,64.905Zm-2.984,0A5.364,5.364,0,1,1,69.8,59.947,5.164,5.164,0,0,1,75.143,64.905Zm-2.478,0a2.878,2.878,0,1,1-2.869-2.66A2.771,2.771,0,0,1,72.665,64.905ZM87.116,47.493a12.186,12.186,0,0,1-24.347,0,12.186,12.186,0,0,1,24.347,0Zm-2.4,0a9.781,9.781,0,1,1-9.771-9.337A9.561,9.561,0,0,1,84.714,47.493Zm-2.375,0a7.4,7.4,0,1,1-7.4-7.067A7.236,7.236,0,0,1,82.338,47.493Zm-2.648,0a4.752,4.752,0,1,1-4.747-4.537A4.646,4.646,0,0,1,79.69,47.493Zm-2.2,0a2.55,2.55,0,1,1-2.547-2.435A2.493,2.493,0,0,1,77.491,47.493Zm-6.407,8.788c0,10.377-8.9,18.792-19.875,18.792S31.333,66.66,31.333,56.281s8.9-18.792,19.875-18.792S71.083,45.9,71.083,56.281Zm-3.922,0c0,8.33-7.142,15.083-15.953,15.083S35.256,64.611,35.256,56.281,42.4,41.2,51.209,41.2,67.162,47.952,67.162,56.281Zm-3.879,0c0,6.305-5.405,11.416-12.074,11.416S39.135,62.587,39.135,56.281s5.406-11.416,12.074-11.416S63.283,49.976,63.283,56.281Zm-4.324,0a7.763,7.763,0,1,1-7.751-7.329A7.549,7.549,0,0,1,58.959,56.281Zm-3.591,0a4.166,4.166,0,1,1-4.159-3.932A4.051,4.051,0,0,1,55.368,56.281Z" transform="translate(-31.333 -35.86)" fill="none" stroke="#b88f3d" stroke-linecap="round" stroke-linejoin="round" stroke-miterlimit="10" stroke-width="0.75"/>
    </g>
    <g id="Grupo_38" data-name="Grupo 38" transform="translate(230.681 1414.216)">
      <path id="Trazado_78" data-name="Trazado 78" d="M88.054,45.747h-.29l-1.606-4.716-1.5,4.716H84.37l-2.127-6.934H83.2l1.353,4.777,1.481-4.777h.321l1.464,4.768,1.375-4.768h.956Z" transform="translate(-71.648 -38.813)" fill="maroon"/>
      <path id="Trazado_79" data-name="Trazado 79" d="M88.054,45.747h-.29l-1.606-4.716-1.5,4.716H84.37l-2.127-6.934H83.2l1.353,4.777,1.481-4.777h.321l1.464,4.768,1.375-4.768h.956Z" transform="translate(-71.648 -38.813)" fill="maroon"/>
      <path id="Trazado_80" data-name="Trazado 80" d="M92.869,43.366q0,1.825,1.268,1.826a1.063,1.063,0,0,0,.927-.49,2.318,2.318,0,0,0,.336-1.335q0-1.8-1.263-1.8a1.083,1.083,0,0,0-.924.48,2.232,2.232,0,0,0-.344,1.322m-.89,0a2.685,2.685,0,0,1,.594-1.814,2.17,2.17,0,0,1,3.15-.028,3.268,3.268,0,0,1-.013,3.691,2.177,2.177,0,0,1-3.162-.008,2.782,2.782,0,0,1-.569-1.841" transform="translate(-72.343 -38.959)" fill="maroon"/>
      <path id="Trazado_81" data-name="Trazado 81" d="M92.869,43.366q0,1.825,1.268,1.826a1.063,1.063,0,0,0,.927-.49,2.318,2.318,0,0,0,.336-1.335q0-1.8-1.263-1.8a1.083,1.083,0,0,0-.924.48A2.232,2.232,0,0,0,92.869,43.366Zm-.89,0a2.685,2.685,0,0,1,.594-1.814,2.17,2.17,0,0,1,3.15-.028,3.268,3.268,0,0,1-.013,3.691,2.177,2.177,0,0,1-3.162-.008A2.782,2.782,0,0,1,91.979,43.366Z" transform="translate(-72.343 -38.959)" fill="maroon"/>
      <path id="Trazado_82" data-name="Trazado 82" d="M104.676,45.791V42.728q0-1.144-1.019-1.144a1.043,1.043,0,0,0-.6.192,1.025,1.025,0,0,0-.381.436v3.579h-.885V42.352a.662.662,0,0,0-.277-.563,1.206,1.206,0,0,0-.733-.206,1.028,1.028,0,0,0-.566.2,1.234,1.234,0,0,0-.426.438v3.57h-.883V40.952h.577l.293.561a1.568,1.568,0,0,1,1.281-.652,1.659,1.659,0,0,1,1.5.647,1.129,1.129,0,0,1,.554-.462,1.984,1.984,0,0,1,.833-.186,1.57,1.57,0,0,1,1.2.446,1.742,1.742,0,0,1,.423,1.25v3.234Z" transform="translate(-72.838 -38.959)" fill="maroon"/>
      <path id="Trazado_83" data-name="Trazado 83" d="M104.676,45.791V42.728q0-1.144-1.019-1.144a1.043,1.043,0,0,0-.6.192,1.025,1.025,0,0,0-.381.436v3.579h-.885V42.352a.662.662,0,0,0-.277-.563,1.206,1.206,0,0,0-.733-.206,1.028,1.028,0,0,0-.566.2,1.234,1.234,0,0,0-.426.438v3.57h-.883V40.952h.577l.293.561a1.568,1.568,0,0,1,1.281-.652,1.659,1.659,0,0,1,1.5.647,1.129,1.129,0,0,1,.554-.462,1.984,1.984,0,0,1,.833-.186,1.57,1.57,0,0,1,1.2.446,1.742,1.742,0,0,1,.423,1.25v3.234Z" transform="translate(-72.838 -38.959)" fill="maroon"/>
      <path id="Trazado_84" data-name="Trazado 84" d="M110.637,41.585a1.317,1.317,0,0,0-.95.371,1.353,1.353,0,0,0-.415.878h2.644a1.2,1.2,0,0,0-1.279-1.25m2.055,1.876H109.25a1.767,1.767,0,0,0,.459,1.308,1.43,1.43,0,0,0,1.044.4,1.762,1.762,0,0,0,1.213-.43l.357.62a1.578,1.578,0,0,1-.6.345,3.192,3.192,0,0,1-1.132.189,2.091,2.091,0,0,1-1.529-.62,2.45,2.45,0,0,1-.7-1.839,2.616,2.616,0,0,1,.718-1.925,2.068,2.068,0,0,1,1.521-.647,2.153,2.153,0,0,1,1.6.584,2.01,2.01,0,0,1,.563,1.49,1.958,1.958,0,0,1-.068.526" transform="translate(-73.512 -38.959)" fill="maroon"/>
      <path id="Trazado_85" data-name="Trazado 85" d="M110.637,41.585a1.317,1.317,0,0,0-.95.371,1.353,1.353,0,0,0-.415.878h2.644a1.2,1.2,0,0,0-1.279-1.25Zm2.055,1.876H109.25a1.767,1.767,0,0,0,.459,1.308,1.43,1.43,0,0,0,1.044.4,1.762,1.762,0,0,0,1.213-.43l.357.62a1.578,1.578,0,0,1-.6.345,3.192,3.192,0,0,1-1.132.189,2.091,2.091,0,0,1-1.529-.62,2.45,2.45,0,0,1-.7-1.839,2.616,2.616,0,0,1,.718-1.925,2.068,2.068,0,0,1,1.521-.647,2.153,2.153,0,0,1,1.6.584,2.01,2.01,0,0,1,.563,1.49A1.958,1.958,0,0,1,112.692,43.461Z" transform="translate(-73.512 -38.959)" fill="maroon"/>
      <path id="Trazado_86" data-name="Trazado 86" d="M118.256,45.791V42.976a1.92,1.92,0,0,0-.225-1.082.866.866,0,0,0-.751-.31,1.206,1.206,0,0,0-.593.176,1.338,1.338,0,0,0-.475.434v3.6h-.828V40.952h.567l.261.623a1.424,1.424,0,0,1,1.338-.714q1.534,0,1.534,1.934v3h-.828Z" transform="translate(-74.014 -38.959)" fill="maroon"/>
      <path id="Trazado_87" data-name="Trazado 87" d="M118.256,45.791V42.976a1.92,1.92,0,0,0-.225-1.082.866.866,0,0,0-.751-.31,1.206,1.206,0,0,0-.593.176,1.338,1.338,0,0,0-.475.434v3.6h-.828V40.952h.567l.261.623a1.424,1.424,0,0,1,1.338-.714q1.534,0,1.534,1.934v3h-.828Z" transform="translate(-74.014 -38.959)" fill="maroon"/>
      <path id="Trazado_88" data-name="Trazado 88" d="M84.586,75.549l-3.608-5.315v5.215h-.905V68.179h.382l3.512,5.027V68.179h.905v7.37Z" transform="translate(-71.493 -40.909)" fill="maroon"/>
      <path id="Trazado_89" data-name="Trazado 89" d="M84.586,75.549l-3.608-5.315v5.215h-.905V68.179h.382l3.512,5.027V68.179h.905v7.37Z" transform="translate(-71.493 -40.909)" fill="maroon"/>
      <path id="Trazado_90" data-name="Trazado 90" d="M89.58,71.116a1.4,1.4,0,0,0-1.012.4,1.441,1.441,0,0,0-.442.935h2.818a1.312,1.312,0,0,0-.343-.926,1.329,1.329,0,0,0-1.021-.4m2.191,2H88.1a1.879,1.879,0,0,0,.49,1.394,1.521,1.521,0,0,0,1.112.423A1.884,1.884,0,0,0,91,74.473l.381.66a1.7,1.7,0,0,1-.642.367,3.412,3.412,0,0,1-1.207.2,2.232,2.232,0,0,1-1.63-.661,2.607,2.607,0,0,1-.747-1.958,2.783,2.783,0,0,1,.765-2.05,2.206,2.206,0,0,1,1.62-.689,2.3,2.3,0,0,1,1.706.622,2.141,2.141,0,0,1,.6,1.587,2.085,2.085,0,0,1-.072.56" transform="translate(-71.999 -41.064)" fill="maroon"/>
      <path id="Trazado_91" data-name="Trazado 91" d="M89.58,71.116a1.4,1.4,0,0,0-1.012.4,1.441,1.441,0,0,0-.442.935h2.818a1.312,1.312,0,0,0-.343-.926A1.329,1.329,0,0,0,89.58,71.116Zm2.191,2H88.1a1.879,1.879,0,0,0,.49,1.394,1.521,1.521,0,0,0,1.112.423A1.884,1.884,0,0,0,91,74.473l.381.66a1.7,1.7,0,0,1-.642.367,3.412,3.412,0,0,1-1.207.2,2.232,2.232,0,0,1-1.63-.661,2.607,2.607,0,0,1-.747-1.958,2.783,2.783,0,0,1,.765-2.05,2.206,2.206,0,0,1,1.62-.689,2.3,2.3,0,0,1,1.706.622,2.141,2.141,0,0,1,.6,1.587A2.085,2.085,0,0,1,91.771,73.113Z" transform="translate(-71.999 -41.064)" fill="maroon"/>
      <path id="Trazado_92" data-name="Trazado 92" d="M94.251,71.065H93.7v-.723h.549v-1.08l.84-.351v1.431h1.3v.723h-1.3v2.564a1.608,1.608,0,0,0,.2.926.75.75,0,0,0,.648.274,1.442,1.442,0,0,0,.668-.179l.124.805a4.278,4.278,0,0,1-1.146.144,1.2,1.2,0,0,1-.948-.455A1.711,1.711,0,0,1,94.251,74Z" transform="translate(-72.466 -40.961)" fill="maroon"/>
      <path id="Trazado_93" data-name="Trazado 93" d="M94.251,71.065H93.7v-.723h.549v-1.08l.84-.351v1.431h1.3v.723h-1.3v2.564a1.608,1.608,0,0,0,.2.926.75.75,0,0,0,.648.274,1.442,1.442,0,0,0,.668-.179l.124.805a4.278,4.278,0,0,1-1.146.144,1.2,1.2,0,0,1-.948-.455A1.711,1.711,0,0,1,94.251,74Z" transform="translate(-72.466 -40.961)" fill="maroon"/>
      <path id="Trazado_94" data-name="Trazado 94" d="M103.494,75.71h-.24l-1.506-3.51-1.5,3.51h-.24l-1.838-5.268h.975l1.1,3.385,1.367-3.385h.24l1.411,3.385,1.18-3.385h.9Z" transform="translate(-72.785 -41.071)" fill="maroon"/>
      <path id="Trazado_95" data-name="Trazado 95" d="M103.494,75.71h-.24l-1.506-3.51-1.5,3.51h-.24l-1.838-5.268h.975l1.1,3.385,1.367-3.385h.24l1.411,3.385,1.18-3.385h.9Z" transform="translate(-72.785 -41.071)" fill="maroon"/>
      <path id="Trazado_96" data-name="Trazado 96" d="M108.1,73.011q0,1.943,1.351,1.944a1.134,1.134,0,0,0,.989-.522,2.477,2.477,0,0,0,.358-1.423q0-1.919-1.346-1.919a1.153,1.153,0,0,0-.983.512,2.374,2.374,0,0,0-.368,1.409m-.948,0a2.86,2.86,0,0,1,.633-1.932,2.316,2.316,0,0,1,3.359-.029,3.477,3.477,0,0,1-.014,3.931,2.323,2.323,0,0,1-3.371-.007,2.97,2.97,0,0,1-.607-1.963" transform="translate(-73.426 -41.064)" fill="maroon"/>
      <path id="Trazado_97" data-name="Trazado 97" d="M108.1,73.011q0,1.943,1.351,1.944a1.134,1.134,0,0,0,.989-.522,2.477,2.477,0,0,0,.358-1.423q0-1.919-1.346-1.919a1.153,1.153,0,0,0-.983.512A2.374,2.374,0,0,0,108.1,73.011Zm-.948,0a2.86,2.86,0,0,1,.633-1.932,2.316,2.316,0,0,1,3.359-.029,3.477,3.477,0,0,1-.014,3.931,2.323,2.323,0,0,1-3.371-.007A2.97,2.97,0,0,1,107.151,73.011Z" transform="translate(-73.426 -41.064)" fill="maroon"/>
      <path id="Trazado_98" data-name="Trazado 98" d="M116.426,71.321a.865.865,0,0,0-.533-.207.921.921,0,0,0-.752.448,1.8,1.8,0,0,0-.322,1.077v2.955h-.81V70.44h.81v.823a1.411,1.411,0,0,1,1.319-.919,3.231,3.231,0,0,1,.627.086Z" transform="translate(-73.916 -41.064)" fill="maroon"/>
      <path id="Trazado_99" data-name="Trazado 99" d="M116.426,71.321a.865.865,0,0,0-.533-.207.921.921,0,0,0-.752.448,1.8,1.8,0,0,0-.322,1.077v2.955h-.81V70.44h.81v.823a1.411,1.411,0,0,1,1.319-.919,3.231,3.231,0,0,1,.627.086Z" transform="translate(-73.916 -41.064)" fill="maroon"/>
      <path id="Trazado_100" data-name="Trazado 100" d="M121.614,75.422l-1.5-2.664-.739.851v1.814h-.846v-7.5h.846v4.656L121.2,70.1h.988l-1.527,2.023,1.866,3.3Z" transform="translate(-74.239 -40.891)" fill="maroon"/>
      <path id="Trazado_101" data-name="Trazado 101" d="M121.614,75.422l-1.5-2.664-.739.851v1.814h-.846v-7.5h.846v4.656L121.2,70.1h.988l-1.527,2.023,1.866,3.3Z" transform="translate(-74.239 -40.891)" fill="maroon"/>
      <rect id="Rectángulo_23" data-name="Rectángulo 23" width="0.759" height="6.832" transform="translate(0 13.931)" fill="maroon"/>
      <g id="Grupo_37" data-name="Grupo 37" transform="translate(3.263 15.832)">
        <path id="Trazado_102" data-name="Trazado 102" d="M77.22,60.793V57.977A1.92,1.92,0,0,0,77,56.9a.866.866,0,0,0-.751-.31,1.2,1.2,0,0,0-.593.176,1.338,1.338,0,0,0-.475.434v3.6h-.828V55.953h.567l.261.623a1.424,1.424,0,0,1,1.338-.714q1.534,0,1.534,1.934v3Z" transform="translate(-74.348 -55.862)" fill="maroon"/>
        <path id="Trazado_103" data-name="Trazado 103" d="M77.22,60.793V57.977A1.92,1.92,0,0,0,77,56.9a.866.866,0,0,0-.751-.31,1.2,1.2,0,0,0-.593.176,1.338,1.338,0,0,0-.475.434v3.6h-.828V55.953h.567l.261.623a1.424,1.424,0,0,1,1.338-.714q1.534,0,1.534,1.934v3Z" transform="translate(-74.348 -55.862)" fill="maroon"/>
      </g>
      <path id="Trazado_104" data-name="Trazado 104" d="M89.474,60.655l-.793-4.393-1.46,4.486h-.228l-1.5-4.486-.774,4.393h-.866L85.1,53.816h.415l1.592,4.991,1.468-4.991h.411l1.354,6.839Z" transform="translate(-71.763 -39.884)" fill="maroon"/>
      <path id="Trazado_105" data-name="Trazado 105" d="M89.474,60.655l-.793-4.393-1.46,4.486h-.228l-1.5-4.486-.774,4.393h-.866L85.1,53.816h.415l1.592,4.991,1.468-4.991h.411l1.354,6.839Z" transform="translate(-71.763 -39.884)" fill="maroon"/>
      <path id="Trazado_106" data-name="Trazado 106" d="M93.205,53.756a.344.344,0,0,1,.285.161.695.695,0,0,1,0,.774.344.344,0,0,1-.285.161.34.34,0,0,1-.28-.161.7.7,0,0,1,0-.777.341.341,0,0,1,.282-.158m-.355,6.887v-4.25h-.5v-.748H93.5v5Z" transform="translate(-72.37 -39.88)" fill="maroon"/>
      <path id="Trazado_107" data-name="Trazado 107" d="M93.205,53.756a.344.344,0,0,1,.285.161.695.695,0,0,1,0,.774.344.344,0,0,1-.285.161.34.34,0,0,1-.28-.161.7.7,0,0,1,0-.777A.341.341,0,0,1,93.205,53.756Zm-.355,6.887v-4.25h-.5v-.748H93.5v5Z" transform="translate(-72.37 -39.88)" fill="maroon"/>
      <path id="Trazado_108" data-name="Trazado 108" d="M97.643,56.7a.837.837,0,0,0-.678.321,1.187,1.187,0,0,0-.263.778,1.37,1.37,0,0,0,.254.85.816.816,0,0,0,.686.337.78.78,0,0,0,.665-.328,1.425,1.425,0,0,0,.24-.86,1.2,1.2,0,0,0-.259-.778.8.8,0,0,0-.644-.32m-1.692,5.64.433-.7a2.248,2.248,0,0,0,1.286.509,1.56,1.56,0,0,0,.854-.2.594.594,0,0,0,.313-.506c0-.4-.264-.6-.79-.6a2.943,2.943,0,0,0-.487.073,2.868,2.868,0,0,1-.551.073q-.958,0-.957-.788a.579.579,0,0,1,.225-.44,1.366,1.366,0,0,1,.557-.284,1.733,1.733,0,0,1-.95-1.685,1.781,1.781,0,0,1,.491-1.282,1.8,1.8,0,0,1,2.251-.215l.4-.522.522.536-.479.395a1.921,1.921,0,0,1,.306,1.136,1.867,1.867,0,0,1-.425,1.245,1.617,1.617,0,0,1-1.112.577l-.66.073a1.223,1.223,0,0,0-.315.1c-.132.057-.2.13-.2.222,0,.124.137.188.41.188a3.443,3.443,0,0,0,.564-.072,3.521,3.521,0,0,1,.567-.071,1.464,1.464,0,0,1,1.035.345,1.25,1.25,0,0,1,.371.959,1.3,1.3,0,0,1-.557,1.095,2.286,2.286,0,0,1-1.41.417,2.8,2.8,0,0,1-.919-.17,2.5,2.5,0,0,1-.776-.41" transform="translate(-72.622 -40.024)" fill="maroon"/>
      <path id="Trazado_109" data-name="Trazado 109" d="M97.643,56.7a.837.837,0,0,0-.678.321,1.187,1.187,0,0,0-.263.778,1.37,1.37,0,0,0,.254.85.816.816,0,0,0,.686.337.78.78,0,0,0,.665-.328,1.425,1.425,0,0,0,.24-.86,1.2,1.2,0,0,0-.259-.778A.8.8,0,0,0,97.643,56.7Zm-1.692,5.64.433-.7a2.248,2.248,0,0,0,1.286.509,1.56,1.56,0,0,0,.854-.2.594.594,0,0,0,.313-.506c0-.4-.264-.6-.79-.6a2.943,2.943,0,0,0-.487.073,2.868,2.868,0,0,1-.551.073q-.958,0-.957-.788a.579.579,0,0,1,.225-.44,1.366,1.366,0,0,1,.557-.284,1.733,1.733,0,0,1-.95-1.685,1.781,1.781,0,0,1,.491-1.282,1.8,1.8,0,0,1,2.251-.215l.4-.522.522.536-.479.395a1.921,1.921,0,0,1,.306,1.136,1.867,1.867,0,0,1-.425,1.245,1.617,1.617,0,0,1-1.112.577l-.66.073a1.223,1.223,0,0,0-.315.1c-.132.057-.2.13-.2.222,0,.124.137.188.41.188a3.443,3.443,0,0,0,.564-.072,3.521,3.521,0,0,1,.567-.071,1.464,1.464,0,0,1,1.035.345,1.25,1.25,0,0,1,.371.959,1.3,1.3,0,0,1-.557,1.095,2.286,2.286,0,0,1-1.41.417,2.8,2.8,0,0,1-.919-.17A2.5,2.5,0,0,1,95.951,62.34Z" transform="translate(-72.622 -40.024)" fill="maroon"/>
      <path id="Trazado_110" data-name="Trazado 110" d="M104.371,56.78a.8.8,0,0,0-.5-.194.859.859,0,0,0-.7.42,1.7,1.7,0,0,0-.3,1.012v2.774h-.754V55.953h.754v.773a1.315,1.315,0,0,1,1.227-.863,3.006,3.006,0,0,1,.584.082Z" transform="translate(-73.067 -40.03)" fill="maroon"/>
      <path id="Trazado_111" data-name="Trazado 111" d="M104.371,56.78a.8.8,0,0,0-.5-.194.859.859,0,0,0-.7.42,1.7,1.7,0,0,0-.3,1.012v2.774h-.754V55.953h.754v.773a1.315,1.315,0,0,1,1.227-.863,3.006,3.006,0,0,1,.584.082Z" transform="translate(-73.067 -40.03)" fill="maroon"/>
      <path id="Trazado_112" data-name="Trazado 112" d="M109.206,58.421a3.02,3.02,0,0,0-.556-.09,1.56,1.56,0,0,0-1.036.335,1,1,0,0,0-.4.792q0,.756.868.757a1.417,1.417,0,0,0,1.125-.621Zm.079,1.826a1.828,1.828,0,0,1-1.54.647,1.306,1.306,0,0,1-.964-.414,1.409,1.409,0,0,1-.408-1.03A1.552,1.552,0,0,1,107,58.2a2.46,2.46,0,0,1,1.6-.51,1.852,1.852,0,0,1,.6.117q0-1.177-1.023-1.177a1.611,1.611,0,0,0-1.209.435l-.352-.72a2.01,2.01,0,0,1,.659-.342,2.49,2.49,0,0,1,.8-.143,2.012,2.012,0,0,1,1.494.48,2.13,2.13,0,0,1,.465,1.527v1.738a.9.9,0,0,0,.371.851v.43a1.542,1.542,0,0,1-.765-.15.828.828,0,0,1-.365-.491" transform="translate(-73.371 -40.03)" fill="maroon"/>
      <path id="Trazado_113" data-name="Trazado 113" d="M109.206,58.421a3.02,3.02,0,0,0-.556-.09,1.56,1.56,0,0,0-1.036.335,1,1,0,0,0-.4.792q0,.756.868.757a1.417,1.417,0,0,0,1.125-.621Zm.079,1.826a1.828,1.828,0,0,1-1.54.647,1.306,1.306,0,0,1-.964-.414,1.409,1.409,0,0,1-.408-1.03A1.552,1.552,0,0,1,107,58.2a2.46,2.46,0,0,1,1.6-.51,1.852,1.852,0,0,1,.6.117q0-1.177-1.023-1.177a1.611,1.611,0,0,0-1.209.435l-.352-.72a2.01,2.01,0,0,1,.659-.342,2.49,2.49,0,0,1,.8-.143,2.012,2.012,0,0,1,1.494.48,2.13,2.13,0,0,1,.465,1.527v1.738a.9.9,0,0,0,.371.851v.43a1.542,1.542,0,0,1-.765-.15A.828.828,0,0,1,109.285,60.247Z" transform="translate(-73.371 -40.03)" fill="maroon"/>
      <path id="Trazado_114" data-name="Trazado 114" d="M113.053,56.541h-.512v-.679h.512V54.849l.785-.331v1.345h1.214v.679h-1.214v2.407a1.519,1.519,0,0,0,.188.869.7.7,0,0,0,.6.258,1.355,1.355,0,0,0,.624-.168l.115.756a3.95,3.95,0,0,1-1.07.136,1.12,1.12,0,0,1-.886-.427,1.618,1.618,0,0,1-.361-1.08V56.541Z" transform="translate(-73.811 -39.934)" fill="maroon"/>
      <path id="Trazado_115" data-name="Trazado 115" d="M113.053,56.541h-.512v-.679h.512V54.849l.785-.331v1.345h1.214v.679h-1.214v2.407a1.519,1.519,0,0,0,.188.869.7.7,0,0,0,.6.258,1.355,1.355,0,0,0,.624-.168l.115.756a3.95,3.95,0,0,1-1.07.136,1.12,1.12,0,0,1-.886-.427,1.618,1.618,0,0,1-.361-1.08V56.541Z" transform="translate(-73.811 -39.934)" fill="maroon"/>
      <path id="Trazado_116" data-name="Trazado 116" d="M118.128,53.756a.344.344,0,0,1,.285.161.695.695,0,0,1,0,.774.344.344,0,0,1-.285.161.34.34,0,0,1-.28-.161.7.7,0,0,1,0-.777.341.341,0,0,1,.282-.158m-.354,6.887v-4.25h-.5v-.748h1.151v5Z" transform="translate(-74.149 -39.88)" fill="maroon"/>
      <path id="Trazado_117" data-name="Trazado 117" d="M118.128,53.756a.344.344,0,0,1,.285.161.695.695,0,0,1,0,.774.344.344,0,0,1-.285.161.34.34,0,0,1-.28-.161.7.7,0,0,1,0-.777A.341.341,0,0,1,118.128,53.756Zm-.354,6.887v-4.25h-.5v-.748h1.151v5Z" transform="translate(-74.149 -39.88)" fill="maroon"/>
      <path id="Trazado_118" data-name="Trazado 118" d="M121.558,58.367q0,1.825,1.268,1.826a1.063,1.063,0,0,0,.927-.49,2.318,2.318,0,0,0,.336-1.335q0-1.8-1.263-1.8a1.084,1.084,0,0,0-.924.48,2.228,2.228,0,0,0-.345,1.322m-.89,0a2.685,2.685,0,0,1,.594-1.814,2.17,2.17,0,0,1,3.15-.028,3.268,3.268,0,0,1-.013,3.691,2.177,2.177,0,0,1-3.162-.008,2.783,2.783,0,0,1-.569-1.841" transform="translate(-74.391 -40.03)" fill="maroon"/>
      <path id="Trazado_119" data-name="Trazado 119" d="M121.558,58.367q0,1.825,1.268,1.826a1.063,1.063,0,0,0,.927-.49,2.318,2.318,0,0,0,.336-1.335q0-1.8-1.263-1.8a1.084,1.084,0,0,0-.924.48A2.228,2.228,0,0,0,121.558,58.367Zm-.89,0a2.685,2.685,0,0,1,.594-1.814,2.17,2.17,0,0,1,3.15-.028,3.268,3.268,0,0,1-.013,3.691,2.177,2.177,0,0,1-3.162-.008A2.783,2.783,0,0,1,120.668,58.367Z" transform="translate(-74.391 -40.03)" fill="maroon"/>
      <path id="Trazado_120" data-name="Trazado 120" d="M130.221,60.793V57.977A1.92,1.92,0,0,0,130,56.9a.866.866,0,0,0-.751-.31,1.2,1.2,0,0,0-.593.176,1.338,1.338,0,0,0-.475.434v3.6h-.828V55.953h.567l.261.623a1.424,1.424,0,0,1,1.338-.714q1.534,0,1.534,1.934v3Z" transform="translate(-74.868 -40.03)" fill="maroon"/>
      <path id="Trazado_121" data-name="Trazado 121" d="M130.221,60.793V57.977A1.92,1.92,0,0,0,130,56.9a.866.866,0,0,0-.751-.31,1.2,1.2,0,0,0-.593.176,1.338,1.338,0,0,0-.475.434v3.6h-.828V55.953h.567l.261.623a1.424,1.424,0,0,1,1.338-.714q1.534,0,1.534,1.934v3Z" transform="translate(-74.868 -40.03)" fill="maroon"/>
      <path id="Trazado_122" data-name="Trazado 122" d="M83.613,83.645H83.46l-.5-1.113-.5,1.113h-.156L81.628,81.8h.444l.365,1.081L82.88,81.8h.152l.458,1.087.393-1.087H84.3Z" transform="translate(-71.604 -41.881)" fill="maroon"/>
      <path id="Trazado_123" data-name="Trazado 123" d="M85.086,82.7c0,.4.143.6.432.6a.371.371,0,0,0,.313-.155.733.733,0,0,0,.116-.443c0-.394-.143-.59-.429-.59a.374.374,0,0,0-.316.155.709.709,0,0,0-.116.435m-.44,0a.959.959,0,0,1,.24-.675.921.921,0,0,1,1.273-.009,1.141,1.141,0,0,1,0,1.373.924.924,0,0,1-1.279,0,1,1,0,0,1-.229-.686" transform="translate(-71.82 -41.879)" fill="maroon"/>
      <path id="Trazado_124" data-name="Trazado 124" d="M88.983,83.609V82.474c0-.238-.106-.357-.319-.357a.334.334,0,0,0-.182.056.319.319,0,0,0-.124.129V83.61h-.423v-1.2a.279.279,0,0,0-.084-.213.329.329,0,0,0-.233-.078.336.336,0,0,0-.174.059.4.4,0,0,0-.137.131v1.3h-.423V81.8h.292l.085.16a.586.586,0,0,1,.455-.193.709.709,0,0,1,.543.2.55.55,0,0,1,.221-.143.789.789,0,0,1,.284-.053.628.628,0,0,1,.472.174.656.656,0,0,1,.168.475v1.2Z" transform="translate(-71.98 -41.879)" fill="maroon"/>
      <path id="Trazado_125" data-name="Trazado 125" d="M90.42,82.515h.89a.4.4,0,0,0-.439-.4.435.435,0,0,0-.45.4m1.279.318H90.4a.457.457,0,0,0,.15.336.539.539,0,0,0,.369.121.6.6,0,0,0,.44-.15l.163.323a1.035,1.035,0,0,1-.667.181A.88.88,0,0,1,90.2,83.4a.917.917,0,0,1-.241-.676.938.938,0,0,1,.265-.694A.929.929,0,0,1,91.5,82a.807.807,0,0,1,.239.6,1.18,1.18,0,0,1-.036.234" transform="translate(-72.199 -41.879)" fill="maroon"/>
      <path id="Trazado_126" data-name="Trazado 126" d="M93.4,83.609V82.562a.524.524,0,0,0-.089-.338.36.36,0,0,0-.291-.106.456.456,0,0,0-.2.052.443.443,0,0,0-.164.13v1.309h-.423V81.8h.3l.077.169a.632.632,0,0,1,.51-.2.677.677,0,0,1,.511.193.753.753,0,0,1,.187.541V83.61Z" transform="translate(-72.362 -41.879)" fill="maroon"/>
      <path id="Trazado_127" data-name="Trazado 127" d="M94.758,81.043a.247.247,0,0,1,.246.246.243.243,0,0,1-.072.174.236.236,0,0,1-.174.072.244.244,0,0,1-.245-.245.246.246,0,0,1,.245-.246m-.217,2.515V82.093h-.232v-.347h.66v1.812Z" transform="translate(-72.51 -41.827)" fill="maroon"/>
      <path id="Trazado_128" data-name="Trazado 128" d="M96.715,83.609V82.562a.524.524,0,0,0-.089-.338.36.36,0,0,0-.291-.106.456.456,0,0,0-.2.052.443.443,0,0,0-.164.13v1.309H95.55V81.8h.3l.077.169a.632.632,0,0,1,.51-.2.677.677,0,0,1,.511.193.753.753,0,0,1,.187.541V83.61Z" transform="translate(-72.598 -41.879)" fill="maroon"/>
      <path id="Trazado_129" data-name="Trazado 129" d="M99.85,83.609V82.474c0-.238-.106-.357-.319-.357a.334.334,0,0,0-.182.056.313.313,0,0,0-.124.129V83.61H98.8v-1.2a.279.279,0,0,0-.084-.213.329.329,0,0,0-.233-.078.336.336,0,0,0-.174.059.4.4,0,0,0-.137.131v1.3h-.423V81.8h.292l.085.16a.586.586,0,0,1,.455-.193.709.709,0,0,1,.543.2.55.55,0,0,1,.221-.143.789.789,0,0,1,.284-.053.628.628,0,0,1,.472.174.656.656,0,0,1,.168.475v1.2Z" transform="translate(-72.755 -41.879)" fill="maroon"/>
      <path id="Trazado_130" data-name="Trazado 130" d="M101.279,81.043a.247.247,0,0,1,.246.246.243.243,0,0,1-.072.174.236.236,0,0,1-.174.072.244.244,0,0,1-.245-.245.246.246,0,0,1,.245-.246m-.217,2.515V82.093h-.232v-.347h.66v1.812Z" transform="translate(-72.975 -41.827)" fill="maroon"/>
      <path id="Trazado_131" data-name="Trazado 131" d="M102.347,82.425a.365.365,0,0,0,.089.258.307.307,0,0,0,.24.1.292.292,0,0,0,.232-.095.388.388,0,0,0,.08-.261.327.327,0,0,0-.086-.231.293.293,0,0,0-.226-.1.313.313,0,0,0-.329.327m-.423,1.641.267-.33a.711.711,0,0,0,.493.2.744.744,0,0,0,.3-.054c.079-.036.118-.085.118-.149,0-.108-.086-.162-.263-.162a2.061,2.061,0,0,0-.212.018,1.979,1.979,0,0,1-.212.018c-.291,0-.436-.1-.436-.313a.272.272,0,0,1,.072-.176.448.448,0,0,1,.169-.127.641.641,0,0,1-.31-.57.616.616,0,0,1,.214-.481.756.756,0,0,1,.525-.189.838.838,0,0,1,.408.091l.166-.193.292.266-.2.148a.735.735,0,0,1-.084.87.656.656,0,0,1-.477.184.959.959,0,0,1-.122-.008l-.07-.01a.435.435,0,0,0-.09.037c-.053.024-.079.049-.079.075,0,.046.039.069.117.069a.968.968,0,0,0,.176-.026,1.026,1.026,0,0,1,.212-.025c.41,0,.617.164.617.495a.485.485,0,0,1-.246.43,1.092,1.092,0,0,1-.6.156,1.239,1.239,0,0,1-.75-.245" transform="translate(-73.052 -41.871)" fill="maroon"/>
      <path id="Trazado_132" data-name="Trazado 132" d="M104.991,82.191a.44.44,0,0,0-.248-.075.333.333,0,0,0-.261.135.479.479,0,0,0-.115.326v1.032h-.423V81.8h.423v.164a.606.606,0,0,1,.473-.2.665.665,0,0,1,.331.066Z" transform="translate(-73.197 -41.879)" fill="maroon"/>
      <path id="Trazado_133" data-name="Trazado 133" d="M106.379,82.757a.922.922,0,0,0-.163-.023c-.334,0-.5.11-.5.329,0,.163.095.244.282.244a.337.337,0,0,0,.382-.381v-.169Zm.04.671a.407.407,0,0,1-.2.155.766.766,0,0,1-.3.059.677.677,0,0,1-.461-.147.521.521,0,0,1-.167-.415.58.58,0,0,1,.236-.492,1.1,1.1,0,0,1,.67-.177.7.7,0,0,1,.176.026c0-.214-.135-.319-.4-.319a.9.9,0,0,0-.4.079l-.091-.329a1.19,1.19,0,0,1,.519-.1.842.842,0,0,1,.607.189,1,1,0,0,1,.193.714v.387c0,.241.049.394.145.455a.226.226,0,0,1-.116.112.481.481,0,0,1-.148.02.238.238,0,0,1-.163-.067.363.363,0,0,1-.1-.147" transform="translate(-73.294 -41.879)" fill="maroon"/>
      <path id="Trazado_134" data-name="Trazado 134" d="M107.461,82.1h-.211v-.34h.21v-.37l.423-.155v.525h.5V82.1h-.5v.794a.468.468,0,0,0,.06.274.252.252,0,0,0,.214.082.523.523,0,0,0,.284-.084v.389a1.363,1.363,0,0,1-.42.051.546.546,0,0,1-.416-.153.611.611,0,0,1-.145-.436V82.1Z" transform="translate(-73.433 -41.841)" fill="maroon"/>
      <path id="Trazado_135" data-name="Trazado 135" d="M109.208,81.043a.246.246,0,0,1,.245.246.242.242,0,0,1-.072.174.236.236,0,0,1-.174.072.244.244,0,0,1-.245-.245.246.246,0,0,1,.245-.246m-.217,2.515V82.093h-.232v-.347h.66v1.812Z" transform="translate(-73.541 -41.827)" fill="maroon"/>
      <path id="Trazado_136" data-name="Trazado 136" d="M110.312,82.7c0,.4.143.6.432.6a.371.371,0,0,0,.313-.155.733.733,0,0,0,.116-.443c0-.394-.143-.59-.429-.59a.374.374,0,0,0-.316.155.709.709,0,0,0-.116.435m-.44,0a.959.959,0,0,1,.24-.675.921.921,0,0,1,1.273-.009,1.141,1.141,0,0,1,0,1.373.924.924,0,0,1-1.279,0,1,1,0,0,1-.229-.686" transform="translate(-73.621 -41.879)" fill="maroon"/>
      <path id="Trazado_137" data-name="Trazado 137" d="M113.276,83.609V82.562a.524.524,0,0,0-.089-.338.36.36,0,0,0-.291-.106.456.456,0,0,0-.2.052.443.443,0,0,0-.164.13v1.309h-.423V81.8h.3l.077.169a.632.632,0,0,1,.51-.2.677.677,0,0,1,.511.193.753.753,0,0,1,.187.541V83.61Z" transform="translate(-73.78 -41.879)" fill="maroon"/>
      <path id="Trazado_138" data-name="Trazado 138" d="M114.384,83.489a.3.3,0,0,1,.3-.3.29.29,0,0,1,.215.089.306.306,0,0,1,0,.432.3.3,0,0,1-.52-.216" transform="translate(-73.943 -41.98)" fill="maroon"/>
      <path id="Trazado_139" data-name="Trazado 139" d="M116,82.7c0,.4.143.6.432.6a.371.371,0,0,0,.313-.155.733.733,0,0,0,.116-.443c0-.394-.143-.59-.429-.59a.374.374,0,0,0-.316.155A.709.709,0,0,0,116,82.7m-.44,0a.959.959,0,0,1,.24-.675.921.921,0,0,1,1.273-.009,1.141,1.141,0,0,1,0,1.373.924.924,0,0,1-1.279,0,1,1,0,0,1-.229-.686" transform="translate(-74.026 -41.879)" fill="maroon"/>
      <path id="Trazado_140" data-name="Trazado 140" d="M118.841,82.191a.44.44,0,0,0-.248-.075.333.333,0,0,0-.261.135.479.479,0,0,0-.115.326v1.032h-.423V81.8h.423v.164a.607.607,0,0,1,.473-.2.665.665,0,0,1,.331.066Z" transform="translate(-74.186 -41.879)" fill="maroon"/>
      <path id="Trazado_141" data-name="Trazado 141" d="M119.664,82.425a.365.365,0,0,0,.089.258.307.307,0,0,0,.24.1.292.292,0,0,0,.232-.095.388.388,0,0,0,.08-.261.327.327,0,0,0-.086-.231.293.293,0,0,0-.226-.1.313.313,0,0,0-.329.327m-.423,1.641.267-.33a.711.711,0,0,0,.493.2.744.744,0,0,0,.3-.054c.079-.036.118-.085.118-.149,0-.108-.086-.162-.263-.162a2.061,2.061,0,0,0-.212.018,1.979,1.979,0,0,1-.212.018c-.291,0-.436-.1-.436-.313a.272.272,0,0,1,.072-.176.448.448,0,0,1,.169-.127.641.641,0,0,1-.31-.57.616.616,0,0,1,.214-.481.756.756,0,0,1,.525-.189.838.838,0,0,1,.408.091l.166-.193.292.266-.2.148a.735.735,0,0,1-.084.87.656.656,0,0,1-.477.184.959.959,0,0,1-.122-.008l-.07-.01a.435.435,0,0,0-.09.037c-.053.024-.079.049-.079.075,0,.046.039.069.117.069a.968.968,0,0,0,.176-.026,1.026,1.026,0,0,1,.212-.025c.412,0,.617.164.617.495a.485.485,0,0,1-.246.43,1.092,1.092,0,0,1-.6.156,1.239,1.239,0,0,1-.75-.245" transform="translate(-74.289 -41.871)" fill="maroon"/>
    </g>
  </g>
</svg>
