<?xml version="1.0" encoding="utf-8"?>
<!-- Generator: Adobe Illustrator 24.0.2, SVG Export Plug-In . SVG Version: 6.00 Build 0)  -->
<svg version="1.1" id="Capa_1" xmlns="http://www.w3.org/2000/svg" xmlns:xlink="http://www.w3.org/1999/xlink" x="0px" y="0px"
	 width="2540px" height="500px" viewBox="0 0 2540 500" style="enable-background:new 0 0 2540 500;" xml:space="preserve">
<style type="text/css">
	.st0{fill:#ED2024;}
	.st1{fill:#557A73;}
	.st2{fill:#65B4C8;}
	.st3{fill:#C6BA8B;}
</style>
<g>
	<g id="Globe">
		<path class="st0" d="M358.4,203.5c1.3,12.9,2,26.2,2.3,39.9H457c-0.5-13-2.3-26.4-5.4-39.9H358.4z"/>
		<path class="st0" d="M141.8,256.6H45.5c0.5,13,2.3,26.4,5.4,39.9h93.3C142.7,283.6,142,270.4,141.8,256.6z"/>
		<path class="st1" d="M187.6,97.2c-6.1,11.8-11.7,25.1-16.3,39.9h160c-4.6-14.7-10.1-28-16.3-39.9H187.6z"/>
		<path class="st2" d="M307.2,83.9C291.3,59.1,271.9,44,251.3,44s-40.1,15-55.9,39.9H307.2z"/>
		<path class="st0" d="M159.3,190.2h184c-2-13.9-4.8-27.2-8.2-39.9H167.4C164.1,163.1,161.3,176.2,159.3,190.2z"/>
		<path class="st3" d="M153.3,150.4H71.2c-6.9,12.6-12.6,25.9-16.9,39.9h91.3C147.6,176.2,150.1,163.1,153.3,150.4z"/>
		<path class="st2" d="M144,203.5H50.9c-3.2,13.4-4.9,26.8-5.4,39.9h96.3C142,229.6,142.7,216.5,144,203.5z"/>
		<path class="st3" d="M344.9,203.5H157.6c-1.5,12.9-2.3,26.2-2.5,39.9h192.4C347.1,229.6,346.4,216.5,344.9,203.5z"/>
		<path class="st2" d="M172,97.2h-58.6c-13.2,11.8-24.6,25.2-34.3,39.9h77.8C161.3,122.6,166.3,109.1,172,97.2z"/>
		<path class="st0" d="M206.7,49.1c-27.6,6.1-53.8,17.9-76.9,34.8h49.3C187.3,69.8,196.6,57.9,206.7,49.1z"/>
		<path class="st3" d="M323.4,83.9h49.3c-23.1-16.9-49.3-28.7-76.9-34.8C305.8,57.9,315.1,69.8,323.4,83.9z"/>
		<path class="st2" d="M356.7,190.2H448c-4.3-13.9-9.8-27.2-16.9-39.9H349C352.3,163.1,354.9,176.2,356.7,190.2z"/>
		<path class="st2" d="M358.4,296.5h93.3c3.2-13.4,4.9-26.8,5.4-39.9h-96.3C360.4,270.4,359.8,283.6,358.4,296.5z"/>
		<path class="st0" d="M314.9,402.9c6.1-11.8,11.7-25.1,16.3-39.9h-160c4.6,14.7,10.1,28,16.3,39.9H314.9z"/>
		<path class="st2" d="M343.2,309.9H159.3c2,13.9,4.8,27.2,8.2,39.9h167.7C338.4,337,341.2,323.8,343.2,309.9z"/>
		<path class="st0" d="M345.6,137.1h77.7c-9.7-14.6-21.1-28-34.3-39.9h-58.6C336.1,109.1,341.2,122.6,345.6,137.1z"/>
		<path class="st1" d="M347.4,256.6H155c0.3,13.7,1.1,27,2.5,39.9h187.4C346.4,283.6,347.1,270.4,347.4,256.6z"/>
		<path class="st0" d="M295.7,451c27.6-6.1,53.9-17.9,76.9-34.8h-49.3C315.1,430.4,305.8,442.1,295.7,451z"/>
		<path class="st2" d="M195.3,416c15.9,24.8,35.3,39.9,55.9,39.9s40.1-15,55.9-39.9L195.3,416L195.3,416z"/>
		<path class="st1" d="M330.4,402.9H389c13.2-11.8,24.6-25.2,34.3-39.9h-77.7C341.2,377.5,336.1,390.9,330.4,402.9z"/>
		<path class="st3" d="M179.1,416h-49.3c23.1,16.9,49.3,28.7,76.9,34.8C196.6,442.1,187.3,430.4,179.1,416z"/>
		<path class="st0" d="M349.1,349.6h82.1c6.9-12.6,12.6-25.9,16.9-39.9h-91.3C354.9,323.8,352.3,337,349.1,349.6z"/>
		<path class="st1" d="M145.7,309.9H54.3c4.3,13.9,9.8,27.2,16.9,39.9h82.1C150.1,337,147.6,323.8,145.7,309.9z"/>
		<path class="st2" d="M156.9,363H79.2c9.7,14.6,21.1,28,34.3,39.9h58.6C166.3,390.9,161.3,377.5,156.9,363z"/>
	</g>
	<g id="Text">
		<g>
			<path class="st1" d="M672.4,234.4v6.9c0,19.7-5.7,34.4-18.5,47.4c-12.8,12.8-29,19.7-47,19.7c-37.5,0-65.5-28.3-65.5-65.9
				c0-38,27.9-66.5,65.4-66.5c20.6,0,39.2,8.8,51.6,24.5l-19.8,15.3c-9.4-11.1-18.7-15.9-31.3-15.9c-22.4,0-39.4,18.3-39.4,42.4
				c0,23.7,17.6,42.2,39.9,42.2c10.9,0,21.8-4.8,28.5-12.8c3.8-4.4,5.7-8.4,7.8-16.1h-35.5v-21.4h63.8V234.4z"/>
			<path class="st1" d="M709.9,267.4c2.1,12.2,11.1,19.9,23.1,19.9c9,0,16.6-4.4,20.4-11.5l22.4,6.1c-8.8,17.2-24.3,26.9-43,26.9
				c-28.1,0-48.2-19.9-48.2-47.4c0-27.7,19.3-47.2,46.6-47.2c28.3,0,48,19.9,48,48.3l-0.2,4.8h-69.1V267.4z M754.2,253.5
				c-2.1-11.7-10.5-18.7-22.5-18.7c-11.7,0-19.5,6.7-21.8,18.7H754.2z"/>
			<path class="st1" d="M820.9,217.2v10.9c6.5-10.1,13-13.9,24.1-13.9c8.4,0,16.4,3.1,21.8,8.2c5.7,5.7,7.8,12.8,7.8,27.3v56h-24.3
				V251c0-5-0.6-7.8-2.1-10.3c-2.3-3.6-6.9-5.9-11.7-5.9c-9.4,0-15.7,7.1-15.7,17.4v53.6h-24.3v-88.5H820.9z"/>
			<path class="st1" d="M965.9,178.4h24.3v127.4h-24.3V294c-7.6,10.5-16.1,14.7-29.6,14.7c-26.2,0-43.8-18.7-43.8-46.4
				c0-14.9,5-27.3,14.1-35.9c8.4-7.8,19.1-12.2,30-12.2c12,0,20.6,3.8,29.2,12.8L965.9,178.4L965.9,178.4z M918.4,262.5
				c0,15.3,10.1,26.8,23.9,26.8c13.4,0,23.7-11.7,23.7-26.9c0-16.1-9.9-27.7-23.5-27.7C928.5,234.6,918.4,246.4,918.4,262.5z"/>
			<path class="st1" d="M1033.6,267.4c2.1,12.2,11.1,19.9,23.1,19.9c9,0,16.6-4.4,20.4-11.5l22.4,6.1c-8.8,17.2-24.3,26.9-43,26.9
				c-28.1,0-48.2-19.9-48.2-47.4c0-27.7,19.3-47.2,46.6-47.2c28.3,0,48,19.9,48,48.3l-0.2,4.8h-69.1V267.4z M1077.9,253.5
				c-2.1-11.7-10.5-18.7-22.5-18.7c-11.7,0-19.5,6.7-21.8,18.7H1077.9z"/>
			<path class="st1" d="M1144.6,217.2v13c2.5-6.5,4.2-9.2,7.8-11.8c3.8-2.7,9-4.2,14.3-4.2c0.6,0,1.5,0,2.9,0.2v24.8
				c-1.9-0.2-3.8-0.4-5.2-0.4c-6.7,0-12.8,3.1-16.2,8c-2.9,4-3.6,7.8-3.6,16.2v42.7h-24.3v-88.5H1144.6z"/>
			<path class="st1" d="M1249.4,245.4v-30.8h10.6v30.8h31.8v10.3H1260v30.8h-10.6v-30.8h-31.6v-10.3H1249.4z"/>
			<path class="st1" d="M1367.7,305.8h-26.2V178.4h29.6l38,77.4l38.2-77.4h29.6v127.4h-26.2v-79.5l-41.7,83.3l-41.5-83.3v79.5
				H1367.7z"/>
			<path class="st1" d="M1527.8,192.2c0,7.5-5.7,13.2-13.4,13.2c-7.8,0-13.6-5.7-13.6-13.4c0-7.8,5.7-13.6,13.6-13.6
				C1522.3,178.6,1527.8,184.2,1527.8,192.2z M1526.5,305.8h-24.3v-88.5h24.3V305.8z"/>
			<path class="st1" d="M1616.1,217.2h23.9v82c0,18.2-3.4,28.7-11.8,36.9c-8.6,8.6-21.6,13.4-36.7,13.4c-17.2,0-31.3-5.7-43.4-17.6
				l15.1-15.3c7.8,8.4,16.2,12.2,27.3,12.2c16.2,0,25.6-9.6,25.6-26.2v-9c-8,10.1-18.3,15.1-31.1,15.1c-24.3,0-41.8-19.7-41.8-46.6
				c0-28.7,17.8-48,44.3-48c12.4,0,21,4.2,28.7,13.9L1616.1,217.2L1616.1,217.2z M1568.9,261c0,15.3,9.9,26.2,23.9,26.2
				c7.1,0,13.9-3.1,18.3-8.2c2.9-3.4,4.6-9,4.6-15.7c0-9.6-2.1-16.1-6.5-20.6c-4.4-4.2-10.5-6.9-16.6-6.9
				C1578.7,235.9,1568.9,246.4,1568.9,261z"/>
			<path class="st1" d="M1688,217.2v13c2.5-6.5,4.2-9.2,7.8-11.8c3.8-2.7,9-4.2,14.3-4.2c0.6,0,1.5,0,2.9,0.2v24.8
				c-1.9-0.2-3.8-0.4-5.2-0.4c-6.7,0-12.8,3.1-16.2,8c-2.9,4-3.6,7.8-3.6,16.2v42.7h-24.3v-88.5H1688z"/>
			<path class="st1" d="M1794.8,217.2h24.3v88.5h-24.3v-12.2c-8.2,10.5-17.8,15.3-30.8,15.3c-24.8,0-42.6-19.3-42.6-46.2
				c0-27.9,18.7-48.3,44.5-48.3c12,0,20.3,4.2,28.9,14.3V217.2z M1747.4,262.2c0,15.5,10.1,27.1,23.3,27.1
				c13.6,0,24.5-12.6,24.5-27.9c0-15.7-9.9-26.8-24.3-26.8C1757.1,234.6,1747.4,246,1747.4,262.2z"/>
			<path class="st1" d="M1869.3,279.8c0,4.2,1.5,5.3,6.9,5.7h4.2v20.3h-19.3c-11.8-0.4-16.2-5.2-16.1-16.8v-51.6h-10.1V217h10.1
				v-23.7h24.3V217h11.1v20.4h-11.1V279.8z"/>
			<path class="st1" d="M1924.1,192.2c0,7.5-5.7,13.2-13.4,13.2c-7.8,0-13.6-5.7-13.6-13.4c0-7.8,5.7-13.6,13.6-13.6
				C1918.6,178.6,1924.1,184.2,1924.1,192.2z M1922.8,305.8h-24.3v-88.5h24.3V305.8z"/>
			<path class="st1" d="M2037.4,262.4c0,26-21.2,46.4-48.3,46.4c-27.9,0-48-19.7-48-47.2c0-28.1,19.7-47.4,48.3-47.4
				C2017.4,214.2,2037.4,234.5,2037.4,262.4z M1965.6,261.6c0,15.3,9.6,25.6,23.7,25.6c14,0,23.7-10.5,23.7-25.2
				c0-16.1-9-26-23.5-26C1975.1,236,1965.6,246.1,1965.6,261.6z"/>
			<path class="st1" d="M2079.7,217.2v10.9c6.5-10.1,13-13.9,24.1-13.9c8.4,0,16.4,3.1,21.8,8.2c5.7,5.7,7.8,12.8,7.8,27.3v56h-24.3
				V251c0-5-0.6-7.8-2.1-10.3c-2.3-3.6-6.9-5.9-11.7-5.9c-9.4,0-15.7,7.1-15.7,17.4v53.6h-24.3v-88.5H2079.7z"/>
		</g>
		<g>
			<path class="st2" d="M2217.8,302.6h-20.7V202h20.7v42.6h38.2V202h20.7v100.7H2256v-41.2h-38.2V302.6z"/>
			<path class="st2" d="M2331.9,261c0,9.4,1.2,14.5,4.5,18.4c3,3.8,8.5,6.2,14,6.2c5.9,0,11.6-2.7,14.6-6.9c3-4.1,3.9-8.5,3.9-17.8
				V202h20.8v58.3c0,14.8-3.2,25.1-10,32.6s-17.4,11.8-29.1,11.8c-12.2,0-23.4-4.5-30.5-12.5c-6.5-7.2-9.1-16.3-9.1-31.9V202h20.7
				v59H2331.9z"/>
			<path class="st2" d="M2456.9,202c12.4,0,20.4,1.8,25.7,5.7c6.2,4.7,9.7,12.4,9.7,21.3c0,6.9-2.1,12.7-6.3,17.2
				c-2.9,2.9-5.1,4.2-10.6,6c6,1.4,8.8,2.6,11.9,5.4c4.7,4.2,7.2,10.4,7.2,18.1c0,9.4-3.9,17.7-10.4,22c-5.3,3.5-11.5,4.8-22.5,4.8
				h-37.1V202H2456.9z M2445.2,244.6h8.3c12.2,0,18-4.4,18-13.7c0-5.1-2.4-9.5-6-11.3c-2.9-1.4-7.1-2-13-2h-7.2v27H2445.2z
				 M2445.2,287.5h10.1c7.1,0,10.4-0.6,13.4-2.7c3.3-2.3,5-5.9,5-10.7c0-5.4-2-9.2-5.7-11.5c-3.2-1.8-6.3-2.4-13.9-2.4h-8.9
				L2445.2,287.5L2445.2,287.5z"/>
		</g>
	</g>
</g>
</svg>
