<?xml version="1.0" encoding="utf-8"?>
<!-- Generator: Adobe Illustrator 24.0.2, SVG Export Plug-In . SVG Version: 6.00 Build 0)  -->
<svg version="1.1" id="Capa_1" xmlns="http://www.w3.org/2000/svg" xmlns:xlink="http://www.w3.org/1999/xlink" x="0px" y="0px"
	 width="270px" height="100px" viewBox="0 0 270 100" style="enable-background:new 0 0 270 100;" xml:space="preserve">
<path style="fill:#F7F7F7;" d="M270,100H0V0h170C225.228,0,270,44.771,270,100L270,100z"/>
<g>
	<g>
		<path style="fill:#005597;" d="M164.517,69.762c-1.272-0.721-3.037-1.176-4.479-1.176c-2.866,0-4.936,1.898-4.936,4.802
			c0,2.771,1.538,3.378,3.873,4.043c0.797,0.228,2.259,0.588,2.259,1.632c0,1.006-0.93,1.443-1.803,1.443
			c-1.272,0-2.373-0.665-3.303-1.481l-1.594,2.999c1.461,1.025,3.227,1.632,5.03,1.632c1.442,0,2.941-0.398,4.061-1.348
			c1.139-0.968,1.481-2.429,1.481-3.852c0-2.316-1.538-3.322-3.531-3.91l-0.949-0.285c-0.645-0.209-1.651-0.531-1.651-1.367
			c0-0.798,0.911-1.196,1.594-1.196c0.911,0,1.784,0.38,2.468,0.949L164.517,69.762z"/>
		<polygon style="fill:#005597;" points="170.601,72.115 173.676,72.115 173.676,68.964 163.806,68.964 163.806,72.115 
			166.881,72.115 166.881,83.276 170.601,83.276 		"/>
		<rect x="174.012" y="68.964" style="fill:#005597;" width="3.72" height="14.311"/>
		<polygon style="fill:#005597;" points="186.419,72.115 186.419,68.964 178.2,68.964 178.2,83.276 181.921,83.276 181.921,77.658 
			186.001,77.658 186.001,74.507 181.921,74.507 181.921,72.115 		"/>
		<polygon style="fill:#005597;" points="193.36,72.115 196.434,72.115 196.434,68.964 186.565,68.964 186.565,72.115 
			189.64,72.115 189.64,83.276 193.36,83.276 		"/>
		<g>
			<path style="fill:#005597;" d="M205.464,68.964V76.5c0,1.86-0.133,3.891-2.525,3.891s-2.524-2.031-2.524-3.891v-7.535h-3.719
				v8.048c0,1.841,0.075,3.664,1.499,5.049c1.195,1.177,3.074,1.594,4.744,1.594s3.549-0.417,4.745-1.594
				c1.423-1.385,1.499-3.208,1.499-5.049v-8.048L205.464,68.964L205.464,68.964z"/>
		</g>
		<polygon style="fill:#005597;" points="209.576,83.276 213.296,83.276 213.296,74.507 213.333,74.507 220.148,83.276 
			223.868,83.276 223.868,68.964 220.148,68.964 220.148,77.714 220.11,77.714 213.296,68.964 209.576,68.964 		"/>
		<g>
			<path style="fill:#005597;" d="M230.658,75.285v2.924h3.037c-0.152,1.651-1.386,2.486-2.999,2.486
				c-2.448,0-3.777-2.259-3.777-4.48c0-2.183,1.271-4.517,3.719-4.517c1.499,0,2.582,0.911,3.094,2.278l3.531-1.48
				c-1.234-2.677-3.511-4.005-6.454-4.005c-4.612,0-7.763,3.056-7.763,7.706c0,4.498,3.133,7.554,7.631,7.554
				c2.391,0,4.498-0.854,5.902-2.809c1.272-1.784,1.423-3.568,1.461-5.656L230.658,75.285L230.658,75.285z"/>
		</g>
		<polygon style="fill:#005597;" points="163.322,55.753 163.322,52.602 155.179,52.602 155.179,66.913 163.322,66.913 
			163.322,63.763 158.899,63.763 158.899,61.295 163.094,61.295 163.094,58.144 158.899,58.144 158.899,55.753 		"/>
		<g>
			<path style="fill:#005597;" d="M167.453,55.449h0.266c1.006,0,2.164,0.075,2.164,1.385c0,1.214-1.025,1.385-2.012,1.385h-0.418
				C167.453,58.219,167.453,55.449,167.453,55.449z M169.465,66.913c2.619,0,5.182-0.987,5.182-3.986
				c0-1.993-0.874-3.379-2.923-3.644v-0.038c1.158-0.588,1.575-1.632,1.575-2.923c0-2.733-1.708-3.72-4.251-3.72h-5.315v14.311
				C163.733,66.913,169.465,66.913,169.465,66.913z M167.453,60.991h0.38c1.214,0,3.056-0.171,3.056,1.556
				c0,1.576-1.86,1.519-2.961,1.519h-0.474v-3.075H167.453z"/>
		</g>
		<polygon style="fill:#005597;" points="182.08,55.753 182.08,52.602 173.938,52.602 173.938,66.913 182.08,66.913 182.08,63.763 
			177.658,63.763 177.658,61.295 181.853,61.295 181.853,58.144 177.658,58.144 177.658,55.753 		"/>
		<g>
			<path style="fill:#005597;" d="M186.212,55.449h0.36c1.215,0,2.582,0.228,2.582,1.784s-1.367,1.784-2.582,1.784h-0.36V55.449z
				 M189.894,61.048c2.031-0.361,3.132-2.069,3.132-4.043c0-3.056-2.145-4.404-4.973-4.404h-5.561v14.311h3.72v-5.503h0.038
				l3.511,5.503h4.631L189.894,61.048z"/>
		</g>
		<polygon style="fill:#005597;" points="200.157,55.753 203.232,55.753 203.232,52.602 193.363,52.602 193.363,55.753 
			196.438,55.753 196.438,66.913 200.157,66.913 		"/>
		<polygon style="fill:#005597;" points="163.397,39.39 163.397,36.239 155.179,36.239 155.179,50.55 158.899,50.55 158.899,44.933 
			162.98,44.933 162.98,41.782 158.899,41.782 158.899,39.39 		"/>
		<g>
			<path style="fill:#005597;" d="M167.305,39.086h0.36c1.215,0,2.582,0.227,2.582,1.784c0,1.556-1.367,1.784-2.582,1.784h-0.36
				V39.086z M170.987,44.686c2.031-0.361,3.132-2.069,3.132-4.043c0-3.056-2.145-4.403-4.973-4.403h-5.562v14.31h3.72v-5.504h0.038
				l3.511,5.504h4.631L170.987,44.686z"/>
		</g>
		<rect x="174.418" y="36.239" style="fill:#005597;" width="3.72" height="14.31"/>
		<polygon style="fill:#005597;" points="186.829,39.39 186.829,36.239 178.686,36.239 178.686,50.55 186.829,50.55 186.829,47.4 
			182.407,47.4 182.407,44.933 186.602,44.933 186.602,41.782 182.407,41.782 182.407,39.39 		"/>
		<g>
			<path style="fill:#005597;" d="M190.961,39.39h0.873c2.392,0,4.081,1.443,4.081,4.004c0,2.791-1.898,4.005-4.119,4.005h-0.835
				L190.961,39.39L190.961,39.39z M187.24,50.55h5.276c3.967,0,7.27-3.132,7.27-7.156s-3.284-7.155-7.27-7.155h-5.276V50.55z"/>
			<path style="fill:#005597;" d="M202.786,39.086h0.361c1.214,0,2.581,0.227,2.581,1.784c0,1.556-1.367,1.784-2.581,1.784h-0.361
				V39.086z M206.468,44.686c2.031-0.361,3.132-2.069,3.132-4.043c0-3.056-2.145-4.403-4.973-4.403h-5.561v14.31h3.719v-5.504h0.038
				l3.511,5.504h4.631L206.468,44.686z"/>
		</g>
		<rect x="209.9" y="36.239" style="fill:#005597;" width="3.72" height="14.31"/>
		<g>
			<path style="fill:#005597;" d="M224.019,36.581c-1.101-0.456-2.201-0.721-3.398-0.721c-2.011,0-4.043,0.873-5.446,2.316
				c-1.367,1.405-2.108,3.284-2.108,5.238c0,2.125,0.721,3.986,2.297,5.409c1.481,1.348,3.379,2.108,5.371,2.108
				c1.158,0,2.05-0.285,3.284-0.665v-4.46c-0.778,0.93-1.993,1.519-3.208,1.519c-2.316,0-3.872-1.632-3.872-3.892
				c0-2.22,1.538-3.966,3.815-3.966c1.271,0,2.505,0.551,3.264,1.576L224.019,36.581L224.019,36.581z"/>
		</g>
		<polygon style="fill:#005597;" points="228.153,41.762 228.153,36.239 224.434,36.239 224.434,50.55 228.153,50.55 
			228.153,44.686 233.525,44.686 233.525,50.55 237.245,50.55 237.245,36.239 233.525,36.239 233.525,41.762 		"/>
		<line style="fill:none;stroke:#005597;stroke-width:1.11;" x1="202.213" y1="59.38" x2="219.21" y2="59.38"/>
		<line style="fill:none;stroke:#005597;stroke-width:1.11;" x1="202.622" y1="62.08" x2="218.8" y2="62.08"/>
		<line style="fill:none;stroke:#005597;stroke-width:1.11;" x1="204.124" y1="64.78" x2="217.298" y2="64.78"/>
		<line style="fill:none;stroke:#005597;stroke-width:1.11;" x1="202.554" y1="57.288" x2="218.936" y2="57.288"/>
		<line style="fill:none;stroke:#005597;stroke-width:1.11;" x1="204.841" y1="53.777" x2="216.609" y2="53.777"/>
		<line style="fill:none;stroke:#005597;stroke-width:1.11;" x1="206.46" y1="52.495" x2="214.964" y2="52.495"/>
		<line style="fill:none;stroke:#005597;stroke-width:1.11;" x1="203.56" y1="55.465" x2="218.118" y2="55.465"/>
		<g>
			<path style="fill:none;stroke:#005597;stroke-width:1.11;" d="M202.478,59.513c0-4.498,3.703-8.201,8.202-8.201
				c4.564,0,8.334,3.703,8.334,8.201c0,4.564-3.77,8.267-8.334,8.267C206.181,67.78,202.478,64.076,202.478,59.513z M210.679,67.713
				V52.106 M207.306,55.545l3.374-3.439l3.44,3.439"/>
		</g>
	</g>
	<g>
		<path style="fill:none;stroke:#B88F3D;stroke-width:0.75;stroke-linecap:round;stroke-linejoin:round;stroke-miterlimit:10;" d="
			M87.52,67.138c0,7.562-6.612,13.692-14.767,13.692c-8.157,0-14.767-6.13-14.767-13.692c0-7.561,6.611-13.691,14.767-13.691
			C80.908,53.446,87.52,59.576,87.52,67.138z M84.605,67.138c0,6.07-5.306,10.99-11.853,10.99s-11.854-4.919-11.854-10.99
			c0-6.069,5.307-10.989,11.854-10.989S84.605,61.068,84.605,67.138z M81.724,67.138c0,4.595-4.017,8.319-8.971,8.319
			s-8.971-3.724-8.971-8.319c0-4.594,4.017-8.318,8.971-8.318S81.724,62.544,81.724,67.138z M78.511,67.138
			c0,2.95-2.578,5.34-5.759,5.34s-5.76-2.39-5.76-5.34c0-2.949,2.579-5.34,5.76-5.34C75.934,61.798,78.511,64.189,78.511,67.138z
			 M75.842,67.138c0,1.583-1.383,2.866-3.09,2.866s-3.09-1.283-3.09-2.866c0-1.582,1.383-2.865,3.09-2.865
			S75.842,65.556,75.842,67.138z M91.404,48.387c0,6.919-5.868,12.527-13.109,12.527s-13.109-5.608-13.109-12.527
			S71.055,35.86,78.295,35.86S91.404,41.468,91.404,48.387z M88.817,48.387c0,5.553-4.71,10.055-10.522,10.055
			c-5.812,0-10.522-4.502-10.522-10.055s4.71-10.055,10.522-10.055S88.817,42.834,88.817,48.387z M86.259,48.387
			c0,4.203-3.565,7.61-7.964,7.61s-7.964-3.408-7.964-7.61c0-4.203,3.565-7.61,7.964-7.61S86.259,44.184,86.259,48.387z
			 M83.407,48.387c0,2.698-2.288,4.886-5.112,4.886c-2.824,0-5.112-2.188-5.112-4.886s2.288-4.886,5.112-4.886
			C81.119,43.501,83.407,45.689,83.407,48.387z M81.039,48.387c0,1.448-1.228,2.622-2.743,2.622s-2.743-1.174-2.743-2.622
			s1.228-2.622,2.743-2.622C79.81,45.765,81.039,46.939,81.039,48.387z M74.139,57.851c0,11.175-9.582,20.236-21.403,20.236
			s-21.403-9.06-21.403-20.236c0-11.175,9.582-20.236,21.403-20.236S74.139,46.676,74.139,57.851z M69.916,57.851
			c0,8.97-7.691,16.242-17.179,16.242c-9.487,0-17.179-7.272-17.179-16.242s7.692-16.242,17.179-16.242
			C62.225,41.609,69.916,48.881,69.916,57.851z M65.739,57.851c0,6.79-5.821,12.294-13.002,12.294s-13.002-5.504-13.002-12.294
			s5.822-12.294,13.002-12.294C59.918,45.557,65.739,51.061,65.739,57.851z M61.083,57.851c0,4.358-3.737,7.892-8.347,7.892
			s-8.347-3.534-8.347-7.892s3.737-7.892,8.347-7.892S61.083,53.493,61.083,57.851z M57.216,57.851c0,2.338-2.006,4.234-4.479,4.234
			s-4.479-1.896-4.479-4.234s2.006-4.234,4.479-4.234S57.216,55.513,57.216,57.851z"/>
	</g>
	<g>
		<polygon style="fill:#800000;" points="88.501,46.28 88.189,46.28 86.46,41.202 84.844,46.28 84.533,46.28 82.243,38.813 
			83.274,38.813 84.731,43.957 86.326,38.813 86.672,38.813 88.248,43.948 89.729,38.813 90.759,38.813 		"/>
		<polygon style="fill:#800000;" points="88.501,46.28 88.189,46.28 86.46,41.202 84.844,46.28 84.533,46.28 82.243,38.813 
			83.274,38.813 84.731,43.957 86.326,38.813 86.672,38.813 88.248,43.948 89.729,38.813 90.759,38.813 		"/>
		<path style="fill:#800000;" d="M92.937,43.559c0,1.31,0.454,1.966,1.365,1.966c0.424,0,0.758-0.176,0.998-0.528
			c0.242-0.35,0.362-0.83,0.362-1.438c0-1.293-0.454-1.941-1.36-1.941c-0.416,0-0.747,0.173-0.995,0.517
			C93.06,42.479,92.937,42.954,92.937,43.559 M91.979,43.559c0-0.807,0.214-1.457,0.64-1.953c0.426-0.496,0.986-0.744,1.683-0.744
			c0.734,0,1.304,0.238,1.709,0.714c0.406,0.476,0.608,1.137,0.608,1.982c0,0.842-0.207,1.506-0.622,1.993
			c-0.416,0.486-0.981,0.728-1.695,0.728c-0.732,0-1.302-0.245-1.71-0.737C92.183,45.053,91.979,44.391,91.979,43.559"/>
		<path style="fill:#800000;" d="M92.937,43.559c0,1.31,0.454,1.966,1.365,1.966c0.424,0,0.758-0.176,0.998-0.528
			c0.242-0.35,0.362-0.83,0.362-1.438c0-1.293-0.454-1.941-1.36-1.941c-0.416,0-0.747,0.173-0.995,0.517
			C93.06,42.479,92.937,42.954,92.937,43.559z M91.979,43.559c0-0.807,0.214-1.457,0.64-1.953c0.426-0.496,0.986-0.744,1.683-0.744
			c0.734,0,1.304,0.238,1.709,0.714c0.406,0.476,0.608,1.137,0.608,1.982c0,0.842-0.207,1.506-0.622,1.993
			c-0.416,0.486-0.981,0.728-1.695,0.728c-0.732,0-1.302-0.245-1.71-0.737C92.183,45.053,91.979,44.391,91.979,43.559z"/>
		<path style="fill:#800000;" d="M105.119,46.17v-3.299c0-0.821-0.365-1.232-1.097-1.232c-0.23,0-0.446,0.069-0.647,0.207
			c-0.2,0.139-0.337,0.295-0.41,0.47v3.854h-0.953v-3.703c0-0.257-0.099-0.458-0.298-0.606c-0.2-0.147-0.462-0.222-0.789-0.222
			c-0.191,0-0.393,0.071-0.609,0.215c-0.215,0.142-0.368,0.3-0.459,0.472v3.844h-0.951v-5.211h0.621l0.315,0.604
			c0.368-0.468,0.828-0.702,1.379-0.702c0.768,0,1.306,0.232,1.613,0.697c0.106-0.198,0.306-0.364,0.597-0.497s0.59-0.2,0.897-0.2
			c0.555,0,0.984,0.16,1.288,0.48s0.456,0.768,0.456,1.346v3.483C106.072,46.17,105.119,46.17,105.119,46.17z"/>
		<path style="fill:#800000;" d="M105.119,46.17v-3.299c0-0.821-0.365-1.232-1.097-1.232c-0.23,0-0.446,0.069-0.647,0.207
			c-0.2,0.139-0.337,0.295-0.41,0.47v3.854h-0.953v-3.703c0-0.257-0.099-0.458-0.298-0.606c-0.2-0.147-0.462-0.222-0.789-0.222
			c-0.191,0-0.393,0.071-0.609,0.215c-0.215,0.142-0.368,0.3-0.459,0.472v3.844h-0.951v-5.211h0.621l0.315,0.604
			c0.368-0.468,0.828-0.702,1.379-0.702c0.768,0,1.306,0.232,1.613,0.697c0.106-0.198,0.306-0.364,0.597-0.497s0.59-0.2,0.897-0.2
			c0.555,0,0.984,0.16,1.288,0.48s0.456,0.768,0.456,1.346v3.483C106.072,46.17,105.119,46.17,105.119,46.17z"/>
		<path style="fill:#800000;" d="M110.812,41.641c-0.406,0-0.747,0.134-1.023,0.4c-0.263,0.253-0.412,0.569-0.447,0.946h2.847
			c0-0.374-0.114-0.685-0.346-0.936C111.592,41.778,111.248,41.641,110.812,41.641 M113.025,43.661h-3.706
			c0,0.612,0.165,1.081,0.494,1.409c0.292,0.286,0.667,0.43,1.124,0.43c0.522,0,0.957-0.154,1.306-0.463l0.384,0.668
			c-0.141,0.144-0.357,0.267-0.649,0.371c-0.364,0.137-0.77,0.204-1.219,0.204c-0.647,0-1.197-0.222-1.647-0.668
			c-0.503-0.49-0.754-1.151-0.754-1.98c0-0.862,0.258-1.553,0.773-2.073c0.461-0.465,1.006-0.697,1.638-0.697
			c0.733,0,1.307,0.21,1.723,0.629c0.404,0.403,0.606,0.937,0.606,1.604C113.098,43.3,113.073,43.488,113.025,43.661"/>
		<path style="fill:#800000;" d="M110.812,41.641c-0.406,0-0.747,0.134-1.023,0.4c-0.263,0.253-0.412,0.569-0.447,0.946h2.847
			c0-0.374-0.114-0.685-0.346-0.936C111.592,41.778,111.248,41.641,110.812,41.641z M113.025,43.661h-3.706
			c0,0.612,0.165,1.081,0.494,1.409c0.292,0.286,0.667,0.43,1.124,0.43c0.522,0,0.957-0.154,1.306-0.463l0.384,0.668
			c-0.141,0.144-0.357,0.267-0.649,0.371c-0.364,0.137-0.77,0.204-1.219,0.204c-0.647,0-1.197-0.222-1.647-0.668
			c-0.503-0.49-0.754-1.151-0.754-1.98c0-0.862,0.258-1.553,0.773-2.073c0.461-0.465,1.006-0.697,1.638-0.697
			c0.733,0,1.307,0.21,1.723,0.629c0.404,0.403,0.606,0.937,0.606,1.604C113.098,43.3,113.073,43.488,113.025,43.661z"/>
		<path style="fill:#800000;" d="M118.477,46.17v-3.031c0-0.555-0.081-0.943-0.242-1.165c-0.161-0.222-0.431-0.334-0.809-0.334
			c-0.204,0-0.417,0.064-0.639,0.19s-0.392,0.283-0.511,0.467v3.873h-0.892v-5.211h0.611l0.281,0.671
			c0.294-0.512,0.774-0.769,1.441-0.769c1.101,0,1.652,0.695,1.652,2.083v3.227h-0.892C118.477,46.171,118.477,46.17,118.477,46.17z
			"/>
		<path style="fill:#800000;" d="M118.477,46.17v-3.031c0-0.555-0.081-0.943-0.242-1.165c-0.161-0.222-0.431-0.334-0.809-0.334
			c-0.204,0-0.417,0.064-0.639,0.19s-0.392,0.283-0.511,0.467v3.873h-0.892v-5.211h0.611l0.281,0.671
			c0.294-0.512,0.774-0.769,1.441-0.769c1.101,0,1.652,0.695,1.652,2.083v3.227h-0.892C118.477,46.171,118.477,46.17,118.477,46.17z
			"/>
		<polygon style="fill:#800000;" points="84.933,76.115 81.048,70.391 81.048,76.007 80.073,76.007 80.073,68.179 80.484,68.179 
			84.266,73.592 84.266,68.179 85.241,68.179 85.241,76.115 		"/>
		<polygon style="fill:#800000;" points="84.933,76.115 81.048,70.391 81.048,76.007 80.073,76.007 80.073,68.179 80.484,68.179 
			84.266,73.592 84.266,68.179 85.241,68.179 85.241,76.115 		"/>
		<path style="fill:#800000;" d="M89.767,71.175c-0.434,0-0.797,0.142-1.09,0.426c-0.28,0.27-0.439,0.606-0.476,1.007h3.035
			c0-0.398-0.123-0.731-0.369-0.997C90.597,71.321,90.23,71.175,89.767,71.175 M92.126,73.326h-3.952
			c0,0.651,0.176,1.151,0.528,1.501c0.311,0.305,0.71,0.456,1.198,0.456c0.556,0,1.02-0.165,1.392-0.493l0.41,0.711
			c-0.151,0.153-0.381,0.284-0.691,0.395c-0.389,0.146-0.822,0.218-1.3,0.218c-0.689,0-1.274-0.237-1.755-0.712
			c-0.536-0.522-0.804-1.225-0.804-2.108c0-0.918,0.274-1.653,0.824-2.208c0.491-0.495,1.073-0.742,1.745-0.742
			c0.781,0,1.394,0.224,1.837,0.67c0.431,0.43,0.646,0.999,0.646,1.709C92.203,72.942,92.178,73.142,92.126,73.326"/>
		<path style="fill:#800000;" d="M89.767,71.175c-0.434,0-0.797,0.142-1.09,0.426c-0.28,0.27-0.439,0.606-0.476,1.007h3.035
			c0-0.398-0.123-0.731-0.369-0.997C90.597,71.321,90.23,71.175,89.767,71.175z M92.126,73.326h-3.952
			c0,0.651,0.176,1.151,0.528,1.501c0.311,0.305,0.71,0.456,1.198,0.456c0.556,0,1.02-0.165,1.392-0.493l0.41,0.711
			c-0.151,0.153-0.381,0.284-0.691,0.395c-0.389,0.146-0.822,0.218-1.3,0.218c-0.689,0-1.274-0.237-1.755-0.712
			c-0.536-0.522-0.804-1.225-0.804-2.108c0-0.918,0.274-1.653,0.824-2.208c0.491-0.495,1.073-0.742,1.745-0.742
			c0.781,0,1.394,0.224,1.837,0.67c0.431,0.43,0.646,0.999,0.646,1.709C92.203,72.942,92.178,73.142,92.126,73.326z"/>
		<path style="fill:#800000;" d="M94.293,71.231h-0.591v-0.779h0.591v-1.163l0.905-0.378v1.541h1.401v0.779h-1.401v2.761
			c0,0.467,0.072,0.8,0.217,0.997c0.145,0.197,0.377,0.295,0.698,0.295c0.231,0,0.472-0.064,0.719-0.193l0.133,0.867
			c-0.375,0.104-0.786,0.155-1.234,0.155c-0.403,0-0.744-0.163-1.021-0.49c-0.278-0.327-0.417-0.739-0.417-1.237V71.231z"/>
		<path style="fill:#800000;" d="M94.293,71.231h-0.591v-0.779h0.591v-1.163l0.905-0.378v1.541h1.401v0.779h-1.401v2.761
			c0,0.467,0.072,0.8,0.217,0.997c0.145,0.197,0.377,0.295,0.698,0.295c0.231,0,0.472-0.064,0.719-0.193l0.133,0.867
			c-0.375,0.104-0.786,0.155-1.234,0.155c-0.403,0-0.744-0.163-1.021-0.49c-0.278-0.327-0.417-0.739-0.417-1.237V71.231z"/>
		<polygon style="fill:#800000;" points="103.903,76.115 103.645,76.115 102.023,72.335 100.406,76.115 100.148,76.115 
			98.169,70.442 99.219,70.442 100.401,74.087 101.873,70.442 102.131,70.442 103.65,74.087 104.921,70.442 105.887,70.442 		"/>
		<polygon style="fill:#800000;" points="103.903,76.115 103.645,76.115 102.023,72.335 100.406,76.115 100.148,76.115 
			98.169,70.442 99.219,70.442 100.401,74.087 101.873,70.442 102.131,70.442 103.65,74.087 104.921,70.442 105.887,70.442 		"/>
		<path style="fill:#800000;" d="M108.172,73.216c0,1.395,0.484,2.093,1.455,2.093c0.453,0,0.808-0.187,1.065-0.562
			c0.257-0.374,0.385-0.884,0.385-1.532c0-1.378-0.483-2.067-1.45-2.067c-0.442,0-0.795,0.184-1.059,0.551
			C108.304,72.066,108.172,72.572,108.172,73.216 M107.151,73.216c0-0.859,0.228-1.551,0.682-2.08
			c0.454-0.528,1.053-0.792,1.794-0.792c0.783,0,1.39,0.253,1.823,0.761c0.432,0.507,0.648,1.211,0.648,2.111
			c0,0.897-0.221,1.604-0.663,2.122c-0.442,0.517-1.046,0.776-1.808,0.776c-0.78,0-1.387-0.261-1.822-0.784
			C107.369,74.807,107.151,74.102,107.151,73.216"/>
		<path style="fill:#800000;" d="M108.172,73.216c0,1.395,0.484,2.093,1.455,2.093c0.453,0,0.808-0.187,1.065-0.562
			c0.257-0.374,0.385-0.884,0.385-1.532c0-1.378-0.483-2.067-1.45-2.067c-0.442,0-0.795,0.184-1.059,0.551
			C108.304,72.066,108.172,72.572,108.172,73.216z M107.151,73.216c0-0.859,0.228-1.551,0.682-2.08
			c0.454-0.528,1.053-0.792,1.794-0.792c0.783,0,1.39,0.253,1.823,0.761c0.432,0.507,0.648,1.211,0.648,2.111
			c0,0.897-0.221,1.604-0.663,2.122c-0.442,0.517-1.046,0.776-1.808,0.776c-0.78,0-1.387-0.261-1.822-0.784
			C107.369,74.807,107.151,74.102,107.151,73.216z"/>
		<path style="fill:#800000;" d="M116.612,71.396c-0.19-0.148-0.381-0.223-0.574-0.223c-0.309,0-0.579,0.161-0.81,0.482
			c-0.231,0.321-0.347,0.709-0.347,1.16v3.182h-0.872v-5.55h0.872v0.886c0.319-0.661,0.791-0.99,1.42-0.99
			c0.155,0,0.381,0.03,0.675,0.093L116.612,71.396z"/>
		<path style="fill:#800000;" d="M116.612,71.396c-0.19-0.148-0.381-0.223-0.574-0.223c-0.309,0-0.579,0.161-0.81,0.482
			c-0.231,0.321-0.347,0.709-0.347,1.16v3.182h-0.872v-5.55h0.872v0.886c0.319-0.661,0.791-0.99,1.42-0.99
			c0.155,0,0.381,0.03,0.675,0.093L116.612,71.396z"/>
		<polygon style="fill:#800000;" points="121.851,75.999 120.239,73.13 119.443,74.046 119.443,75.999 118.532,75.999 
			118.532,67.918 119.443,67.918 119.443,72.932 121.41,70.267 122.474,70.267 120.83,72.445 122.839,75.999 		"/>
		<polygon style="fill:#800000;" points="121.851,75.999 120.239,73.13 119.443,74.046 119.443,75.999 118.532,75.999 
			118.532,67.918 119.443,67.918 119.443,72.932 121.41,70.267 122.474,70.267 120.83,72.445 122.839,75.999 		"/>
		<rect x="70.834" y="53.815" style="fill:#800000;" width="0.817" height="7.357"/>
		<g>
			<path style="fill:#800000;" d="M77.441,61.172V58.14c0-0.555-0.081-0.943-0.242-1.165c-0.161-0.222-0.431-0.334-0.809-0.334
				c-0.204,0-0.417,0.063-0.639,0.19c-0.222,0.126-0.392,0.283-0.511,0.467v3.873h-0.892V55.96h0.611l0.281,0.671
				c0.294-0.512,0.774-0.769,1.441-0.769c1.101,0,1.652,0.695,1.652,2.083v3.227H77.441z"/>
			<path style="fill:#800000;" d="M77.441,61.172V58.14c0-0.555-0.081-0.943-0.242-1.165c-0.161-0.222-0.431-0.334-0.809-0.334
				c-0.204,0-0.417,0.063-0.639,0.19c-0.222,0.126-0.392,0.283-0.511,0.467v3.873h-0.892V55.96h0.611l0.281,0.671
				c0.294-0.512,0.774-0.769,1.441-0.769c1.101,0,1.652,0.695,1.652,2.083v3.227H77.441z"/>
		</g>
		<polygon style="fill:#800000;" points="89.906,61.181 89.052,56.45 87.48,61.281 87.234,61.281 85.618,56.45 84.784,61.181 
			83.851,61.181 85.196,53.816 85.643,53.816 87.357,59.191 88.938,53.816 89.381,53.816 90.839,61.181 		"/>
		<polygon style="fill:#800000;" points="89.906,61.181 89.052,56.45 87.48,61.281 87.234,61.281 85.618,56.45 84.784,61.181 
			83.851,61.181 85.196,53.816 85.643,53.816 87.357,59.191 88.938,53.816 89.381,53.816 90.839,61.181 		"/>
		<path style="fill:#800000;" d="M93.271,53.756c0.12,0,0.223,0.057,0.307,0.173s0.127,0.254,0.127,0.414
			c0,0.165-0.043,0.305-0.127,0.42c-0.084,0.116-0.187,0.173-0.307,0.173c-0.117,0-0.218-0.057-0.302-0.173
			c-0.085-0.116-0.127-0.256-0.127-0.42c0-0.163,0.042-0.302,0.125-0.417C93.049,53.813,93.152,53.756,93.271,53.756 M92.889,61.172
			v-4.577h-0.541V55.79h1.239v5.382H92.889z"/>
		<path style="fill:#800000;" d="M93.271,53.756c0.12,0,0.223,0.057,0.307,0.173s0.127,0.254,0.127,0.414
			c0,0.165-0.043,0.305-0.127,0.42c-0.084,0.116-0.187,0.173-0.307,0.173c-0.117,0-0.218-0.057-0.302-0.173
			c-0.085-0.116-0.127-0.256-0.127-0.42c0-0.163,0.042-0.302,0.125-0.417C93.049,53.813,93.152,53.756,93.271,53.756z
			 M92.889,61.172v-4.577h-0.541V55.79h1.239v5.382H92.889z"/>
		<path style="fill:#800000;" d="M97.778,56.772c-0.298,0-0.542,0.116-0.73,0.346c-0.189,0.23-0.283,0.51-0.283,0.838
			c0,0.369,0.091,0.674,0.273,0.915c0.182,0.242,0.43,0.363,0.739,0.363c0.305,0,0.543-0.118,0.716-0.353
			c0.172-0.236,0.258-0.544,0.258-0.926c0-0.328-0.093-0.608-0.279-0.838C98.287,56.888,98.056,56.772,97.778,56.772 M95.956,62.845
			l0.466-0.749c0.501,0.364,0.962,0.548,1.385,0.548c0.389,0,0.696-0.074,0.92-0.219c0.225-0.147,0.337-0.328,0.337-0.545
			c0-0.427-0.284-0.642-0.851-0.642c-0.096,0-0.271,0.027-0.524,0.079c-0.253,0.053-0.451,0.079-0.593,0.079
			c-0.688,0-1.031-0.284-1.031-0.849c0-0.174,0.081-0.333,0.242-0.474c0.162-0.141,0.362-0.243,0.6-0.306
			c-0.682-0.348-1.023-0.954-1.023-1.815c0-0.552,0.176-1.012,0.529-1.381c0.354-0.368,0.789-0.552,1.307-0.552
			c0.476,0,0.849,0.106,1.117,0.32l0.43-0.562l0.562,0.577l-0.516,0.425c0.221,0.312,0.33,0.719,0.33,1.223
			c0,0.532-0.153,0.979-0.458,1.341c-0.304,0.362-0.704,0.569-1.198,0.621l-0.711,0.079c-0.084,0.009-0.197,0.046-0.339,0.106
			c-0.142,0.061-0.212,0.14-0.212,0.239c0,0.134,0.147,0.202,0.442,0.202c0.131,0,0.333-0.026,0.607-0.077
			c0.274-0.05,0.477-0.076,0.611-0.076c0.476,0,0.848,0.124,1.115,0.372c0.266,0.249,0.4,0.593,0.4,1.033
			c0,0.487-0.2,0.88-0.6,1.179c-0.399,0.299-0.905,0.449-1.518,0.449c-0.313,0-0.643-0.062-0.99-0.183
			C96.446,63.167,96.167,63.019,95.956,62.845"/>
		<path style="fill:#800000;" d="M97.778,56.772c-0.298,0-0.542,0.116-0.73,0.346c-0.189,0.23-0.283,0.51-0.283,0.838
			c0,0.369,0.091,0.674,0.273,0.915c0.182,0.242,0.43,0.363,0.739,0.363c0.305,0,0.543-0.118,0.716-0.353
			c0.172-0.236,0.258-0.544,0.258-0.926c0-0.328-0.093-0.608-0.279-0.838C98.287,56.888,98.056,56.772,97.778,56.772z
			 M95.956,62.845l0.466-0.749c0.501,0.364,0.962,0.548,1.385,0.548c0.389,0,0.696-0.074,0.92-0.219
			c0.225-0.147,0.337-0.328,0.337-0.545c0-0.427-0.284-0.642-0.851-0.642c-0.096,0-0.271,0.027-0.524,0.079
			c-0.253,0.053-0.451,0.079-0.593,0.079c-0.688,0-1.031-0.284-1.031-0.849c0-0.174,0.081-0.333,0.242-0.474
			c0.162-0.141,0.362-0.243,0.6-0.306c-0.682-0.348-1.023-0.954-1.023-1.815c0-0.552,0.176-1.012,0.529-1.381
			c0.354-0.368,0.789-0.552,1.307-0.552c0.476,0,0.849,0.106,1.117,0.32l0.43-0.562l0.562,0.577l-0.516,0.425
			c0.221,0.312,0.33,0.719,0.33,1.223c0,0.532-0.153,0.979-0.458,1.341c-0.304,0.362-0.704,0.569-1.198,0.621l-0.711,0.079
			c-0.084,0.009-0.197,0.046-0.339,0.106c-0.142,0.061-0.212,0.14-0.212,0.239c0,0.134,0.147,0.202,0.442,0.202
			c0.131,0,0.333-0.026,0.607-0.077c0.274-0.05,0.477-0.076,0.611-0.076c0.476,0,0.848,0.124,1.115,0.372
			c0.266,0.249,0.4,0.593,0.4,1.033c0,0.487-0.2,0.88-0.6,1.179c-0.399,0.299-0.905,0.449-1.518,0.449
			c-0.313,0-0.643-0.062-0.99-0.183C96.446,63.167,96.167,63.019,95.956,62.845z"/>
		<path style="fill:#800000;" d="M104.544,56.851c-0.176-0.139-0.355-0.209-0.535-0.209c-0.288,0-0.539,0.151-0.755,0.452
			c-0.215,0.302-0.322,0.665-0.322,1.09v2.987h-0.812V55.96h0.812v0.832c0.297-0.62,0.737-0.929,1.321-0.929
			c0.145,0,0.355,0.029,0.629,0.088L104.544,56.851z"/>
		<path style="fill:#800000;" d="M104.544,56.851c-0.176-0.139-0.355-0.209-0.535-0.209c-0.288,0-0.539,0.151-0.755,0.452
			c-0.215,0.302-0.322,0.665-0.322,1.09v2.987h-0.812V55.96h0.812v0.832c0.297-0.62,0.737-0.929,1.321-0.929
			c0.145,0,0.355,0.029,0.629,0.088L104.544,56.851z"/>
		<path style="fill:#800000;" d="M109.424,58.618c-0.285-0.064-0.484-0.097-0.599-0.097c-0.456,0-0.828,0.12-1.116,0.361
			s-0.432,0.525-0.432,0.853c0,0.543,0.312,0.815,0.935,0.815c0.456,0,0.86-0.223,1.212-0.669V58.618z M109.509,60.584
			c-0.361,0.465-0.914,0.697-1.658,0.697c-0.399,0-0.745-0.148-1.038-0.446s-0.439-0.667-0.439-1.109
			c0-0.53,0.225-0.978,0.676-1.344c0.452-0.367,1.027-0.549,1.727-0.549c0.19,0,0.406,0.042,0.647,0.126
			c0-0.845-0.368-1.268-1.102-1.268c-0.564,0-0.998,0.156-1.302,0.468l-0.379-0.775c0.17-0.144,0.407-0.266,0.71-0.368
			c0.302-0.103,0.591-0.154,0.866-0.154c0.738,0,1.274,0.173,1.609,0.517c0.334,0.344,0.501,0.892,0.501,1.644v1.872
			c0,0.459,0.133,0.763,0.399,0.916v0.463c-0.368,0-0.643-0.054-0.824-0.161C109.72,61.009,109.589,60.832,109.509,60.584"/>
		<path style="fill:#800000;" d="M109.424,58.618c-0.285-0.064-0.484-0.097-0.599-0.097c-0.456,0-0.828,0.12-1.116,0.361
			s-0.432,0.525-0.432,0.853c0,0.543,0.312,0.815,0.935,0.815c0.456,0,0.86-0.223,1.212-0.669V58.618z M109.509,60.584
			c-0.361,0.465-0.914,0.697-1.658,0.697c-0.399,0-0.745-0.148-1.038-0.446s-0.439-0.667-0.439-1.109
			c0-0.53,0.225-0.978,0.676-1.344c0.452-0.367,1.027-0.549,1.727-0.549c0.19,0,0.406,0.042,0.647,0.126
			c0-0.845-0.368-1.268-1.102-1.268c-0.564,0-0.998,0.156-1.302,0.468l-0.379-0.775c0.17-0.144,0.407-0.266,0.71-0.368
			c0.302-0.103,0.591-0.154,0.866-0.154c0.738,0,1.274,0.173,1.609,0.517c0.334,0.344,0.501,0.892,0.501,1.644v1.872
			c0,0.459,0.133,0.763,0.399,0.916v0.463c-0.368,0-0.643-0.054-0.824-0.161C109.72,61.009,109.589,60.832,109.509,60.584z"/>
		<path style="fill:#800000;" d="M113.092,56.697h-0.551v-0.731h0.551v-1.092l0.845-0.356v1.448h1.307v0.731h-1.307v2.592
			c0,0.439,0.067,0.751,0.202,0.936c0.135,0.184,0.353,0.278,0.651,0.278c0.217,0,0.44-0.061,0.672-0.181l0.124,0.814
			c-0.349,0.098-0.733,0.146-1.152,0.146c-0.376,0-0.693-0.153-0.954-0.46c-0.259-0.307-0.389-0.695-0.389-1.163L113.092,56.697
			L113.092,56.697z"/>
		<path style="fill:#800000;" d="M113.092,56.697h-0.551v-0.731h0.551v-1.092l0.845-0.356v1.448h1.307v0.731h-1.307v2.592
			c0,0.439,0.067,0.751,0.202,0.936c0.135,0.184,0.353,0.278,0.651,0.278c0.217,0,0.44-0.061,0.672-0.181l0.124,0.814
			c-0.349,0.098-0.733,0.146-1.152,0.146c-0.376,0-0.693-0.153-0.954-0.46c-0.259-0.307-0.389-0.695-0.389-1.163L113.092,56.697
			L113.092,56.697z"/>
		<path style="fill:#800000;" d="M118.194,53.756c0.12,0,0.223,0.057,0.307,0.173s0.127,0.254,0.127,0.414
			c0,0.165-0.043,0.305-0.127,0.42c-0.084,0.116-0.187,0.173-0.307,0.173c-0.117,0-0.218-0.057-0.302-0.173
			c-0.085-0.116-0.127-0.256-0.127-0.42c0-0.163,0.042-0.302,0.125-0.417C117.973,53.813,118.074,53.756,118.194,53.756
			 M117.813,61.172v-4.577h-0.541V55.79h1.239v5.382H117.813z"/>
		<path style="fill:#800000;" d="M118.194,53.756c0.12,0,0.223,0.057,0.307,0.173s0.127,0.254,0.127,0.414
			c0,0.165-0.043,0.305-0.127,0.42c-0.084,0.116-0.187,0.173-0.307,0.173c-0.117,0-0.218-0.057-0.302-0.173
			c-0.085-0.116-0.127-0.256-0.127-0.42c0-0.163,0.042-0.302,0.125-0.417C117.973,53.813,118.074,53.756,118.194,53.756z
			 M117.813,61.172v-4.577h-0.541V55.79h1.239v5.382H117.813z"/>
		<path style="fill:#800000;" d="M121.626,58.56c0,1.31,0.455,1.966,1.366,1.966c0.424,0,0.758-0.176,0.998-0.528
			c0.242-0.35,0.362-0.83,0.362-1.438c0-1.295-0.454-1.941-1.36-1.941c-0.416,0-0.747,0.173-0.995,0.517
			C121.749,57.48,121.626,57.956,121.626,58.56 M120.668,58.56c0-0.807,0.214-1.457,0.64-1.953s0.986-0.744,1.683-0.744
			c0.734,0,1.304,0.238,1.709,0.714c0.406,0.476,0.608,1.137,0.608,1.982c0,0.842-0.207,1.506-0.622,1.993
			c-0.416,0.486-0.981,0.728-1.695,0.728c-0.732,0-1.302-0.245-1.71-0.737C120.873,60.055,120.668,59.393,120.668,58.56"/>
		<path style="fill:#800000;" d="M121.626,58.56c0,1.31,0.455,1.966,1.366,1.966c0.424,0,0.758-0.176,0.998-0.528
			c0.242-0.35,0.362-0.83,0.362-1.438c0-1.295-0.454-1.941-1.36-1.941c-0.416,0-0.747,0.173-0.995,0.517
			C121.749,57.48,121.626,57.956,121.626,58.56z M120.668,58.56c0-0.807,0.214-1.457,0.64-1.953s0.986-0.744,1.683-0.744
			c0.734,0,1.304,0.238,1.709,0.714c0.406,0.476,0.608,1.137,0.608,1.982c0,0.842-0.207,1.506-0.622,1.993
			c-0.416,0.486-0.981,0.728-1.695,0.728c-0.732,0-1.302-0.245-1.71-0.737C120.873,60.055,120.668,59.393,120.668,58.56z"/>
		<path style="fill:#800000;" d="M130.442,61.172V58.14c0-0.555-0.081-0.943-0.242-1.165c-0.161-0.222-0.431-0.334-0.809-0.334
			c-0.204,0-0.417,0.063-0.639,0.19c-0.222,0.126-0.392,0.283-0.511,0.467v3.873h-0.892V55.96h0.611l0.281,0.671
			c0.294-0.512,0.774-0.769,1.441-0.769c1.101,0,1.652,0.695,1.652,2.083v3.227C131.334,61.172,130.442,61.172,130.442,61.172z"/>
		<path style="fill:#800000;" d="M130.442,61.172V58.14c0-0.555-0.081-0.943-0.242-1.165c-0.161-0.222-0.431-0.334-0.809-0.334
			c-0.204,0-0.417,0.063-0.639,0.19c-0.222,0.126-0.392,0.283-0.511,0.467v3.873h-0.892V55.96h0.611l0.281,0.671
			c0.294-0.512,0.774-0.769,1.441-0.769c1.101,0,1.652,0.695,1.652,2.083v3.227C131.334,61.172,130.442,61.172,130.442,61.172z"/>
		<polygon style="fill:#800000;" points="83.766,83.787 83.601,83.787 83.065,82.588 82.531,83.787 82.363,83.787 81.628,81.8 
			82.106,81.8 82.499,82.964 82.976,81.8 83.14,81.8 83.633,82.971 84.056,81.8 84.504,81.8 		"/>
		<path style="fill:#800000;" d="M85.12,82.771c0,0.43,0.154,0.644,0.465,0.644c0.141,0,0.254-0.056,0.337-0.167
			c0.083-0.112,0.125-0.271,0.125-0.477c0-0.424-0.154-0.635-0.462-0.635c-0.142,0-0.256,0.055-0.34,0.167S85.12,82.57,85.12,82.771
			 M84.646,82.771c0-0.298,0.086-0.539,0.258-0.727c0.172-0.187,0.398-0.28,0.681-0.28c0.295,0,0.526,0.09,0.69,0.27
			c0.163,0.18,0.245,0.426,0.245,0.738c0,0.311-0.083,0.558-0.25,0.741s-0.396,0.275-0.685,0.275c-0.297,0-0.528-0.093-0.692-0.278
			C84.728,83.324,84.646,83.078,84.646,82.771"/>
		<path style="fill:#800000;" d="M89.144,83.751v-1.222c0-0.256-0.114-0.384-0.344-0.384c-0.068,0-0.133,0.02-0.196,0.06
			c-0.063,0.041-0.109,0.086-0.133,0.139v1.408h-0.455v-1.293c0-0.096-0.03-0.172-0.09-0.229c-0.06-0.056-0.144-0.084-0.251-0.084
			c-0.057,0-0.119,0.021-0.187,0.063c-0.068,0.043-0.117,0.09-0.147,0.141v1.402h-0.455V81.8H87.2l0.092,0.172
			c0.126-0.139,0.29-0.208,0.49-0.208c0.258,0,0.453,0.07,0.585,0.211c0.057-0.064,0.137-0.116,0.238-0.154
			c0.102-0.039,0.204-0.057,0.306-0.057c0.217,0,0.386,0.062,0.508,0.187c0.12,0.124,0.181,0.295,0.181,0.512v1.288H89.144z"/>
		<path style="fill:#800000;" d="M90.455,82.573h0.958c-0.032-0.286-0.189-0.428-0.473-0.428
			C90.68,82.144,90.519,82.287,90.455,82.573 M91.832,82.915h-1.394c0.009,0.155,0.062,0.277,0.161,0.362
			c0.098,0.086,0.23,0.13,0.397,0.13c0.208,0,0.365-0.054,0.474-0.162l0.176,0.348c-0.16,0.131-0.399,0.195-0.718,0.195
			c-0.298,0-0.532-0.086-0.706-0.261c-0.173-0.174-0.259-0.417-0.259-0.728c0-0.308,0.095-0.557,0.285-0.747
			c0.19-0.191,0.418-0.286,0.684-0.286c0.284,0,0.51,0.084,0.682,0.253c0.17,0.168,0.257,0.383,0.257,0.644
			C91.871,82.717,91.858,82.801,91.832,82.915"/>
		<path style="fill:#800000;" d="M93.49,83.751v-1.128c0-0.166-0.032-0.287-0.096-0.364c-0.064-0.076-0.168-0.114-0.313-0.114
			c-0.067,0-0.138,0.019-0.214,0.056c-0.076,0.037-0.135,0.084-0.177,0.14v1.41h-0.455V81.8h0.328l0.083,0.182
			c0.125-0.146,0.307-0.218,0.549-0.218c0.232,0,0.416,0.069,0.55,0.208c0.133,0.139,0.201,0.334,0.201,0.583v1.197L93.49,83.751
			L93.49,83.751z"/>
		<path style="fill:#800000;" d="M94.793,81.043c0.074,0,0.135,0.026,0.187,0.078c0.051,0.051,0.078,0.113,0.078,0.187
			c0,0.072-0.027,0.134-0.078,0.187c-0.051,0.051-0.113,0.077-0.187,0.077c-0.072,0-0.134-0.026-0.187-0.077
			c-0.051-0.053-0.077-0.114-0.077-0.187c0-0.074,0.026-0.135,0.077-0.187C94.659,81.069,94.721,81.043,94.793,81.043
			 M94.559,83.751v-1.577h-0.25V81.8h0.711v1.951H94.559z"/>
		<path style="fill:#800000;" d="M96.805,83.751v-1.128c0-0.166-0.032-0.287-0.096-0.364c-0.064-0.076-0.168-0.114-0.313-0.114
			c-0.067,0-0.138,0.019-0.214,0.056s-0.135,0.084-0.177,0.14v1.41H95.55V81.8h0.328l0.083,0.182
			c0.125-0.146,0.307-0.218,0.549-0.218c0.232,0,0.416,0.069,0.55,0.208c0.133,0.139,0.201,0.334,0.201,0.583v1.197L96.805,83.751
			L96.805,83.751z"/>
		<path style="fill:#800000;" d="M100.011,83.751v-1.222c0-0.256-0.114-0.384-0.344-0.384c-0.068,0-0.133,0.02-0.196,0.06
			c-0.064,0.041-0.109,0.086-0.133,0.139v1.408h-0.455v-1.293c0-0.096-0.03-0.172-0.09-0.229c-0.06-0.056-0.144-0.084-0.251-0.084
			c-0.057,0-0.119,0.021-0.187,0.063c-0.068,0.043-0.117,0.09-0.147,0.141v1.402h-0.455V81.8h0.314l0.092,0.172
			c0.126-0.139,0.29-0.208,0.49-0.208c0.258,0,0.453,0.07,0.585,0.211c0.057-0.064,0.137-0.116,0.238-0.154
			c0.102-0.039,0.204-0.057,0.306-0.057c0.217,0,0.386,0.062,0.508,0.187c0.12,0.124,0.181,0.295,0.181,0.512v1.288H100.011z"/>
		<path style="fill:#800000;" d="M101.314,81.043c0.074,0,0.135,0.026,0.187,0.078c0.051,0.051,0.078,0.113,0.078,0.187
			c0,0.072-0.027,0.134-0.078,0.187c-0.051,0.051-0.113,0.077-0.187,0.077c-0.072,0-0.134-0.026-0.187-0.077
			c-0.051-0.053-0.077-0.114-0.077-0.187c0-0.074,0.026-0.135,0.077-0.187C101.18,81.069,101.242,81.043,101.314,81.043
			 M101.08,83.751v-1.577h-0.25V81.8h0.711v1.951H101.08z"/>
		<path style="fill:#800000;" d="M102.38,82.484c0,0.116,0.032,0.209,0.096,0.278c0.064,0.07,0.149,0.105,0.258,0.105
			c0.107,0,0.191-0.034,0.25-0.102c0.058-0.068,0.086-0.161,0.086-0.281c0-0.098-0.03-0.181-0.093-0.249
			c-0.062-0.068-0.144-0.103-0.243-0.103c-0.105,0-0.189,0.033-0.256,0.099C102.413,82.297,102.38,82.381,102.38,82.484
			 M101.925,84.251l0.288-0.355c0.159,0.146,0.336,0.218,0.531,0.218c0.132,0,0.239-0.02,0.325-0.058
			c0.085-0.039,0.127-0.092,0.127-0.16c0-0.116-0.093-0.174-0.283-0.174c-0.05,0-0.126,0.007-0.228,0.019
			c-0.1,0.012-0.176,0.019-0.228,0.019c-0.313,0-0.469-0.113-0.469-0.337c0-0.064,0.026-0.127,0.078-0.189
			c0.051-0.062,0.113-0.107,0.182-0.137c-0.223-0.145-0.334-0.349-0.334-0.614c0-0.209,0.077-0.382,0.23-0.518
			c0.153-0.137,0.341-0.204,0.565-0.204c0.174,0,0.321,0.033,0.439,0.098l0.179-0.208l0.314,0.286l-0.216,0.159
			c0.075,0.113,0.113,0.249,0.113,0.404c0,0.222-0.068,0.399-0.203,0.533c-0.135,0.132-0.307,0.198-0.514,0.198
			c-0.033,0-0.076-0.002-0.131-0.009l-0.075-0.011c-0.008,0-0.041,0.013-0.097,0.04c-0.057,0.026-0.085,0.053-0.085,0.081
			c0,0.049,0.042,0.074,0.126,0.074c0.037,0,0.1-0.009,0.189-0.028c0.089-0.019,0.165-0.027,0.228-0.027
			c0.442,0,0.664,0.177,0.664,0.533c0,0.196-0.088,0.351-0.265,0.463s-0.391,0.168-0.642,0.168
			C102.437,84.515,102.166,84.428,101.925,84.251"/>
		<path style="fill:#800000;" d="M105.071,82.224c-0.082-0.054-0.17-0.081-0.267-0.081c-0.106,0-0.2,0.048-0.281,0.145
			c-0.083,0.096-0.124,0.212-0.124,0.351v1.111h-0.455V81.8h0.455v0.177c0.127-0.142,0.298-0.215,0.509-0.215
			c0.155,0,0.274,0.023,0.356,0.071L105.071,82.224z"/>
		<path style="fill:#800000;" d="M106.463,82.833c-0.078-0.016-0.137-0.025-0.175-0.025c-0.36,0-0.539,0.118-0.539,0.354
			c0,0.175,0.102,0.263,0.304,0.263c0.274,0,0.411-0.137,0.411-0.41L106.463,82.833L106.463,82.833z M106.506,83.556
			c-0.041,0.068-0.113,0.124-0.216,0.167c-0.103,0.043-0.21,0.064-0.321,0.064c-0.21,0-0.376-0.053-0.496-0.158
			s-0.18-0.253-0.18-0.447c0-0.225,0.084-0.403,0.254-0.53c0.169-0.127,0.41-0.191,0.721-0.191c0.054,0,0.117,0.009,0.189,0.028
			c0-0.23-0.145-0.344-0.434-0.344c-0.172,0-0.315,0.028-0.431,0.085l-0.098-0.354c0.156-0.075,0.343-0.112,0.559-0.112
			c0.298,0,0.516,0.068,0.654,0.203c0.139,0.135,0.208,0.391,0.208,0.769v0.417c0,0.26,0.053,0.424,0.156,0.49
			c-0.037,0.065-0.079,0.106-0.125,0.121c-0.047,0.015-0.099,0.022-0.159,0.022c-0.065,0-0.125-0.025-0.176-0.072
			C106.56,83.665,106.525,83.613,106.506,83.556"/>
		<path style="fill:#800000;" d="M107.477,82.166h-0.227V81.8h0.226v-0.398l0.455-0.167V81.8h0.536v0.365h-0.536v0.855
			c0,0.14,0.022,0.238,0.065,0.295c0.044,0.058,0.12,0.088,0.23,0.088c0.109,0,0.211-0.03,0.306-0.09v0.419
			c-0.106,0.036-0.257,0.055-0.452,0.055s-0.343-0.055-0.448-0.165c-0.104-0.11-0.156-0.267-0.156-0.469L107.477,82.166
			L107.477,82.166z"/>
		<path style="fill:#800000;" d="M109.243,81.043c0.074,0,0.135,0.026,0.187,0.078c0.051,0.051,0.077,0.113,0.077,0.187
			c0,0.072-0.026,0.134-0.077,0.187c-0.051,0.051-0.113,0.077-0.187,0.077c-0.072,0-0.134-0.026-0.187-0.077
			c-0.051-0.053-0.077-0.114-0.077-0.187c0-0.074,0.026-0.135,0.077-0.187C109.109,81.069,109.171,81.043,109.243,81.043
			 M109.009,83.751v-1.577h-0.25V81.8h0.711v1.951H109.009z"/>
		<path style="fill:#800000;" d="M110.346,82.771c0,0.43,0.154,0.644,0.465,0.644c0.141,0,0.254-0.056,0.337-0.167
			c0.083-0.112,0.125-0.271,0.125-0.477c0-0.424-0.154-0.635-0.462-0.635c-0.142,0-0.256,0.055-0.34,0.167
			S110.346,82.57,110.346,82.771 M109.872,82.771c0-0.298,0.086-0.539,0.258-0.727c0.172-0.187,0.398-0.28,0.681-0.28
			c0.295,0,0.526,0.09,0.69,0.27c0.163,0.18,0.245,0.426,0.245,0.738c0,0.311-0.083,0.558-0.25,0.741s-0.396,0.275-0.685,0.275
			c-0.297,0-0.528-0.093-0.692-0.278C109.954,83.324,109.872,83.078,109.872,82.771"/>
		<path style="fill:#800000;" d="M113.366,83.751v-1.128c0-0.166-0.032-0.287-0.096-0.364c-0.064-0.076-0.168-0.114-0.313-0.114
			c-0.067,0-0.138,0.019-0.214,0.056s-0.135,0.084-0.177,0.14v1.41h-0.455V81.8h0.328l0.083,0.182
			c0.125-0.146,0.307-0.218,0.549-0.218c0.232,0,0.416,0.069,0.55,0.208c0.133,0.139,0.201,0.334,0.201,0.583v1.197L113.366,83.751
			L113.366,83.751z"/>
		<path style="fill:#800000;" d="M114.384,83.512c0-0.091,0.032-0.168,0.096-0.232s0.141-0.096,0.232-0.096s0.168,0.031,0.232,0.096
			c0.063,0.064,0.096,0.141,0.096,0.232s-0.033,0.169-0.096,0.233c-0.064,0.064-0.141,0.096-0.232,0.096s-0.168-0.032-0.232-0.096
			S114.384,83.603,114.384,83.512"/>
		<path style="fill:#800000;" d="M116.029,82.771c0,0.43,0.154,0.644,0.465,0.644c0.141,0,0.254-0.056,0.337-0.167
			c0.083-0.112,0.125-0.271,0.125-0.477c0-0.424-0.154-0.635-0.462-0.635c-0.142,0-0.256,0.055-0.34,0.167
			S116.029,82.57,116.029,82.771 M115.555,82.771c0-0.298,0.086-0.539,0.258-0.727c0.172-0.187,0.398-0.28,0.681-0.28
			c0.295,0,0.526,0.09,0.69,0.27c0.163,0.18,0.245,0.426,0.245,0.738c0,0.311-0.083,0.558-0.25,0.741s-0.396,0.275-0.685,0.275
			c-0.297,0-0.528-0.093-0.692-0.278C115.637,83.324,115.555,83.078,115.555,82.771"/>
		<path style="fill:#800000;" d="M118.921,82.224c-0.082-0.054-0.17-0.081-0.267-0.081c-0.106,0-0.2,0.048-0.281,0.145
			c-0.083,0.096-0.124,0.212-0.124,0.351v1.111h-0.455V81.8h0.455v0.177c0.128-0.142,0.298-0.215,0.509-0.215
			c0.155,0,0.274,0.023,0.356,0.071L118.921,82.224z"/>
		<path style="fill:#800000;" d="M119.697,82.484c0,0.116,0.032,0.209,0.096,0.278c0.064,0.07,0.149,0.105,0.258,0.105
			c0.107,0,0.191-0.034,0.25-0.102c0.058-0.068,0.086-0.161,0.086-0.281c0-0.098-0.03-0.181-0.093-0.249
			c-0.062-0.068-0.144-0.103-0.243-0.103c-0.105,0-0.189,0.033-0.256,0.099C119.73,82.297,119.697,82.381,119.697,82.484
			 M119.242,84.251l0.288-0.355c0.159,0.146,0.336,0.218,0.531,0.218c0.132,0,0.239-0.02,0.325-0.058
			c0.085-0.039,0.127-0.092,0.127-0.16c0-0.116-0.093-0.174-0.283-0.174c-0.05,0-0.126,0.007-0.228,0.019
			c-0.1,0.012-0.176,0.019-0.228,0.019c-0.313,0-0.469-0.113-0.469-0.337c0-0.064,0.026-0.127,0.078-0.189
			c0.051-0.062,0.113-0.107,0.182-0.137c-0.223-0.145-0.334-0.349-0.334-0.614c0-0.209,0.077-0.382,0.23-0.518
			c0.153-0.137,0.341-0.204,0.565-0.204c0.174,0,0.321,0.033,0.439,0.098l0.179-0.208l0.314,0.286l-0.216,0.159
			c0.075,0.113,0.113,0.249,0.113,0.404c0,0.222-0.068,0.399-0.203,0.533c-0.135,0.132-0.307,0.198-0.514,0.198
			c-0.033,0-0.076-0.002-0.131-0.009l-0.075-0.011c-0.008,0-0.041,0.013-0.097,0.04c-0.057,0.026-0.085,0.053-0.085,0.081
			c0,0.049,0.042,0.074,0.126,0.074c0.037,0,0.1-0.009,0.189-0.028c0.089-0.019,0.165-0.027,0.228-0.027
			c0.444,0,0.664,0.177,0.664,0.533c0,0.196-0.088,0.351-0.265,0.463s-0.391,0.168-0.642,0.168
			C119.754,84.515,119.483,84.428,119.242,84.251"/>
	</g>
</g>
<g>
	<path style="fill:#800000;" d="M39.011,25.219c0,0.11-0.042,0.202-0.127,0.275c-0.084,0.073-0.185,0.11-0.302,0.11
		c-0.184,0-0.312-0.088-0.385-0.264l-0.781-1.782h-4.147l-0.792,1.782c-0.073,0.176-0.202,0.264-0.385,0.264
		c-0.117,0-0.22-0.039-0.308-0.116c-0.088-0.077-0.132-0.17-0.132-0.28c0-0.059,0.015-0.117,0.044-0.176l3.146-6.996
		c0.044-0.103,0.11-0.179,0.198-0.231c0.088-0.051,0.183-0.077,0.286-0.077c0.11,0,0.209,0.027,0.297,0.083
		c0.088,0.055,0.154,0.13,0.198,0.225l3.146,6.996C38.996,25.091,39.011,25.153,39.011,25.219z M33.599,22.81h3.487l-1.749-3.949
		L33.599,22.81z"/>
	<path style="fill:#800000;" d="M43.246,25.478c-0.081-0.084-0.121-0.196-0.121-0.336v-6.908c0-0.132,0.042-0.238,0.126-0.319
		c0.084-0.081,0.196-0.121,0.335-0.121h2.607c0.814,0,1.447,0.198,1.897,0.594c0.451,0.396,0.677,0.957,0.677,1.683
		c0,0.726-0.228,1.291-0.682,1.694C47.631,22.168,47,22.37,46.194,22.37h-2.167v2.772c0,0.14-0.04,0.251-0.121,0.336
		c-0.081,0.084-0.19,0.126-0.33,0.126C43.437,25.604,43.327,25.562,43.246,25.478z M46.106,21.622c1.181,0,1.771-0.517,1.771-1.551
		c0-1.019-0.59-1.529-1.771-1.529h-2.079v3.08C44.027,21.622,46.106,21.622,46.106,21.622z"/>
	<path style="fill:#800000;" d="M50.946,24.845c-0.521-0.528-0.781-1.305-0.781-2.332v-4.312c0-0.139,0.041-0.251,0.121-0.335
		c0.081-0.084,0.19-0.126,0.33-0.126c0.132,0,0.238,0.042,0.319,0.126c0.081,0.084,0.121,0.196,0.121,0.335v4.389
		c0,0.755,0.185,1.324,0.556,1.705c0.37,0.381,0.915,0.572,1.633,0.572s1.261-0.19,1.628-0.572c0.367-0.382,0.55-0.95,0.55-1.705
		v-4.389c0-0.139,0.042-0.251,0.126-0.335c0.084-0.084,0.192-0.126,0.324-0.126c0.139,0,0.25,0.042,0.33,0.126
		c0.081,0.084,0.121,0.196,0.121,0.335v4.312c0,1.02-0.262,1.795-0.787,2.327c-0.525,0.532-1.289,0.797-2.293,0.797
		C52.233,25.637,51.466,25.373,50.946,24.845z"/>
	<path style="fill:#800000;" d="M63.623,22.227c0.246,0.323,0.369,0.726,0.369,1.21c0,0.682-0.224,1.204-0.671,1.567
		c-0.448,0.363-1.082,0.544-1.903,0.544h-2.772c-0.139,0-0.251-0.04-0.335-0.121s-0.126-0.187-0.126-0.319v-6.874
		c0-0.132,0.042-0.238,0.126-0.319c0.084-0.081,0.196-0.121,0.335-0.121h2.651c0.799,0,1.419,0.176,1.859,0.528
		c0.44,0.352,0.66,0.851,0.66,1.496c0,0.418-0.108,0.777-0.324,1.078s-0.519,0.524-0.908,0.671
		C63.031,21.684,63.377,21.904,63.623,22.227z M59.075,21.237h2.09c0.579,0,1.018-0.117,1.314-0.352
		c0.297-0.234,0.446-0.576,0.446-1.023c0-0.88-0.587-1.32-1.76-1.32h-2.09C59.075,18.542,59.075,21.237,59.075,21.237z
		 M62.677,24.465c0.29-0.224,0.434-0.574,0.434-1.05c0-0.954-0.594-1.43-1.782-1.43h-2.255v2.816h2.255
		C61.938,24.801,62.387,24.689,62.677,24.465z"/>
	<path style="fill:#800000;" d="M65.724,25.433c-0.084-0.077-0.126-0.178-0.126-0.302v-6.93c0-0.139,0.04-0.251,0.121-0.335
		c0.081-0.084,0.19-0.126,0.33-0.126c0.139,0,0.249,0.042,0.33,0.126c0.08,0.084,0.121,0.196,0.121,0.335v6.578h3.553
		c0.132,0,0.234,0.033,0.308,0.099c0.073,0.066,0.11,0.161,0.11,0.286s-0.037,0.22-0.11,0.286c-0.074,0.066-0.176,0.099-0.308,0.099
		h-4.015C65.913,25.549,65.808,25.51,65.724,25.433z"/>
	<path style="fill:#800000;" d="M71.659,25.478c-0.081-0.084-0.121-0.196-0.121-0.336v-6.941c0-0.139,0.04-0.251,0.121-0.335
		c0.081-0.084,0.19-0.126,0.33-0.126c0.139,0,0.249,0.042,0.33,0.126c0.081,0.084,0.121,0.196,0.121,0.335v6.941
		c0,0.14-0.04,0.251-0.121,0.336c-0.081,0.084-0.19,0.126-0.33,0.126C71.849,25.604,71.739,25.562,71.659,25.478z"/>
	<path style="fill:#800000;" d="M75.739,25.158c-0.535-0.319-0.948-0.777-1.237-1.375c-0.29-0.598-0.435-1.303-0.435-2.117
		c0-0.807,0.145-1.509,0.435-2.106s0.702-1.056,1.237-1.375c0.536-0.319,1.17-0.479,1.903-0.479c0.491,0,0.955,0.079,1.392,0.236
		c0.436,0.158,0.816,0.384,1.138,0.677c0.117,0.11,0.176,0.239,0.176,0.385c0,0.103-0.029,0.192-0.088,0.27
		c-0.059,0.077-0.128,0.115-0.209,0.115c-0.088,0-0.194-0.04-0.319-0.121c-0.374-0.293-0.713-0.499-1.018-0.616
		c-0.305-0.117-0.654-0.176-1.05-0.176c-0.851,0-1.505,0.277-1.963,0.831c-0.458,0.554-0.688,1.34-0.688,2.36
		c0,1.026,0.229,1.817,0.688,2.37c0.458,0.554,1.112,0.831,1.963,0.831c0.389,0,0.737-0.059,1.045-0.176
		c0.308-0.117,0.649-0.323,1.023-0.616c0.125-0.081,0.231-0.121,0.319-0.121c0.081,0,0.15,0.037,0.209,0.11
		c0.059,0.073,0.088,0.165,0.088,0.275c0,0.147-0.059,0.275-0.176,0.385c-0.323,0.293-0.702,0.519-1.138,0.677
		c-0.437,0.158-0.9,0.236-1.392,0.236C76.909,25.637,76.275,25.478,75.739,25.158z"/>
	<path style="fill:#800000;" d="M88.334,25.219c0,0.11-0.042,0.202-0.127,0.275c-0.084,0.073-0.185,0.11-0.302,0.11
		c-0.184,0-0.312-0.088-0.385-0.264l-0.781-1.782h-4.147L81.8,25.34c-0.073,0.176-0.202,0.264-0.385,0.264
		c-0.117,0-0.22-0.039-0.308-0.116c-0.088-0.077-0.132-0.17-0.132-0.28c0-0.059,0.015-0.117,0.044-0.176l3.146-6.996
		c0.044-0.103,0.11-0.179,0.198-0.231c0.088-0.051,0.183-0.077,0.286-0.077c0.11,0,0.209,0.027,0.297,0.083
		c0.088,0.055,0.154,0.13,0.198,0.225l3.146,6.996C88.319,25.091,88.334,25.153,88.334,25.219z M82.922,22.81h3.487l-1.749-3.949
		L82.922,22.81z"/>
	<path style="fill:#800000;" d="M90.694,25.478c-0.084-0.084-0.126-0.196-0.126-0.336v-6.578h-2.365
		c-0.132,0-0.235-0.033-0.308-0.099s-0.11-0.161-0.11-0.286s0.037-0.22,0.11-0.286c0.073-0.066,0.176-0.099,0.308-0.099h5.643
		c0.132,0,0.235,0.033,0.308,0.099s0.11,0.161,0.11,0.286s-0.037,0.22-0.11,0.286s-0.176,0.099-0.308,0.099H91.48v6.578
		c0,0.14-0.041,0.251-0.121,0.336c-0.081,0.084-0.191,0.126-0.33,0.126S90.778,25.562,90.694,25.478z"/>
	<path style="fill:#800000;" d="M95.396,25.478c-0.081-0.084-0.121-0.196-0.121-0.336v-6.941c0-0.139,0.04-0.251,0.121-0.335
		c0.081-0.084,0.19-0.126,0.33-0.126c0.139,0,0.249,0.042,0.33,0.126c0.081,0.084,0.121,0.196,0.121,0.335v6.941
		c0,0.14-0.04,0.251-0.121,0.336c-0.081,0.084-0.19,0.126-0.33,0.126C95.587,25.604,95.477,25.562,95.396,25.478z"/>
	<path style="fill:#800000;" d="M99.461,25.153c-0.532-0.323-0.94-0.781-1.227-1.375s-0.429-1.294-0.429-2.101
		c0-0.814,0.141-1.52,0.424-2.117c0.282-0.598,0.689-1.056,1.221-1.375s1.161-0.479,1.887-0.479s1.354,0.159,1.886,0.479
		c0.532,0.319,0.939,0.777,1.221,1.375c0.282,0.598,0.423,1.3,0.423,2.106s-0.143,1.509-0.429,2.106
		c-0.286,0.598-0.695,1.058-1.227,1.38c-0.532,0.323-1.157,0.484-1.875,0.484C100.618,25.637,99.992,25.476,99.461,25.153z
		 M103.256,24.036c0.458-0.553,0.688-1.344,0.688-2.37c0-1.027-0.228-1.815-0.682-2.365s-1.096-0.825-1.925-0.825
		c-0.822,0-1.461,0.277-1.919,0.831c-0.458,0.554-0.688,1.34-0.688,2.36c0,1.019,0.229,1.808,0.688,2.365
		c0.458,0.558,1.098,0.836,1.919,0.836C102.158,24.867,102.797,24.59,103.256,24.036z"/>
	<path style="fill:#800000;" d="M112.6,17.865c0.073,0.084,0.11,0.196,0.11,0.335v6.941c0,0.14-0.039,0.251-0.115,0.336
		c-0.077,0.084-0.186,0.126-0.325,0.126s-0.26-0.062-0.363-0.187l-4.565-6.105v5.83c0,0.14-0.039,0.251-0.116,0.336
		c-0.077,0.084-0.182,0.126-0.313,0.126s-0.235-0.042-0.308-0.126s-0.11-0.196-0.11-0.336v-6.94c0-0.139,0.039-0.251,0.115-0.335
		c0.077-0.084,0.186-0.126,0.325-0.126c0.146,0,0.271,0.062,0.374,0.187l4.554,6.105v-5.83c0-0.139,0.038-0.251,0.115-0.335
		c0.077-0.084,0.182-0.126,0.313-0.126C112.424,17.739,112.527,17.781,112.6,17.865z"/>
	<path style="fill:#800000;" d="M122.901,22.227c0.246,0.323,0.369,0.726,0.369,1.21c0,0.682-0.224,1.204-0.671,1.567
		c-0.448,0.363-1.082,0.544-1.903,0.544h-2.772c-0.139,0-0.251-0.04-0.335-0.121s-0.126-0.187-0.126-0.319v-6.874
		c0-0.132,0.042-0.238,0.126-0.319c0.084-0.081,0.196-0.121,0.335-0.121h2.651c0.799,0,1.419,0.176,1.859,0.528
		c0.44,0.352,0.66,0.851,0.66,1.496c0,0.418-0.108,0.777-0.324,1.078s-0.52,0.524-0.908,0.671
		C122.309,21.684,122.656,21.904,122.901,22.227z M118.353,21.237h2.09c0.579,0,1.018-0.117,1.314-0.352
		c0.297-0.234,0.446-0.576,0.446-1.023c0-0.88-0.587-1.32-1.76-1.32h-2.09V21.237z M121.956,24.465
		c0.29-0.224,0.434-0.574,0.434-1.05c0-0.954-0.594-1.43-1.782-1.43h-2.255v2.816h2.255
		C121.216,24.801,121.666,24.689,121.956,24.465z"/>
	<path style="fill:#800000;" d="M129.892,17.75c0.104,0,0.195,0.04,0.275,0.121c0.08,0.081,0.121,0.18,0.121,0.297
		c0,0.11-0.033,0.202-0.1,0.275l-2.671,3.377v3.322c0,0.147-0.043,0.261-0.127,0.341s-0.193,0.121-0.324,0.121
		c-0.133,0-0.24-0.041-0.324-0.121c-0.085-0.081-0.127-0.194-0.127-0.341v-3.333l-2.673-3.366c-0.073-0.081-0.11-0.172-0.11-0.275
		c0-0.117,0.042-0.216,0.126-0.297s0.182-0.121,0.292-0.121c0.125,0,0.231,0.055,0.319,0.165l2.507,3.201l2.498-3.201
		C129.661,17.805,129.767,17.75,129.892,17.75z"/>
</g>
</svg>
