<?xml version="1.0" encoding="utf-8"?>
<!-- Generator: Adobe Illustrator 24.0.2, SVG Export Plug-In . SVG Version: 6.00 Build 0)  -->
<svg version="1.1" id="Capa_1" xmlns="http://www.w3.org/2000/svg" xmlns:xlink="http://www.w3.org/1999/xlink" x="0px" y="0px"
	 width="250px" height="70px" viewBox="0 0 250 70" style="enable-background:new 0 0 250 70;" xml:space="preserve">
<g>
	<g>
		<path style="fill:#005597;" d="M159.83,44.575c-1.272-0.721-3.037-1.176-4.479-1.176c-2.866,0-4.936,1.898-4.936,4.802
			c0,2.771,1.538,3.378,3.873,4.043c0.797,0.228,2.259,0.588,2.259,1.632c0,1.006-0.93,1.443-1.803,1.443
			c-1.272,0-2.373-0.665-3.303-1.481l-1.594,2.999c1.461,1.025,3.227,1.632,5.03,1.632c1.442,0,2.941-0.398,4.061-1.348
			c1.139-0.968,1.481-2.429,1.481-3.852c0-2.316-1.538-3.322-3.531-3.91l-0.949-0.285c-0.645-0.209-1.651-0.531-1.651-1.367
			c0-0.798,0.911-1.196,1.594-1.196c0.911,0,1.784,0.38,2.468,0.949L159.83,44.575z"/>
		<polygon style="fill:#005597;" points="165.914,46.928 168.989,46.928 168.989,43.777 159.119,43.777 159.119,46.928 
			162.194,46.928 162.194,58.089 165.914,58.089 		"/>
		<rect x="169.325" y="43.777" style="fill:#005597;" width="3.72" height="14.311"/>
		<polygon style="fill:#005597;" points="181.732,46.928 181.732,43.777 173.513,43.777 173.513,58.089 177.234,58.089 
			177.234,52.471 181.314,52.471 181.314,49.32 177.234,49.32 177.234,46.928 		"/>
		<polygon style="fill:#005597;" points="188.673,46.928 191.747,46.928 191.747,43.777 181.878,43.777 181.878,46.928 
			184.953,46.928 184.953,58.089 188.673,58.089 		"/>
		<g>
			<path style="fill:#005597;" d="M200.777,43.777v7.536c0,1.86-0.133,3.891-2.525,3.891s-2.524-2.031-2.524-3.891v-7.535h-3.719
				v8.048c0,1.841,0.075,3.664,1.499,5.049c1.195,1.177,3.074,1.594,4.744,1.594s3.549-0.417,4.745-1.594
				c1.423-1.385,1.499-3.208,1.499-5.049v-8.048L200.777,43.777L200.777,43.777z"/>
		</g>
		<polygon style="fill:#005597;" points="204.889,58.089 208.609,58.089 208.609,49.32 208.646,49.32 215.461,58.089 
			219.181,58.089 219.181,43.777 215.461,43.777 215.461,52.527 215.423,52.527 208.609,43.777 204.889,43.777 		"/>
		<g>
			<path style="fill:#005597;" d="M225.971,50.098v2.924h3.037c-0.152,1.651-1.386,2.486-2.999,2.486
				c-2.448,0-3.777-2.259-3.777-4.48c0-2.183,1.271-4.517,3.719-4.517c1.499,0,2.582,0.911,3.094,2.278l3.531-1.48
				c-1.234-2.677-3.511-4.005-6.454-4.005c-4.612,0-7.763,3.056-7.763,7.706c0,4.498,3.133,7.554,7.631,7.554
				c2.391,0,4.498-0.854,5.902-2.809c1.272-1.784,1.423-3.568,1.461-5.656L225.971,50.098L225.971,50.098z"/>
		</g>
		<polygon style="fill:#005597;" points="158.635,30.566 158.635,27.415 150.492,27.415 150.492,41.726 158.635,41.726 
			158.635,38.576 154.212,38.576 154.212,36.108 158.407,36.108 158.407,32.957 154.212,32.957 154.212,30.566 		"/>
		<g>
			<path style="fill:#005597;" d="M162.766,30.262h0.266c1.006,0,2.164,0.075,2.164,1.385c0,1.214-1.025,1.385-2.012,1.385h-0.418
				C162.766,33.032,162.766,30.262,162.766,30.262z M164.778,41.726c2.619,0,5.182-0.987,5.182-3.986
				c0-1.993-0.874-3.379-2.923-3.644v-0.038c1.158-0.588,1.575-1.632,1.575-2.923c0-2.733-1.708-3.72-4.251-3.72h-5.315v14.311
				C159.046,41.726,164.778,41.726,164.778,41.726z M162.766,35.804h0.38c1.214,0,3.056-0.171,3.056,1.556
				c0,1.576-1.86,1.519-2.961,1.519h-0.474v-3.075H162.766z"/>
		</g>
		<polygon style="fill:#005597;" points="177.393,30.566 177.393,27.415 169.251,27.415 169.251,41.726 177.393,41.726 
			177.393,38.576 172.971,38.576 172.971,36.108 177.166,36.108 177.166,32.957 172.971,32.957 172.971,30.566 		"/>
		<g>
			<path style="fill:#005597;" d="M181.525,30.262h0.36c1.215,0,2.582,0.228,2.582,1.784c0,1.556-1.367,1.784-2.582,1.784h-0.36
				V30.262z M185.207,35.861c2.031-0.361,3.132-2.069,3.132-4.043c0-3.056-2.145-4.404-4.973-4.404h-5.561v14.311h3.72v-5.503h0.038
				l3.511,5.503h4.631L185.207,35.861z"/>
		</g>
		<polygon style="fill:#005597;" points="195.47,30.566 198.545,30.566 198.545,27.415 188.676,27.415 188.676,30.566 
			191.751,30.566 191.751,41.726 195.47,41.726 		"/>
		<polygon style="fill:#005597;" points="158.71,14.203 158.71,11.052 150.492,11.052 150.492,25.363 154.212,25.363 
			154.212,19.746 158.293,19.746 158.293,16.595 154.212,16.595 154.212,14.203 		"/>
		<g>
			<path style="fill:#005597;" d="M162.618,13.899h0.36c1.215,0,2.582,0.227,2.582,1.784c0,1.556-1.367,1.784-2.582,1.784h-0.36
				V13.899z M166.3,19.499c2.031-0.361,3.132-2.069,3.132-4.043c0-3.056-2.145-4.403-4.973-4.403h-5.562v14.31h3.72v-5.504h0.038
				l3.511,5.504h4.631L166.3,19.499z"/>
		</g>
		<rect x="169.731" y="11.052" style="fill:#005597;" width="3.72" height="14.31"/>
		<polygon style="fill:#005597;" points="182.142,14.203 182.142,11.052 173.999,11.052 173.999,25.363 182.142,25.363 
			182.142,22.213 177.72,22.213 177.72,19.746 181.915,19.746 181.915,16.595 177.72,16.595 177.72,14.203 		"/>
		<g>
			<path style="fill:#005597;" d="M186.274,14.203h0.873c2.392,0,4.081,1.443,4.081,4.004c0,2.791-1.898,4.005-4.119,4.005h-0.835
				L186.274,14.203L186.274,14.203z M182.553,25.363h5.276c3.967,0,7.27-3.132,7.27-7.156s-3.284-7.155-7.27-7.155h-5.276V25.363z"
				/>
			<path style="fill:#005597;" d="M198.099,13.899h0.361c1.214,0,2.581,0.227,2.581,1.784c0,1.556-1.367,1.784-2.581,1.784h-0.361
				V13.899z M201.781,19.499c2.031-0.361,3.132-2.069,3.132-4.043c0-3.056-2.145-4.403-4.973-4.403h-5.561v14.31h3.719v-5.504h0.038
				l3.511,5.504h4.631L201.781,19.499z"/>
		</g>
		<rect x="205.213" y="11.052" style="fill:#005597;" width="3.72" height="14.31"/>
		<g>
			<path style="fill:#005597;" d="M219.332,11.394c-1.101-0.456-2.201-0.721-3.398-0.721c-2.011,0-4.043,0.873-5.446,2.316
				c-1.367,1.405-2.108,3.284-2.108,5.238c0,2.125,0.721,3.986,2.297,5.409c1.481,1.348,3.379,2.108,5.371,2.108
				c1.158,0,2.05-0.285,3.284-0.665v-4.46c-0.778,0.93-1.993,1.519-3.208,1.519c-2.316,0-3.872-1.632-3.872-3.892
				c0-2.22,1.538-3.966,3.815-3.966c1.271,0,2.505,0.551,3.264,1.576L219.332,11.394L219.332,11.394z"/>
		</g>
		<polygon style="fill:#005597;" points="223.466,16.575 223.466,11.052 219.747,11.052 219.747,25.363 223.466,25.363 
			223.466,19.499 228.838,19.499 228.838,25.363 232.558,25.363 232.558,11.052 228.838,11.052 228.838,16.575 		"/>
		<line style="fill:none;stroke:#005597;stroke-width:1.11;" x1="197.526" y1="34.193" x2="214.523" y2="34.193"/>
		<line style="fill:none;stroke:#005597;stroke-width:1.11;" x1="197.935" y1="36.893" x2="214.113" y2="36.893"/>
		<line style="fill:none;stroke:#005597;stroke-width:1.11;" x1="199.437" y1="39.593" x2="212.611" y2="39.593"/>
		<line style="fill:none;stroke:#005597;stroke-width:1.11;" x1="197.867" y1="32.101" x2="214.249" y2="32.101"/>
		<line style="fill:none;stroke:#005597;stroke-width:1.11;" x1="200.154" y1="28.59" x2="211.922" y2="28.59"/>
		<line style="fill:none;stroke:#005597;stroke-width:1.11;" x1="201.773" y1="27.308" x2="210.277" y2="27.308"/>
		<line style="fill:none;stroke:#005597;stroke-width:1.11;" x1="198.873" y1="30.278" x2="213.431" y2="30.278"/>
		<g>
			<path style="fill:none;stroke:#005597;stroke-width:1.11;" d="M197.791,34.326c0-4.498,3.703-8.201,8.202-8.201
				c4.564,0,8.334,3.703,8.334,8.201c0,4.564-3.77,8.267-8.334,8.267C201.494,42.593,197.791,38.889,197.791,34.326z
				 M205.992,42.526V26.919 M202.619,30.358l3.374-3.439l3.44,3.439"/>
		</g>
	</g>
	<g>
		<path style="fill:none;stroke:#B88F3D;stroke-width:0.75;stroke-linecap:round;stroke-linejoin:round;stroke-miterlimit:10;" d="
			M74.07,43.341c0,9.074-7.934,16.43-17.72,16.43c-9.788,0-17.72-7.356-17.72-16.43c0-9.073,7.933-16.429,17.72-16.429
			C66.135,26.911,74.07,34.267,74.07,43.341z M70.572,43.341c0,7.284-6.367,13.188-14.223,13.188s-14.225-5.903-14.225-13.188
			c0-7.283,6.368-13.187,14.225-13.187S70.572,36.057,70.572,43.341z M67.115,43.341c0,5.514-4.82,9.983-10.765,9.983
			s-10.765-4.469-10.765-9.983c0-5.513,4.82-9.981,10.765-9.981S67.115,37.828,67.115,43.341z M63.259,43.341
			c0,3.54-3.094,6.408-6.911,6.408s-6.912-2.868-6.912-6.408c0-3.539,3.095-6.408,6.912-6.408
			C60.167,36.933,63.259,39.802,63.259,43.341z M60.056,43.341c0,1.9-1.66,3.439-3.708,3.439c-2.048,0-3.708-1.54-3.708-3.439
			c0-1.898,1.66-3.438,3.708-3.438C58.397,39.903,60.056,41.443,60.056,43.341z M78.73,20.84c0,8.303-7.042,15.032-15.731,15.032
			s-15.731-6.73-15.731-15.032S54.312,5.808,63,5.808S78.73,12.537,78.73,20.84z M75.626,20.84c0,6.664-5.652,12.066-12.626,12.066
			S50.374,27.504,50.374,20.84S56.026,8.774,63,8.774S75.626,14.177,75.626,20.84z M72.557,20.84c0,5.044-4.278,9.132-9.557,9.132
			s-9.557-4.09-9.557-9.132c0-5.044,4.278-9.132,9.557-9.132S72.557,15.796,72.557,20.84z M69.134,20.84
			c0,3.238-2.746,5.863-6.134,5.863c-3.389,0-6.134-2.626-6.134-5.863s2.746-5.863,6.134-5.863
			C66.389,14.977,69.134,17.602,69.134,20.84z M66.293,20.84c0,1.738-1.474,3.146-3.292,3.146c-1.818,0-3.292-1.409-3.292-3.146
			s1.474-3.146,3.292-3.146C64.818,17.694,66.293,19.102,66.293,20.84z M58.013,32.197c0,13.41-11.498,24.283-25.683,24.283
			S6.646,45.608,6.646,32.197c0-13.41,11.498-24.283,25.683-24.283S58.013,18.787,58.013,32.197z M52.945,32.197
			c0,10.764-9.229,19.49-20.615,19.49c-11.384,0-20.615-8.726-20.615-19.49s9.23-19.49,20.615-19.49
			C43.716,12.707,52.945,21.433,52.945,32.197z M47.933,32.197c0,8.148-6.985,14.753-15.602,14.753s-15.602-6.605-15.602-14.753
			s6.986-14.753,15.602-14.753C40.948,17.444,47.933,24.049,47.933,32.197z M42.346,32.197c0,5.23-4.484,9.47-10.016,9.47
			s-10.016-4.241-10.016-9.47s4.484-9.47,10.016-9.47S42.346,26.967,42.346,32.197z M37.705,32.197c0,2.806-2.407,5.081-5.375,5.081
			c-2.968,0-5.375-2.275-5.375-5.081c0-2.806,2.407-5.081,5.375-5.081C35.298,27.116,37.705,29.391,37.705,32.197z"/>
	</g>
	<g>
		<polygon style="fill:#800000;" points="75.247,18.312 74.873,18.312 72.798,12.218 70.859,18.312 70.485,18.312 67.737,9.351 
			68.975,9.351 70.723,15.524 72.637,9.351 73.052,9.351 74.943,15.513 76.72,9.351 77.956,9.351 		"/>
		<polygon style="fill:#800000;" points="75.247,18.312 74.873,18.312 72.798,12.218 70.859,18.312 70.485,18.312 67.737,9.351 
			68.975,9.351 70.723,15.524 72.637,9.351 73.052,9.351 74.943,15.513 76.72,9.351 77.956,9.351 		"/>
		<path style="fill:#800000;" d="M80.57,15.046c0,1.572,0.545,2.359,1.638,2.359c0.509,0,0.91-0.211,1.198-0.634
			c0.29-0.42,0.434-0.996,0.434-1.726c0-1.552-0.545-2.329-1.632-2.329c-0.499,0-0.896,0.208-1.194,0.62
			C80.718,13.751,80.57,14.321,80.57,15.046 M79.42,15.046c0-0.968,0.257-1.748,0.768-2.344c0.511-0.595,1.183-0.893,2.02-0.893
			c0.881,0,1.565,0.286,2.051,0.857c0.487,0.571,0.73,1.364,0.73,2.378c0,1.01-0.248,1.807-0.746,2.392
			c-0.499,0.583-1.177,0.874-2.034,0.874c-0.878,0-1.562-0.294-2.052-0.884C79.665,16.839,79.42,16.045,79.42,15.046"/>
		<path style="fill:#800000;" d="M80.57,15.046c0,1.572,0.545,2.359,1.638,2.359c0.509,0,0.91-0.211,1.198-0.634
			c0.29-0.42,0.434-0.996,0.434-1.726c0-1.552-0.545-2.329-1.632-2.329c-0.499,0-0.896,0.208-1.194,0.62
			C80.718,13.751,80.57,14.321,80.57,15.046z M79.42,15.046c0-0.968,0.257-1.748,0.768-2.344c0.511-0.595,1.183-0.893,2.02-0.893
			c0.881,0,1.565,0.286,2.051,0.857c0.487,0.571,0.73,1.364,0.73,2.378c0,1.01-0.248,1.807-0.746,2.392
			c-0.499,0.583-1.177,0.874-2.034,0.874c-0.878,0-1.562-0.294-2.052-0.884C79.665,16.839,79.42,16.045,79.42,15.046z"/>
		<path style="fill:#800000;" d="M95.188,18.18v-3.959c0-0.985-0.438-1.478-1.316-1.478c-0.276,0-0.535,0.083-0.776,0.248
			c-0.24,0.167-0.404,0.354-0.492,0.564v4.625H91.46v-4.444c0-0.308-0.119-0.55-0.358-0.727c-0.24-0.176-0.554-0.266-0.947-0.266
			c-0.229,0-0.472,0.085-0.731,0.258c-0.258,0.17-0.442,0.36-0.551,0.566v4.613h-1.141v-6.253h0.745l0.378,0.725
			c0.442-0.562,0.994-0.842,1.655-0.842c0.922,0,1.567,0.278,1.936,0.836c0.127-0.238,0.367-0.437,0.716-0.596
			s0.708-0.24,1.076-0.24c0.666,0,1.181,0.192,1.546,0.576c0.365,0.384,0.547,0.922,0.547,1.615v4.18
			C96.332,18.18,95.188,18.18,95.188,18.18z"/>
		<path style="fill:#800000;" d="M95.188,18.18v-3.959c0-0.985-0.438-1.478-1.316-1.478c-0.276,0-0.535,0.083-0.776,0.248
			c-0.24,0.167-0.404,0.354-0.492,0.564v4.625H91.46v-4.444c0-0.308-0.119-0.55-0.358-0.727c-0.24-0.176-0.554-0.266-0.947-0.266
			c-0.229,0-0.472,0.085-0.731,0.258c-0.258,0.17-0.442,0.36-0.551,0.566v4.613h-1.141v-6.253h0.745l0.378,0.725
			c0.442-0.562,0.994-0.842,1.655-0.842c0.922,0,1.567,0.278,1.936,0.836c0.127-0.238,0.367-0.437,0.716-0.596
			s0.708-0.24,1.076-0.24c0.666,0,1.181,0.192,1.546,0.576c0.365,0.384,0.547,0.922,0.547,1.615v4.18
			C96.332,18.18,95.188,18.18,95.188,18.18z"/>
		<path style="fill:#800000;" d="M102.02,12.745c-0.487,0-0.896,0.161-1.228,0.48c-0.316,0.304-0.494,0.683-0.536,1.135h3.416
			c0-0.449-0.137-0.822-0.415-1.123C102.957,12.909,102.543,12.745,102.02,12.745 M104.677,15.169h-4.447
			c0,0.734,0.198,1.297,0.593,1.691c0.35,0.343,0.8,0.516,1.349,0.516c0.626,0,1.148-0.185,1.567-0.556l0.461,0.802
			c-0.169,0.173-0.428,0.32-0.779,0.445c-0.437,0.164-0.924,0.245-1.463,0.245c-0.776,0-1.436-0.266-1.976-0.802
			c-0.604-0.588-0.905-1.381-0.905-2.376c0-1.034,0.31-1.864,0.928-2.488c0.553-0.558,1.207-0.836,1.966-0.836
			c0.88,0,1.568,0.252,2.068,0.755c0.485,0.484,0.727,1.124,0.727,1.925C104.763,14.736,104.733,14.961,104.677,15.169"/>
		<path style="fill:#800000;" d="M102.02,12.745c-0.487,0-0.896,0.161-1.228,0.48c-0.316,0.304-0.494,0.683-0.536,1.135h3.416
			c0-0.449-0.137-0.822-0.415-1.123C102.957,12.909,102.543,12.745,102.02,12.745z M104.677,15.169h-4.447
			c0,0.734,0.198,1.297,0.593,1.691c0.35,0.343,0.8,0.516,1.349,0.516c0.626,0,1.148-0.185,1.567-0.556l0.461,0.802
			c-0.169,0.173-0.428,0.32-0.779,0.445c-0.437,0.164-0.924,0.245-1.463,0.245c-0.776,0-1.436-0.266-1.976-0.802
			c-0.604-0.588-0.905-1.381-0.905-2.376c0-1.034,0.31-1.864,0.928-2.488c0.553-0.558,1.207-0.836,1.966-0.836
			c0.88,0,1.568,0.252,2.068,0.755c0.485,0.484,0.727,1.124,0.727,1.925C104.763,14.736,104.733,14.961,104.677,15.169z"/>
		<path style="fill:#800000;" d="M111.218,18.18v-3.637c0-0.666-0.097-1.132-0.29-1.398s-0.517-0.401-0.971-0.401
			c-0.245,0-0.5,0.077-0.767,0.228c-0.266,0.151-0.47,0.34-0.613,0.56v4.648h-1.07v-6.253h0.733l0.337,0.805
			c0.353-0.614,0.929-0.923,1.729-0.923c1.321,0,1.982,0.834,1.982,2.5v3.872h-1.07C111.218,18.181,111.218,18.18,111.218,18.18z"/>
		<path style="fill:#800000;" d="M111.218,18.18v-3.637c0-0.666-0.097-1.132-0.29-1.398s-0.517-0.401-0.971-0.401
			c-0.245,0-0.5,0.077-0.767,0.228c-0.266,0.151-0.47,0.34-0.613,0.56v4.648h-1.07v-6.253h0.733l0.337,0.805
			c0.353-0.614,0.929-0.923,1.729-0.923c1.321,0,1.982,0.834,1.982,2.5v3.872h-1.07C111.218,18.181,111.218,18.18,111.218,18.18z"/>
		<polygon style="fill:#800000;" points="70.965,54.113 66.303,47.245 66.303,53.984 65.133,53.984 65.133,44.59 65.627,44.59 
			70.165,51.086 70.165,44.59 71.335,44.59 71.335,54.113 		"/>
		<polygon style="fill:#800000;" points="70.965,54.113 66.303,47.245 66.303,53.984 65.133,53.984 65.133,44.59 65.627,44.59 
			70.165,51.086 70.165,44.59 71.335,44.59 71.335,54.113 		"/>
		<path style="fill:#800000;" d="M76.766,48.185c-0.521,0-0.956,0.17-1.308,0.511c-0.336,0.324-0.527,0.727-0.571,1.208h3.642
			c0-0.478-0.148-0.877-0.443-1.196C77.762,48.361,77.323,48.185,76.766,48.185 M79.597,50.767h-4.742
			c0,0.781,0.211,1.381,0.634,1.801c0.373,0.366,0.852,0.547,1.438,0.547c0.667,0,1.224-0.198,1.67-0.592l0.492,0.853
			c-0.181,0.184-0.457,0.341-0.829,0.474c-0.467,0.175-0.986,0.262-1.56,0.262c-0.827,0-1.529-0.284-2.106-0.854
			c-0.643-0.626-0.965-1.47-0.965-2.53c0-1.102,0.329-1.984,0.989-2.65c0.589-0.594,1.288-0.89,2.094-0.89
			c0.937,0,1.673,0.269,2.204,0.804c0.517,0.516,0.775,1.199,0.775,2.051C79.689,50.306,79.66,50.546,79.597,50.767"/>
		<path style="fill:#800000;" d="M76.766,48.185c-0.521,0-0.956,0.17-1.308,0.511c-0.336,0.324-0.527,0.727-0.571,1.208h3.642
			c0-0.478-0.148-0.877-0.443-1.196C77.762,48.361,77.323,48.185,76.766,48.185z M79.597,50.767h-4.742
			c0,0.781,0.211,1.381,0.634,1.801c0.373,0.366,0.852,0.547,1.438,0.547c0.667,0,1.224-0.198,1.67-0.592l0.492,0.853
			c-0.181,0.184-0.457,0.341-0.829,0.474c-0.467,0.175-0.986,0.262-1.56,0.262c-0.827,0-1.529-0.284-2.106-0.854
			c-0.643-0.626-0.965-1.47-0.965-2.53c0-1.102,0.329-1.984,0.989-2.65c0.589-0.594,1.288-0.89,2.094-0.89
			c0.937,0,1.673,0.269,2.204,0.804c0.517,0.516,0.775,1.199,0.775,2.051C79.689,50.306,79.66,50.546,79.597,50.767z"/>
		<path style="fill:#800000;" d="M82.197,48.253h-0.709v-0.935h0.709v-1.396l1.086-0.454v1.849h1.681v0.935h-1.681v3.313
			c0,0.56,0.086,0.96,0.26,1.196c0.174,0.236,0.452,0.354,0.838,0.354c0.277,0,0.566-0.077,0.863-0.232l0.16,1.04
			c-0.45,0.125-0.943,0.186-1.481,0.186c-0.484,0-0.893-0.196-1.225-0.588c-0.334-0.392-0.5-0.887-0.5-1.484V48.253z"/>
		<path style="fill:#800000;" d="M82.197,48.253h-0.709v-0.935h0.709v-1.396l1.086-0.454v1.849h1.681v0.935h-1.681v3.313
			c0,0.56,0.086,0.96,0.26,1.196c0.174,0.236,0.452,0.354,0.838,0.354c0.277,0,0.566-0.077,0.863-0.232l0.16,1.04
			c-0.45,0.125-0.943,0.186-1.481,0.186c-0.484,0-0.893-0.196-1.225-0.588c-0.334-0.392-0.5-0.887-0.5-1.484V48.253z"/>
		<polygon style="fill:#800000;" points="93.729,54.113 93.42,54.113 91.474,49.577 89.533,54.113 89.224,54.113 86.848,47.306 
			88.11,47.306 89.527,51.68 91.293,47.306 91.603,47.306 93.427,51.68 94.951,47.306 96.111,47.306 		"/>
		<polygon style="fill:#800000;" points="93.729,54.113 93.42,54.113 91.474,49.577 89.533,54.113 89.224,54.113 86.848,47.306 
			88.11,47.306 89.527,51.68 91.293,47.306 91.603,47.306 93.427,51.68 94.951,47.306 96.111,47.306 		"/>
		<path style="fill:#800000;" d="M98.852,50.635c0,1.674,0.581,2.512,1.746,2.512c0.544,0,0.97-0.224,1.278-0.674
			c0.308-0.449,0.462-1.061,0.462-1.838c0-1.654-0.58-2.48-1.74-2.48c-0.53,0-0.954,0.221-1.271,0.661
			C99.01,49.255,98.852,49.862,98.852,50.635 M97.627,50.635c0-1.031,0.274-1.861,0.818-2.496c0.545-0.634,1.264-0.95,2.153-0.95
			c0.94,0,1.668,0.304,2.188,0.913c0.518,0.608,0.778,1.453,0.778,2.533c0,1.076-0.265,1.925-0.796,2.546
			c-0.53,0.62-1.255,0.931-2.17,0.931c-0.936,0-1.664-0.313-2.186-0.941C97.888,52.544,97.627,51.698,97.627,50.635"/>
		<path style="fill:#800000;" d="M98.852,50.635c0,1.674,0.581,2.512,1.746,2.512c0.544,0,0.97-0.224,1.278-0.674
			c0.308-0.449,0.462-1.061,0.462-1.838c0-1.654-0.58-2.48-1.74-2.48c-0.53,0-0.954,0.221-1.271,0.661
			C99.01,49.255,98.852,49.862,98.852,50.635z M97.627,50.635c0-1.031,0.274-1.861,0.818-2.496c0.545-0.634,1.264-0.95,2.153-0.95
			c0.94,0,1.668,0.304,2.188,0.913c0.518,0.608,0.778,1.453,0.778,2.533c0,1.076-0.265,1.925-0.796,2.546
			c-0.53,0.62-1.255,0.931-2.17,0.931c-0.936,0-1.664-0.313-2.186-0.941C97.888,52.544,97.627,51.698,97.627,50.635z"/>
		<path style="fill:#800000;" d="M108.98,48.451c-0.228-0.178-0.457-0.268-0.689-0.268c-0.371,0-0.695,0.193-0.972,0.578
			c-0.277,0.385-0.416,0.851-0.416,1.392v3.818h-1.046v-6.66h1.046v1.063c0.383-0.793,0.949-1.188,1.704-1.188
			c0.186,0,0.457,0.036,0.81,0.112L108.98,48.451z"/>
		<path style="fill:#800000;" d="M108.98,48.451c-0.228-0.178-0.457-0.268-0.689-0.268c-0.371,0-0.695,0.193-0.972,0.578
			c-0.277,0.385-0.416,0.851-0.416,1.392v3.818h-1.046v-6.66h1.046v1.063c0.383-0.793,0.949-1.188,1.704-1.188
			c0.186,0,0.457,0.036,0.81,0.112L108.98,48.451z"/>
		<polygon style="fill:#800000;" points="115.267,53.974 113.332,50.531 112.378,51.631 112.378,53.974 111.284,53.974 
			111.284,44.277 112.378,44.277 112.378,50.294 114.737,47.096 116.014,47.096 114.041,49.709 116.452,53.974 		"/>
		<polygon style="fill:#800000;" points="115.267,53.974 113.332,50.531 112.378,51.631 112.378,53.974 111.284,53.974 
			111.284,44.277 112.378,44.277 112.378,50.294 114.737,47.096 116.014,47.096 114.041,49.709 116.452,53.974 		"/>
		<rect x="54.047" y="27.354" style="fill:#800000;" width="0.98" height="8.828"/>
		<g>
			<path style="fill:#800000;" d="M61.975,36.182v-3.638c0-0.666-0.097-1.132-0.29-1.398c-0.193-0.266-0.517-0.401-0.971-0.401
				c-0.245,0-0.5,0.076-0.767,0.228c-0.266,0.151-0.47,0.34-0.613,0.56v4.648h-1.07v-6.253h0.733l0.337,0.805
				c0.353-0.614,0.929-0.923,1.729-0.923c1.321,0,1.982,0.834,1.982,2.5v3.872H61.975z"/>
			<path style="fill:#800000;" d="M61.975,36.182v-3.638c0-0.666-0.097-1.132-0.29-1.398c-0.193-0.266-0.517-0.401-0.971-0.401
				c-0.245,0-0.5,0.076-0.767,0.228c-0.266,0.151-0.47,0.34-0.613,0.56v4.648h-1.07v-6.253h0.733l0.337,0.805
				c0.353-0.614,0.929-0.923,1.729-0.923c1.321,0,1.982,0.834,1.982,2.5v3.872H61.975z"/>
		</g>
		<polygon style="fill:#800000;" points="76.933,36.193 75.908,30.516 74.022,36.313 73.727,36.313 71.787,30.516 70.787,36.193 
			69.667,36.193 71.281,27.355 71.817,27.355 73.874,33.805 75.771,27.355 76.303,27.355 78.052,36.193 		"/>
		<polygon style="fill:#800000;" points="76.933,36.193 75.908,30.516 74.022,36.313 73.727,36.313 71.787,30.516 70.787,36.193 
			69.667,36.193 71.281,27.355 71.817,27.355 73.874,33.805 75.771,27.355 76.303,27.355 78.052,36.193 		"/>
		<path style="fill:#800000;" d="M80.972,27.283c0.144,0,0.268,0.068,0.368,0.208s0.152,0.305,0.152,0.497
			c0,0.198-0.052,0.366-0.152,0.504c-0.101,0.139-0.224,0.208-0.368,0.208c-0.14,0-0.262-0.068-0.362-0.208
			c-0.102-0.139-0.152-0.307-0.152-0.504c0-0.196,0.05-0.362,0.15-0.5C80.706,27.351,80.828,27.283,80.972,27.283 M80.512,36.182
			V30.69h-0.649v-0.966h1.487v6.458H80.512z"/>
		<path style="fill:#800000;" d="M80.972,27.283c0.144,0,0.268,0.068,0.368,0.208s0.152,0.305,0.152,0.497
			c0,0.198-0.052,0.366-0.152,0.504c-0.101,0.139-0.224,0.208-0.368,0.208c-0.14,0-0.262-0.068-0.362-0.208
			c-0.102-0.139-0.152-0.307-0.152-0.504c0-0.196,0.05-0.362,0.15-0.5C80.706,27.351,80.828,27.283,80.972,27.283z M80.512,36.182
			V30.69h-0.649v-0.966h1.487v6.458H80.512z"/>
		<path style="fill:#800000;" d="M86.379,30.902c-0.358,0-0.65,0.139-0.876,0.415c-0.227,0.276-0.34,0.612-0.34,1.006
			c0,0.443,0.109,0.809,0.328,1.098c0.218,0.29,0.516,0.436,0.887,0.436c0.366,0,0.652-0.142,0.859-0.424
			c0.206-0.283,0.31-0.653,0.31-1.111c0-0.394-0.112-0.73-0.335-1.006C86.99,31.041,86.713,30.902,86.379,30.902 M84.194,38.189
			l0.559-0.899c0.601,0.437,1.154,0.658,1.662,0.658c0.467,0,0.835-0.089,1.104-0.263c0.27-0.176,0.404-0.394,0.404-0.654
			c0-0.512-0.341-0.77-1.021-0.77c-0.115,0-0.325,0.032-0.629,0.095c-0.304,0.064-0.541,0.095-0.712,0.095
			c-0.826,0-1.237-0.341-1.237-1.019c0-0.209,0.097-0.4,0.29-0.569c0.194-0.169,0.434-0.292,0.72-0.367
			c-0.818-0.418-1.228-1.145-1.228-2.178c0-0.662,0.211-1.214,0.635-1.657c0.425-0.442,0.947-0.662,1.568-0.662
			c0.571,0,1.019,0.127,1.34,0.384l0.516-0.674l0.674,0.692l-0.619,0.51c0.265,0.374,0.396,0.863,0.396,1.468
			c0,0.638-0.184,1.175-0.55,1.609c-0.365,0.434-0.845,0.683-1.438,0.745l-0.853,0.095c-0.101,0.011-0.236,0.055-0.407,0.127
			c-0.17,0.073-0.254,0.168-0.254,0.287c0,0.161,0.176,0.242,0.53,0.242c0.157,0,0.4-0.031,0.728-0.092
			c0.329-0.06,0.572-0.091,0.733-0.091c0.571,0,1.018,0.149,1.338,0.446c0.319,0.299,0.48,0.712,0.48,1.24
			c0,0.584-0.24,1.056-0.72,1.415c-0.479,0.359-1.086,0.539-1.822,0.539c-0.376,0-0.772-0.074-1.188-0.22
			C84.781,38.576,84.446,38.398,84.194,38.189"/>
		<path style="fill:#800000;" d="M86.379,30.902c-0.358,0-0.65,0.139-0.876,0.415c-0.227,0.276-0.34,0.612-0.34,1.006
			c0,0.443,0.109,0.809,0.328,1.098c0.218,0.29,0.516,0.436,0.887,0.436c0.366,0,0.652-0.142,0.859-0.424
			c0.206-0.283,0.31-0.653,0.31-1.111c0-0.394-0.112-0.73-0.335-1.006C86.99,31.041,86.713,30.902,86.379,30.902z M84.194,38.189
			l0.559-0.899c0.601,0.437,1.154,0.658,1.662,0.658c0.467,0,0.835-0.089,1.104-0.263c0.27-0.176,0.404-0.394,0.404-0.654
			c0-0.512-0.341-0.77-1.021-0.77c-0.115,0-0.325,0.032-0.629,0.095c-0.304,0.064-0.541,0.095-0.712,0.095
			c-0.826,0-1.237-0.341-1.237-1.019c0-0.209,0.097-0.4,0.29-0.569c0.194-0.169,0.434-0.292,0.72-0.367
			c-0.818-0.418-1.228-1.145-1.228-2.178c0-0.662,0.211-1.214,0.635-1.657c0.425-0.442,0.947-0.662,1.568-0.662
			c0.571,0,1.019,0.127,1.34,0.384l0.516-0.674l0.674,0.692l-0.619,0.51c0.265,0.374,0.396,0.863,0.396,1.468
			c0,0.638-0.184,1.175-0.55,1.609c-0.365,0.434-0.845,0.683-1.438,0.745l-0.853,0.095c-0.101,0.011-0.236,0.055-0.407,0.127
			c-0.17,0.073-0.254,0.168-0.254,0.287c0,0.161,0.176,0.242,0.53,0.242c0.157,0,0.4-0.031,0.728-0.092
			c0.329-0.06,0.572-0.091,0.733-0.091c0.571,0,1.018,0.149,1.338,0.446c0.319,0.299,0.48,0.712,0.48,1.24
			c0,0.584-0.24,1.056-0.72,1.415c-0.479,0.359-1.086,0.539-1.822,0.539c-0.376,0-0.772-0.074-1.188-0.22
			C84.781,38.576,84.446,38.398,84.194,38.189z"/>
		<path style="fill:#800000;" d="M94.498,30.997c-0.211-0.167-0.426-0.251-0.642-0.251c-0.346,0-0.647,0.181-0.906,0.542
			c-0.258,0.362-0.386,0.798-0.386,1.308v3.584H91.59v-6.253h0.974v0.998c0.356-0.744,0.884-1.115,1.585-1.115
			c0.174,0,0.426,0.035,0.755,0.106L94.498,30.997z"/>
		<path style="fill:#800000;" d="M94.498,30.997c-0.211-0.167-0.426-0.251-0.642-0.251c-0.346,0-0.647,0.181-0.906,0.542
			c-0.258,0.362-0.386,0.798-0.386,1.308v3.584H91.59v-6.253h0.974v0.998c0.356-0.744,0.884-1.115,1.585-1.115
			c0.174,0,0.426,0.035,0.755,0.106L94.498,30.997z"/>
		<path style="fill:#800000;" d="M100.355,33.117c-0.342-0.077-0.581-0.116-0.719-0.116c-0.547,0-0.994,0.144-1.339,0.433
			s-0.518,0.63-0.518,1.024c0,0.652,0.374,0.978,1.122,0.978c0.547,0,1.032-0.268,1.454-0.803V33.117z M100.456,35.476
			c-0.433,0.558-1.097,0.836-1.99,0.836c-0.479,0-0.894-0.178-1.246-0.535c-0.352-0.358-0.527-0.8-0.527-1.331
			c0-0.636,0.27-1.174,0.811-1.613c0.542-0.44,1.232-0.659,2.072-0.659c0.228,0,0.487,0.05,0.776,0.151
			c0-1.014-0.442-1.522-1.322-1.522c-0.677,0-1.198,0.187-1.562,0.562l-0.455-0.93c0.204-0.173,0.488-0.319,0.852-0.442
			c0.362-0.124,0.709-0.185,1.039-0.185c0.886,0,1.529,0.208,1.931,0.62c0.401,0.413,0.601,1.07,0.601,1.973v2.246
			c0,0.551,0.16,0.916,0.479,1.099v0.556c-0.442,0-0.772-0.065-0.989-0.193C100.709,35.986,100.552,35.774,100.456,35.476"/>
		<path style="fill:#800000;" d="M100.355,33.117c-0.342-0.077-0.581-0.116-0.719-0.116c-0.547,0-0.994,0.144-1.339,0.433
			s-0.518,0.63-0.518,1.024c0,0.652,0.374,0.978,1.122,0.978c0.547,0,1.032-0.268,1.454-0.803V33.117z M100.456,35.476
			c-0.433,0.558-1.097,0.836-1.99,0.836c-0.479,0-0.894-0.178-1.246-0.535c-0.352-0.358-0.527-0.8-0.527-1.331
			c0-0.636,0.27-1.174,0.811-1.613c0.542-0.44,1.232-0.659,2.072-0.659c0.228,0,0.487,0.05,0.776,0.151
			c0-1.014-0.442-1.522-1.322-1.522c-0.677,0-1.198,0.187-1.562,0.562l-0.455-0.93c0.204-0.173,0.488-0.319,0.852-0.442
			c0.362-0.124,0.709-0.185,1.039-0.185c0.886,0,1.529,0.208,1.931,0.62c0.401,0.413,0.601,1.07,0.601,1.973v2.246
			c0,0.551,0.16,0.916,0.479,1.099v0.556c-0.442,0-0.772-0.065-0.989-0.193C100.709,35.986,100.552,35.774,100.456,35.476z"/>
		<path style="fill:#800000;" d="M104.757,30.812h-0.661v-0.877h0.661v-1.31l1.014-0.427v1.738h1.568v0.877h-1.568v3.11
			c0,0.527,0.08,0.901,0.242,1.123c0.162,0.221,0.424,0.334,0.781,0.334c0.26,0,0.528-0.073,0.806-0.217l0.149,0.977
			c-0.419,0.118-0.88,0.175-1.382,0.175c-0.451,0-0.832-0.184-1.145-0.552c-0.311-0.368-0.467-0.834-0.467-1.396L104.757,30.812
			L104.757,30.812z"/>
		<path style="fill:#800000;" d="M104.757,30.812h-0.661v-0.877h0.661v-1.31l1.014-0.427v1.738h1.568v0.877h-1.568v3.11
			c0,0.527,0.08,0.901,0.242,1.123c0.162,0.221,0.424,0.334,0.781,0.334c0.26,0,0.528-0.073,0.806-0.217l0.149,0.977
			c-0.419,0.118-0.88,0.175-1.382,0.175c-0.451,0-0.832-0.184-1.145-0.552c-0.311-0.368-0.467-0.834-0.467-1.396L104.757,30.812
			L104.757,30.812z"/>
		<path style="fill:#800000;" d="M110.878,27.283c0.144,0,0.268,0.068,0.368,0.208s0.152,0.305,0.152,0.497
			c0,0.198-0.052,0.366-0.152,0.504c-0.101,0.139-0.224,0.208-0.368,0.208c-0.14,0-0.262-0.068-0.362-0.208
			c-0.102-0.139-0.152-0.307-0.152-0.504c0-0.196,0.05-0.362,0.15-0.5C110.613,27.351,110.734,27.283,110.878,27.283
			 M110.421,36.182V30.69h-0.649v-0.966h1.487v6.458H110.421z"/>
		<path style="fill:#800000;" d="M110.878,27.283c0.144,0,0.268,0.068,0.368,0.208s0.152,0.305,0.152,0.497
			c0,0.198-0.052,0.366-0.152,0.504c-0.101,0.139-0.224,0.208-0.368,0.208c-0.14,0-0.262-0.068-0.362-0.208
			c-0.102-0.139-0.152-0.307-0.152-0.504c0-0.196,0.05-0.362,0.15-0.5C110.613,27.351,110.734,27.283,110.878,27.283z
			 M110.421,36.182V30.69h-0.649v-0.966h1.487v6.458H110.421z"/>
		<path style="fill:#800000;" d="M114.997,33.048c0,1.572,0.546,2.359,1.639,2.359c0.509,0,0.91-0.211,1.198-0.634
			c0.29-0.42,0.434-0.996,0.434-1.726c0-1.554-0.545-2.329-1.632-2.329c-0.499,0-0.896,0.208-1.194,0.62
			C115.144,31.752,114.997,32.323,114.997,33.048 M113.847,33.048c0-0.968,0.257-1.748,0.768-2.344
			c0.511-0.595,1.183-0.893,2.02-0.893c0.881,0,1.565,0.286,2.051,0.857c0.487,0.571,0.73,1.364,0.73,2.378
			c0,1.01-0.248,1.807-0.746,2.392c-0.499,0.583-1.177,0.874-2.034,0.874c-0.878,0-1.562-0.294-2.052-0.884
			C114.093,34.841,113.847,34.047,113.847,33.048"/>
		<path style="fill:#800000;" d="M114.997,33.048c0,1.572,0.546,2.359,1.639,2.359c0.509,0,0.91-0.211,1.198-0.634
			c0.29-0.42,0.434-0.996,0.434-1.726c0-1.554-0.545-2.329-1.632-2.329c-0.499,0-0.896,0.208-1.194,0.62
			C115.144,31.752,114.997,32.323,114.997,33.048z M113.847,33.048c0-0.968,0.257-1.748,0.768-2.344
			c0.511-0.595,1.183-0.893,2.02-0.893c0.881,0,1.565,0.286,2.051,0.857c0.487,0.571,0.73,1.364,0.73,2.378
			c0,1.01-0.248,1.807-0.746,2.392c-0.499,0.583-1.177,0.874-2.034,0.874c-0.878,0-1.562-0.294-2.052-0.884
			C114.093,34.841,113.847,34.047,113.847,33.048z"/>
		<path style="fill:#800000;" d="M125.576,36.182v-3.638c0-0.666-0.097-1.132-0.29-1.398c-0.193-0.266-0.517-0.401-0.971-0.401
			c-0.245,0-0.5,0.076-0.767,0.228c-0.266,0.151-0.47,0.34-0.613,0.56v4.648h-1.07v-6.253h0.733l0.337,0.805
			c0.353-0.614,0.929-0.923,1.729-0.923c1.321,0,1.982,0.834,1.982,2.5v3.872H125.576z"/>
		<path style="fill:#800000;" d="M125.576,36.182v-3.638c0-0.666-0.097-1.132-0.29-1.398c-0.193-0.266-0.517-0.401-0.971-0.401
			c-0.245,0-0.5,0.076-0.767,0.228c-0.266,0.151-0.47,0.34-0.613,0.56v4.648h-1.07v-6.253h0.733l0.337,0.805
			c0.353-0.614,0.929-0.923,1.729-0.923c1.321,0,1.982,0.834,1.982,2.5v3.872H125.576z"/>
		<polygon style="fill:#800000;" points="69.565,63.32 69.367,63.32 68.724,61.881 68.083,63.32 67.881,63.32 66.999,60.935 
			67.573,60.935 68.045,62.332 68.617,60.935 68.814,60.935 69.405,62.34 69.913,60.935 70.451,60.935 		"/>
		<path style="fill:#800000;" d="M71.19,62.1c0,0.516,0.185,0.773,0.558,0.773c0.169,0,0.305-0.067,0.404-0.2
			c0.1-0.134,0.15-0.325,0.15-0.572c0-0.509-0.185-0.762-0.554-0.762c-0.17,0-0.307,0.066-0.408,0.2
			C71.239,61.673,71.19,61.859,71.19,62.1 M70.621,62.1c0-0.358,0.103-0.647,0.31-0.872c0.206-0.224,0.478-0.336,0.817-0.336
			c0.354,0,0.631,0.108,0.828,0.324c0.196,0.216,0.294,0.511,0.294,0.886c0,0.373-0.1,0.67-0.3,0.889
			c-0.2,0.22-0.475,0.33-0.822,0.33c-0.356,0-0.634-0.112-0.83-0.334C70.719,62.764,70.621,62.469,70.621,62.1"/>
		<path style="fill:#800000;" d="M76.019,63.276V61.81c0-0.307-0.137-0.461-0.413-0.461c-0.082,0-0.16,0.024-0.235,0.072
			c-0.076,0.049-0.131,0.103-0.16,0.167v1.69h-0.546v-1.552c0-0.115-0.036-0.206-0.108-0.275c-0.072-0.067-0.173-0.101-0.301-0.101
			c-0.068,0-0.143,0.025-0.224,0.076c-0.082,0.052-0.14,0.108-0.176,0.169v1.682h-0.546v-2.342h0.377l0.11,0.206
			c0.151-0.167,0.348-0.25,0.588-0.25c0.31,0,0.544,0.084,0.702,0.253c0.068-0.077,0.164-0.139,0.286-0.185
			c0.122-0.047,0.245-0.068,0.367-0.068c0.26,0,0.463,0.074,0.61,0.224c0.144,0.149,0.217,0.354,0.217,0.614v1.546
			C76.566,63.276,76.019,63.276,76.019,63.276z"/>
		<path style="fill:#800000;" d="M77.592,61.863h1.15c-0.038-0.343-0.227-0.514-0.568-0.514
			C77.862,61.348,77.668,61.52,77.592,61.863 M79.244,62.273h-1.673c0.011,0.186,0.074,0.332,0.193,0.434
			c0.118,0.103,0.276,0.156,0.476,0.156c0.25,0,0.438-0.065,0.569-0.194l0.211,0.418c-0.192,0.157-0.479,0.234-0.862,0.234
			c-0.358,0-0.638-0.103-0.847-0.313c-0.208-0.209-0.311-0.5-0.311-0.874c0-0.37,0.114-0.668,0.342-0.896
			c0.228-0.229,0.502-0.343,0.821-0.343c0.341,0,0.612,0.101,0.818,0.304c0.204,0.202,0.308,0.46,0.308,0.773
			C79.291,62.036,79.275,62.136,79.244,62.273"/>
		<path style="fill:#800000;" d="M81.234,63.276v-1.354c0-0.199-0.038-0.344-0.115-0.437c-0.077-0.091-0.202-0.137-0.376-0.137
			c-0.08,0-0.166,0.023-0.257,0.067s-0.162,0.101-0.212,0.168v1.692h-0.546v-2.341h0.394l0.1,0.218
			c0.15-0.175,0.368-0.262,0.659-0.262c0.278,0,0.499,0.083,0.66,0.25c0.16,0.167,0.241,0.401,0.241,0.7v1.436L81.234,63.276
			L81.234,63.276z"/>
		<path style="fill:#800000;" d="M82.797,60.027c0.089,0,0.162,0.031,0.224,0.094c0.061,0.061,0.094,0.136,0.094,0.224
			c0,0.086-0.032,0.161-0.094,0.224c-0.061,0.061-0.136,0.092-0.224,0.092c-0.086,0-0.161-0.031-0.224-0.092
			c-0.061-0.064-0.092-0.137-0.092-0.224c0-0.089,0.031-0.162,0.092-0.224C82.636,60.058,82.712,60.027,82.797,60.027
			 M82.516,63.276v-1.892h-0.3v-0.449h0.853v2.341H82.516z"/>
		<path style="fill:#800000;" d="M85.212,63.276v-1.354c0-0.199-0.038-0.344-0.115-0.437c-0.077-0.091-0.202-0.137-0.376-0.137
			c-0.08,0-0.166,0.023-0.257,0.067s-0.162,0.101-0.212,0.168v1.692h-0.546v-2.341h0.394l0.1,0.218
			c0.15-0.175,0.368-0.262,0.659-0.262c0.278,0,0.499,0.083,0.66,0.25c0.16,0.167,0.241,0.401,0.241,0.7v1.436L85.212,63.276
			L85.212,63.276z"/>
		<path style="fill:#800000;" d="M89.059,63.276V61.81c0-0.307-0.137-0.461-0.413-0.461c-0.082,0-0.16,0.024-0.235,0.072
			c-0.077,0.049-0.131,0.103-0.16,0.167v1.69h-0.546v-1.552c0-0.115-0.036-0.206-0.108-0.275c-0.072-0.067-0.173-0.101-0.301-0.101
			c-0.068,0-0.143,0.025-0.224,0.076c-0.082,0.052-0.14,0.108-0.176,0.169v1.682h-0.546v-2.342h0.377l0.11,0.206
			c0.151-0.167,0.348-0.25,0.588-0.25c0.31,0,0.544,0.084,0.702,0.253c0.068-0.077,0.164-0.139,0.286-0.185
			c0.122-0.047,0.245-0.068,0.367-0.068c0.26,0,0.463,0.074,0.61,0.224c0.144,0.149,0.217,0.354,0.217,0.614v1.546
			C89.606,63.276,89.059,63.276,89.059,63.276z"/>
		<path style="fill:#800000;" d="M90.624,60.027c0.089,0,0.162,0.031,0.224,0.094c0.061,0.061,0.094,0.136,0.094,0.224
			c0,0.086-0.032,0.161-0.094,0.224c-0.061,0.061-0.136,0.092-0.224,0.092c-0.086,0-0.161-0.031-0.224-0.092
			c-0.061-0.064-0.092-0.137-0.092-0.224c0-0.089,0.031-0.162,0.092-0.224C90.462,60.058,90.536,60.027,90.624,60.027
			 M90.342,63.276v-1.892h-0.3v-0.449h0.853v2.341H90.342z"/>
		<path style="fill:#800000;" d="M91.902,61.756c0,0.139,0.038,0.251,0.115,0.334c0.077,0.084,0.179,0.126,0.31,0.126
			c0.128,0,0.229-0.041,0.3-0.122c0.07-0.082,0.103-0.193,0.103-0.337c0-0.118-0.036-0.217-0.112-0.299
			c-0.074-0.082-0.173-0.124-0.292-0.124c-0.126,0-0.227,0.04-0.307,0.119C91.942,61.532,91.902,61.632,91.902,61.756
			 M91.356,63.876l0.346-0.426c0.191,0.175,0.403,0.262,0.637,0.262c0.158,0,0.287-0.024,0.39-0.07
			c0.102-0.047,0.152-0.11,0.152-0.192c0-0.139-0.112-0.209-0.34-0.209c-0.06,0-0.151,0.008-0.274,0.023
			c-0.12,0.014-0.211,0.023-0.274,0.023c-0.376,0-0.563-0.136-0.563-0.404c0-0.077,0.031-0.152,0.094-0.227
			c0.061-0.074,0.136-0.128,0.218-0.164c-0.268-0.174-0.401-0.419-0.401-0.737c0-0.251,0.092-0.458,0.276-0.622
			c0.184-0.164,0.409-0.245,0.678-0.245c0.209,0,0.385,0.04,0.527,0.118l0.215-0.25l0.377,0.343l-0.259,0.191
			c0.09,0.136,0.136,0.299,0.136,0.485c0,0.266-0.082,0.479-0.244,0.64c-0.162,0.158-0.368,0.238-0.617,0.238
			c-0.04,0-0.091-0.002-0.157-0.011l-0.09-0.013c-0.01,0-0.049,0.016-0.116,0.048c-0.068,0.031-0.102,0.064-0.102,0.097
			c0,0.059,0.05,0.089,0.151,0.089c0.044,0,0.12-0.011,0.227-0.034c0.107-0.023,0.198-0.032,0.274-0.032
			c0.53,0,0.797,0.212,0.797,0.64c0,0.235-0.106,0.421-0.318,0.556c-0.212,0.134-0.469,0.202-0.77,0.202
			C91.97,64.193,91.645,64.089,91.356,63.876"/>
		<path style="fill:#800000;" d="M95.131,61.444c-0.098-0.065-0.204-0.097-0.32-0.097c-0.127,0-0.24,0.058-0.337,0.174
			c-0.1,0.115-0.149,0.254-0.149,0.421v1.333h-0.546v-2.34h0.546v0.212c0.152-0.17,0.358-0.258,0.611-0.258
			c0.186,0,0.329,0.028,0.427,0.085L95.131,61.444z"/>
		<path style="fill:#800000;" d="M96.801,62.175c-0.094-0.019-0.164-0.03-0.21-0.03c-0.432,0-0.647,0.142-0.647,0.425
			c0,0.21,0.122,0.316,0.365,0.316c0.329,0,0.493-0.164,0.493-0.492L96.801,62.175L96.801,62.175z M96.853,63.042
			c-0.049,0.082-0.136,0.149-0.259,0.2c-0.124,0.052-0.252,0.077-0.385,0.077c-0.252,0-0.451-0.064-0.595-0.19
			c-0.144-0.126-0.216-0.304-0.216-0.536c0-0.27,0.101-0.484,0.305-0.636c0.203-0.152,0.492-0.229,0.865-0.229
			c0.065,0,0.14,0.011,0.227,0.034c0-0.276-0.174-0.413-0.521-0.413c-0.206,0-0.378,0.034-0.517,0.102l-0.118-0.425
			c0.187-0.09,0.412-0.134,0.671-0.134c0.358,0,0.619,0.082,0.785,0.244c0.167,0.162,0.25,0.469,0.25,0.923v0.5
			c0,0.312,0.064,0.509,0.187,0.588c-0.044,0.078-0.095,0.127-0.15,0.145c-0.056,0.018-0.119,0.026-0.191,0.026
			c-0.078,0-0.15-0.03-0.211-0.086C96.917,63.173,96.877,63.111,96.853,63.042"/>
		<path style="fill:#800000;" d="M98.018,61.374h-0.272v-0.439h0.271v-0.478l0.546-0.2v0.678h0.643v0.438h-0.643v1.026
			c0,0.168,0.026,0.286,0.078,0.354c0.053,0.07,0.144,0.106,0.276,0.106c0.131,0,0.253-0.036,0.367-0.108v0.503
			c-0.127,0.043-0.308,0.066-0.542,0.066c-0.234,0-0.412-0.066-0.538-0.198c-0.125-0.132-0.187-0.32-0.187-0.563L98.018,61.374
			L98.018,61.374z"/>
		<path style="fill:#800000;" d="M100.137,60.027c0.089,0,0.162,0.031,0.224,0.094c0.061,0.061,0.092,0.136,0.092,0.224
			c0,0.086-0.031,0.161-0.092,0.224c-0.061,0.061-0.136,0.092-0.224,0.092c-0.086,0-0.161-0.031-0.224-0.092
			c-0.061-0.064-0.092-0.137-0.092-0.224c0-0.089,0.031-0.162,0.092-0.224C99.977,60.058,100.051,60.027,100.137,60.027
			 M99.856,63.276v-1.892h-0.3v-0.449h0.853v2.341H99.856z"/>
		<path style="fill:#800000;" d="M101.462,62.1c0,0.516,0.185,0.773,0.558,0.773c0.169,0,0.305-0.067,0.404-0.2
			c0.1-0.134,0.15-0.325,0.15-0.572c0-0.509-0.185-0.762-0.554-0.762c-0.17,0-0.307,0.066-0.408,0.2
			C101.511,61.673,101.462,61.859,101.462,62.1 M100.893,62.1c0-0.358,0.103-0.647,0.31-0.872c0.206-0.224,0.478-0.336,0.817-0.336
			c0.354,0,0.631,0.108,0.828,0.324c0.196,0.216,0.294,0.511,0.294,0.886c0,0.373-0.1,0.67-0.3,0.889
			c-0.2,0.22-0.475,0.33-0.822,0.33c-0.356,0-0.634-0.112-0.83-0.334C100.991,62.764,100.893,62.469,100.893,62.1"/>
		<path style="fill:#800000;" d="M105.085,63.276v-1.354c0-0.199-0.038-0.344-0.115-0.437c-0.077-0.091-0.202-0.137-0.376-0.137
			c-0.08,0-0.166,0.023-0.257,0.067s-0.162,0.101-0.212,0.168v1.692h-0.546v-2.341h0.394l0.1,0.218
			c0.15-0.175,0.368-0.262,0.659-0.262c0.278,0,0.499,0.083,0.66,0.25c0.16,0.167,0.241,0.401,0.241,0.7v1.436L105.085,63.276
			L105.085,63.276z"/>
		<path style="fill:#800000;" d="M106.306,62.99c0-0.109,0.038-0.202,0.115-0.278c0.077-0.077,0.169-0.115,0.278-0.115
			c0.109,0,0.202,0.037,0.278,0.115c0.076,0.077,0.115,0.169,0.115,0.278s-0.04,0.203-0.115,0.28
			c-0.077,0.077-0.169,0.115-0.278,0.115c-0.109,0-0.202-0.038-0.278-0.115C106.345,63.192,106.306,63.099,106.306,62.99"/>
		<path style="fill:#800000;" d="M108.28,62.1c0,0.516,0.185,0.773,0.558,0.773c0.169,0,0.305-0.067,0.404-0.2
			c0.1-0.134,0.15-0.325,0.15-0.572c0-0.509-0.185-0.762-0.554-0.762c-0.17,0-0.307,0.066-0.408,0.2
			C108.329,61.673,108.28,61.859,108.28,62.1 M107.711,62.1c0-0.358,0.103-0.647,0.31-0.872c0.206-0.224,0.478-0.336,0.817-0.336
			c0.354,0,0.631,0.108,0.828,0.324c0.196,0.216,0.294,0.511,0.294,0.886c0,0.373-0.1,0.67-0.3,0.889
			c-0.2,0.22-0.475,0.33-0.822,0.33c-0.356,0-0.634-0.112-0.83-0.334C107.811,62.764,107.711,62.469,107.711,62.1"/>
		<path style="fill:#800000;" d="M111.751,61.444c-0.098-0.065-0.204-0.097-0.32-0.097c-0.127,0-0.24,0.058-0.337,0.174
			c-0.1,0.115-0.149,0.254-0.149,0.421v1.333h-0.546v-2.34h0.546v0.212c0.154-0.17,0.358-0.258,0.611-0.258
			c0.186,0,0.329,0.028,0.427,0.085L111.751,61.444z"/>
		<path style="fill:#800000;" d="M112.682,61.756c0,0.139,0.038,0.251,0.115,0.334c0.077,0.084,0.179,0.126,0.31,0.126
			c0.128,0,0.229-0.041,0.3-0.122c0.07-0.082,0.103-0.193,0.103-0.337c0-0.118-0.036-0.217-0.112-0.299
			c-0.074-0.082-0.173-0.124-0.292-0.124c-0.126,0-0.227,0.04-0.307,0.119C112.723,61.532,112.682,61.632,112.682,61.756
			 M112.136,63.876l0.346-0.426c0.191,0.175,0.403,0.262,0.637,0.262c0.158,0,0.287-0.024,0.39-0.07
			c0.102-0.047,0.152-0.11,0.152-0.192c0-0.139-0.112-0.209-0.34-0.209c-0.06,0-0.151,0.008-0.274,0.023
			c-0.12,0.014-0.211,0.023-0.274,0.023c-0.376,0-0.563-0.136-0.563-0.404c0-0.077,0.031-0.152,0.094-0.227
			c0.061-0.074,0.136-0.128,0.218-0.164c-0.268-0.174-0.401-0.419-0.401-0.737c0-0.251,0.092-0.458,0.276-0.622
			c0.184-0.164,0.409-0.245,0.678-0.245c0.209,0,0.385,0.04,0.527,0.118l0.215-0.25l0.377,0.343l-0.259,0.191
			c0.09,0.136,0.136,0.299,0.136,0.485c0,0.266-0.082,0.479-0.244,0.64c-0.162,0.158-0.368,0.238-0.617,0.238
			c-0.04,0-0.091-0.002-0.157-0.011l-0.09-0.013c-0.01,0-0.049,0.016-0.116,0.048c-0.068,0.031-0.102,0.064-0.102,0.097
			c0,0.059,0.05,0.089,0.151,0.089c0.044,0,0.12-0.011,0.227-0.034s0.198-0.032,0.274-0.032c0.533,0,0.797,0.212,0.797,0.64
			c0,0.235-0.106,0.421-0.318,0.556c-0.212,0.134-0.469,0.202-0.77,0.202C112.75,64.193,112.425,64.089,112.136,63.876"/>
	</g>
</g>
</svg>
