<svg id="Grupo_56" data-name="Grupo 56" xmlns="http://www.w3.org/2000/svg" width="86.981" height="32.003" viewBox="0 0 86.981 32.003">
  <path id="Trazado_233" data-name="Trazado 233" d="M33.822,66.28a1.254,1.254,0,0,0,1.766,0l21.3-21.3a1.249,1.249,0,1,0-1.766-1.766L33.856,64.479a1.266,1.266,0,0,0-.035,1.8" transform="translate(-33.462 -34.642)" fill="#4052da"/>
  <path id="Trazado_234" data-name="Trazado 234" d="M53.817,46.814a1.254,1.254,0,0,1,0,1.766l-4.78,4.71a10.905,10.905,0,0,1,.416-3.948l2.6-2.528a1.254,1.254,0,0,1,1.766,0" transform="translate(-43.621 -36.995)" fill="#8ac476"/>
  <path id="Trazado_235" data-name="Trazado 235" d="M62.742,40.214a1.254,1.254,0,0,1,0,1.766l-11.6,11.637A11.438,11.438,0,0,1,50.1,51.089L60.975,40.214a1.254,1.254,0,0,1,1.766,0" transform="translate(-44.338 -32.681)" fill="#7e47b4"/>
  <path id="Trazado_236" data-name="Trazado 236" d="M78.8,57.714a1.254,1.254,0,0,1,0,1.766L67.928,70.355A12.165,12.165,0,0,1,65.4,69.316l11.637-11.6a1.254,1.254,0,0,1,1.766,0" transform="translate(-54.338 -44.12)" fill="#d18830"/>
  <path id="Trazado_237" data-name="Trazado 237" d="M89.221,73.405a1.254,1.254,0,0,1,0,1.766L83.748,80.54a10.905,10.905,0,0,1-3.948.416l7.689-7.585a1.245,1.245,0,0,1,1.732.035" transform="translate(-63.751 -54.373)" fill="#828282"/>
  <path id="Trazado_238" data-name="Trazado 238" d="M62.894,23.67A15.493,15.493,0,0,1,43.325,47.5l1.8-1.8a12.932,12.932,0,1,0-2.39-1.87,10.08,10.08,0,0,0,.935.831L41.9,46.425c-.312-.277-.623-.554-.935-.866A15.49,15.49,0,0,1,62.894,23.67" transform="translate(-35.415 -19.15)" fill="#4052da"/>
  <path id="Trazado_239" data-name="Trazado 239" d="M174.342,37.1a.533.533,0,0,0-.52.52v3.706c0,1.42-.693,2.182-1.974,2.182s-2.009-.8-2.009-2.217V37.62a.52.52,0,1,0-1.039,0v3.706a3.019,3.019,0,1,0,6.026-.035V37.62a.482.482,0,0,0-.485-.52" transform="translate(-121.926 -30.883)" fill="#828282"/>
  <path id="Trazado_240" data-name="Trazado 240" d="M193.719,37.1a.533.533,0,0,0-.52.52v6.3a.52.52,0,0,0,1.039,0v-6.3a.533.533,0,0,0-.52-.52" transform="translate(-137.875 -30.883)" fill="#828282"/>
  <path id="Trazado_241" data-name="Trazado 241" d="M209.011,37.1a.533.533,0,0,0-.52.52V42.5l-4.052-5.126a.545.545,0,0,0-.45-.242h-.069a.533.533,0,0,0-.52.52v6.3a.52.52,0,0,0,1.039,0V38.9l4.156,5.264a.636.636,0,0,0,.45.277h.035a.473.473,0,0,0,.485-.485V37.62a.562.562,0,0,0-.554-.52" transform="translate(-144.542 -30.883)" fill="#828282"/>
  <path id="Trazado_242" data-name="Trazado 242" d="M250.071,36.9a3.7,3.7,0,0,0-3.671,3.775,3.617,3.617,0,0,0,3.637,3.741,3.7,3.7,0,0,0,3.671-3.775,3.577,3.577,0,0,0-3.637-3.741m0,6.477a2.658,2.658,0,0,1-2.6-2.771,2.607,2.607,0,0,1,2.6-2.736,2.658,2.658,0,0,1,2.6,2.771,2.607,2.607,0,0,1-2.6,2.736" transform="translate(-172.649 -30.752)" fill="#828282"/>
  <path id="Trazado_243" data-name="Trazado 243" d="M231.9,37.2h-4.814a.485.485,0,1,0,0,.97H231.9a.473.473,0,0,0,.485-.485.454.454,0,0,0-.485-.485" transform="translate(-159.707 -30.948)" fill="#828282"/>
  <path id="Trazado_244" data-name="Trazado 244" d="M233.5,43.179v4.433a.473.473,0,0,0,.485.485.5.5,0,0,0,.485-.485V43.179a.485.485,0,1,0-.97,0" transform="translate(-164.217 -34.537)" fill="#828282"/>
  <path id="Trazado_245" data-name="Trazado 245" d="M142.52,74a.533.533,0,0,0-.52.52v6.3a.52.52,0,0,0,1.039,0v-6.3a.533.533,0,0,0-.52-.52" transform="translate(-104.408 -55.003)" fill="#828282"/>
  <path id="Trazado_246" data-name="Trazado 246" d="M158.573,74h-.035a.649.649,0,0,0-.485.277l-2.424,3.533L153.2,74.277a.545.545,0,0,0-.45-.242h-.035a.533.533,0,0,0-.52.52v6.3a.52.52,0,1,0,1.039,0v-4.78l1.974,2.875a.539.539,0,0,0,.9,0l1.974-2.875v4.745a.52.52,0,1,0,1.039,0v-6.3a.592.592,0,0,0-.554-.52" transform="translate(-111.075 -55.003)" fill="#828282"/>
  <path id="Trazado_247" data-name="Trazado 247" d="M181.8,74.1H179.62a.533.533,0,0,0-.52.52v6.269a.52.52,0,1,0,1.039,0V78.845H181.7c1.732,0,2.909-.97,2.909-2.424-.035-1.385-1.143-2.321-2.805-2.321m-.1,3.775h-1.559V75.1h1.628c.52,0,1.766.139,1.766,1.385,0,.831-.727,1.385-1.836,1.385" transform="translate(-128.659 -55.068)" fill="#828282"/>
  <path id="Trazado_248" data-name="Trazado 248" d="M201.222,74.381a.626.626,0,0,0-.589-.381.658.658,0,0,0-.589.381l-2.875,6.234a.466.466,0,0,0-.069.277.5.5,0,0,0,.52.485.558.558,0,0,0,.485-.346l.727-1.593h3.637L203.2,81a.558.558,0,0,0,.485.346.533.533,0,0,0,.52-.52.815.815,0,0,0-.069-.277Zm-1.974,4.052,1.351-2.979,1.351,2.979Z" transform="translate(-140.424 -55.003)" fill="#828282"/>
  <path id="Trazado_249" data-name="Trazado 249" d="M226.992,79.307a.529.529,0,0,0-.346.139,2.7,2.7,0,1,1-2.009-4.641,2.641,2.641,0,0,1,1.94.8.521.521,0,0,0,.381.139.533.533,0,0,0,.52-.52.577.577,0,0,0-.208-.416,3.855,3.855,0,0,0-2.632-1A3.668,3.668,0,0,0,221,77.575a3.61,3.61,0,0,0,3.6,3.741,3.692,3.692,0,0,0,2.736-1.143.521.521,0,0,0,.139-.381.473.473,0,0,0-.485-.485" transform="translate(-156.047 -54.872)" fill="#828282"/>
  <path id="Trazado_250" data-name="Trazado 250" d="M267.171,73.8a3.7,3.7,0,0,0-3.671,3.775,3.618,3.618,0,0,0,3.637,3.741,3.7,3.7,0,0,0,3.671-3.775,3.6,3.6,0,0,0-3.637-3.741m0,6.511a2.658,2.658,0,0,1-2.6-2.771,2.607,2.607,0,0,1,2.6-2.736,2.758,2.758,0,0,1,0,5.507" transform="translate(-183.827 -54.872)" fill="#828282"/>
  <path id="Trazado_251" data-name="Trazado 251" d="M250.6,80.085v4.433a.473.473,0,0,0,.485.485.5.5,0,0,0,.485-.485V80.085a.485.485,0,1,0-.97,0" transform="translate(-175.395 -58.663)" fill="#828282"/>
  <path id="Trazado_252" data-name="Trazado 252" d="M249,74.1h-4.814a.5.5,0,0,0-.485.485.473.473,0,0,0,.485.485H249a.474.474,0,0,0,.485-.485A.5.5,0,0,0,249,74.1" transform="translate(-170.885 -55.068)" fill="#828282"/>
  <path id="Trazado_253" data-name="Trazado 253" d="M145.537,36.9a3.6,3.6,0,0,0-3.637,3.741A3.986,3.986,0,0,0,142.662,43l-.554.485a.54.54,0,0,0-.208.416.533.533,0,0,0,.52.52.447.447,0,0,0,.381-.173l2.251-1.974a.487.487,0,0,0,.208-.416.533.533,0,0,0-.52-.52.494.494,0,0,0-.381.173l-.9.831a2.905,2.905,0,0,1-.485-1.628,2.658,2.658,0,0,1,2.6-2.771,2.607,2.607,0,0,1,2.6,2.736,2.658,2.658,0,0,1-2.6,2.771c-.173,0-.346-.035-.485-.035l-.9.8a3.661,3.661,0,0,0,1.385.277,3.6,3.6,0,0,0,3.637-3.741,3.672,3.672,0,0,0-3.671-3.844" transform="translate(-104.343 -30.752)" fill="#828282"/>
</svg>
