<?xml version="1.0" encoding="utf-8"?>
<!-- Generator: Adobe Illustrator 24.0.2, SVG Export Plug-In . SVG Version: 6.00 Build 0)  -->
<svg version="1.1" id="Capa_1" xmlns="http://www.w3.org/2000/svg" xmlns:xlink="http://www.w3.org/1999/xlink" x="0px" y="0px"
	 width="512px" height="512px" viewBox="0 0 512 512" style="enable-background:new 0 0 512 512;" xml:space="preserve">
<style type="text/css">
	.st0{fill:#B88F3D;}
	.st1{fill:#AB7C1C;}
	.st2{fill:#C7A85C;}
	.st3{fill:#E8DEBA;}
	.st4{fill:#800000;}
	.st5{fill:#333333;}
</style>
<circle class="st0" cx="264.1" cy="268.2" r="236.2"/>
<path class="st1" d="M304.9,488.1c-130.4,0-236.2-105.7-236.2-236.2c0-91.6,52.2-171.1,128.4-210.2C99.4,70.6,28,161.1,28,268.2
	c0,130.4,105.7,236.2,236.2,236.2c38.8,0,75.4-9.4,107.7-25.9C350.6,484.7,328.1,488.1,304.9,488.1z"/>
<g>
	<path class="st2" d="M197.1,41.7C152,55.1,112.5,81.5,83.1,116.7l17.2,17.2C123,94.6,156.7,62.5,197.1,41.7z"/>
	<path class="st2" d="M202.9,465L169,484.4c29.1,12.8,61.3,20,95.1,20c38.8,0,75.4-9.4,107.7-25.9c-21.2,6.3-43.7,9.6-67,9.6
		C268.3,488.1,233.8,479.8,202.9,465z"/>
</g>
<path class="st3" d="M468.5,386.7l-125.6-29.9c0,0-19.7-59-19.7-68.9s49.2-68.9,49.2-68.9l119.7-12.6
	C464.9,106,373.2,32.1,264.1,32.1c-23.3,0-45.8,3.4-67,9.7c-40.5,20.8-74.1,52.9-96.8,92.2l26.1,26.1l78.7,9.8l59,49.5l9.8,58.7
	l9.8,59l-36,102.1l-45,25.8c30.9,14.8,65.4,23.1,102,23.1c23.3,0,45.7-3.4,67-9.6C412.1,457.7,445.8,425.8,468.5,386.7z"/>
<path class="st2" d="M68.7,251.9c0-6.4,0.3-12.8,0.8-19.2l-39.3,3.3c-1.4,10.5-2.2,21.3-2.2,32.2c0,78.4,38.2,147.9,97,190.8
	l31-23.8C102.8,392,68.7,325.9,68.7,251.9z"/>
<path class="st3" d="M205.1,346.9l-49.2-29.5l-39.4-88.6l-47.1,3.9c-0.5,6.3-0.8,12.7-0.8,19.2c0,74,34,140,87.3,183.3l26.7-20.5
	L205.1,346.9z"/>
<path class="st3" d="M264.1,341.5c0-36,29.2-65.1,65.1-65.1s65.1,29.2,65.1,65.1c0,48.9-65.1,114-65.1,114S264.1,390.4,264.1,341.5z
	"/>
<path class="st2" d="M288.6,333.4c0-24.2,13.2-45.3,32.7-56.5c-32.2,3.9-57.2,31.4-57.2,64.6c0,48.9,65.1,114,65.1,114
	s6.7-6.7,15.8-17.4C327.3,418.4,288.6,371.1,288.6,333.4z"/>
<circle class="st4" cx="329.3" cy="341.5" r="32.6"/>
<path class="st3" d="M329.3,72.8c0-36,29.2-65.1,65.1-65.1s65.1,29.2,65.1,65.1c0,48.9-65.1,114-65.1,114S329.3,121.6,329.3,72.8z"
	/>
<path class="st2" d="M353.7,64.6c0-24.2,13.2-45.3,32.7-56.5c-32.2,3.9-57.2,31.4-57.2,64.6c0,48.9,65.1,114,65.1,114
	s6.7-6.7,15.8-17.4C392.5,149.7,353.7,102.3,353.7,64.6z"/>
<circle class="st4" cx="394.4" cy="72.8" r="32.6"/>
<path class="st3" d="M11.7,178.6c0-36,29.2-65.1,65.1-65.1s65.1,29.2,65.1,65.1c0,48.9-65.1,114-65.1,114S11.7,227.5,11.7,178.6z"/>
<path class="st2" d="M36.1,170.5c0-24.2,13.2-45.3,32.7-56.5c-32.2,3.9-57.2,31.4-57.2,64.6c0,48.9,65.1,114,65.1,114
	s6.7-6.7,15.8-17.4C74.9,255.6,36.1,208.2,36.1,170.5z"/>
<circle class="st4" cx="76.9" cy="178.6" r="32.6"/>
<path class="st5" d="M455.2,116.8c7.1-14.6,12-29.8,12-44c0-40.1-32.6-72.8-72.8-72.8c-26,0-48.8,13.7-61.7,34.2
	c-14.1-4.1-28.7-7-43.4-8.5c-4.2-0.4-7.9,2.6-8.4,6.8c-0.4,4.2,2.6,7.9,6.8,8.4c12.9,1.3,25.7,3.8,38.1,7.2
	c-2.8,7.7-4.3,16-4.3,24.6c0,51.4,64.6,116.7,67.4,119.4c2.9,2.9,7.9,2.9,10.8,0c1.7-1.7,28.1-28.4,47.4-60.7
	c15.7,20.9,27.5,43.9,35.1,68.3l-110.7,11.7c-2,0.2-3.8,1.2-5.1,2.7c-1.1,1.4-28.2,33.9-42.1,54.8c-15.7,1-30,7.1-41.5,16.5
	l-1.4-8.6l-9.8-58.7c-0.3-1.8-1.2-3.4-2.6-4.6L210,164c-1.1-0.9-2.5-1.5-4-1.7l-60.5-7.6c-7.4-21.3-24.5-38-45.9-45.1
	c40.7-42.2,94.9-66.9,153.6-69.6c4.2-0.2,7.5-3.8,7.3-8s-3.8-7.5-8-7.3c-33.2,1.5-65.1,9.7-94.8,24.1c-28.8,14-54.3,33.3-75.7,57.3
	c-1.7-0.1-3.5-0.2-5.2-0.2c-40.1,0-72.8,32.6-72.8,72.8c0,18.1,8,38,18.6,56.2c-1.5,11-2.3,22.2-2.3,33.4
	c0,65.1,25.4,126.3,71.4,172.4S199,512,264.1,512s126.3-25.4,172.4-71.4c46-46,71.4-107.3,71.4-172.4
	C507.9,212.6,489.7,160.2,455.2,116.8z M394.4,175.7c-15.2-16.5-57.5-65.8-57.5-102.9c0-31.7,25.8-57.5,57.5-57.5
	s57.5,25.8,57.5,57.5C451.9,109.9,409.7,159.1,394.4,175.7z M329.3,284c31.7,0,57.5,25.8,57.5,57.5c0,37.2-42.3,86.4-57.5,102.9
	c-15.2-16.5-57.5-65.8-57.5-102.9C271.8,309.8,297.6,284,329.3,284z M201.9,177.1l55.2,46.3l9.4,55.9l3.4,20.3
	c-8.4,11.9-13.3,26.3-13.3,41.9c0,10.1,2.5,20.8,6.6,31.5l-21.5,61l-72.9,41.8c-10.7-4.9-20.9-10.7-30.6-17.1l49.3-37.8
	c1.2-0.9,2.1-2.2,2.6-3.7l22.4-67.9c1.1-3.4-0.3-7.1-3.3-8.9l-47.1-28.3l-32.8-73.9c11.5-19.1,20.6-40.3,20.6-59.6
	c0-2.7-0.2-5.5-0.5-8.1L201.9,177.1z M76.9,121.1c31.7,0,57.5,25.8,57.5,57.5c0,37.2-42.3,86.4-57.5,102.9
	C61.6,265,19.3,215.8,19.3,178.6C19.3,146.9,45.1,121.1,76.9,121.1z M35.6,268.2c0-4.2,0.1-8.5,0.4-12.7
	c16.7,23.6,34.1,41.1,35.5,42.5c2.9,2.9,7.9,2.9,10.8,0c1.4-1.4,19.7-19.9,36.9-44.5l29.8,67c0.6,1.4,1.7,2.6,3,3.4l44,26.4
	l-19.7,59.8l-51.1,39.2C70.7,407.6,35.6,341.9,35.6,268.2z M264.1,496.7c-27.2,0-53.4-4.8-77.6-13.6l65.1-37.3
	c1.6-0.9,2.8-2.4,3.4-4.1l17.3-49c19.3,35.6,49.7,66.3,51.6,68.1c2.9,2.9,7.9,2.9,10.8,0c2.1-2.1,41.8-42.2,59.3-84.1l62.4,14.9
	C415.7,454.8,344.7,496.7,264.1,496.7z M464.6,377.9L399,362.3c1.9-7.1,3.1-14,3.1-20.8c0-35.7-25.8-65.4-59.8-71.6
	c11.7-16.4,28.3-36.8,34-43.6l110.1-11.6c4.1,17.3,6.2,35.2,6.2,53.5C492.7,307.9,482.5,345.3,464.6,377.9z"/>
<path class="st5" d="M329.3,381.7c22.2,0,40.2-18,40.2-40.2s-18-40.2-40.2-40.2s-40.2,18-40.2,40.2
	C289.1,363.7,307.1,381.7,329.3,381.7z M329.3,316.6c13.8,0,24.9,11.2,24.9,24.9c0,13.8-11.2,24.9-24.9,24.9s-24.9-11.2-24.9-24.9
	C304.4,327.8,315.5,316.6,329.3,316.6z"/>
<path class="st5" d="M394.4,32.6c-22.2,0-40.2,18-40.2,40.2s18,40.2,40.2,40.2s40.2-18,40.2-40.2S416.6,32.6,394.4,32.6z
	 M394.4,97.7c-13.8,0-24.9-11.2-24.9-24.9s11.2-24.9,24.9-24.9s24.9,11.2,24.9,24.9S408.2,97.7,394.4,97.7z"/>
<path class="st5" d="M117.1,178.6c0-22.2-18-40.2-40.2-40.2s-40.2,18-40.2,40.2s18,40.2,40.2,40.2S117.1,200.8,117.1,178.6z
	 M51.9,178.6c0-13.8,11.2-24.9,24.9-24.9s24.9,11.2,24.9,24.9s-11.2,24.9-24.9,24.9S51.9,192.4,51.9,178.6z"/>
</svg>
